  0
SECTION
  2
HEADER
  9
$ACADVER
  1
AC1009
  9
$INSBASE
 10
0.0
 20
0.0
 30
0.0
  9
$EXTMIN
 10
-0.0145861206055
 20
-0.0145861206055
 30
0.0
  9
$EXTMAX
 10
600.0
 20
200.115726
 30
0.0
  9
$LIMMIN
 10
0.0
 20
0.0
  9
$LIMMAX
 10
12.0
 20
9.0
  9
$ORTHOMODE
 70
     0
  9
$REGENMODE
 70
     1
  9
$FILLMODE
 70
     1
  9
$QTEXTMODE
 70
     0
  9
$MIRRTEXT
 70
     0
  9
$DRAGMODE
 70
     2
  9
$LTSCALE
 40
1.0
  9
$OSMODE
 70
    37
  9
$ATTMODE
 70
     1
  9
$TEXTSIZE
 40
0.2
  9
$TRACEWID
 40
0.05
  9
$TEXTSTYLE
  7
STANDARD
  9
$CLAYER
  8
0
  9
$CELTYPE
  6
BYLAYER
  9
$CECOLOR
 62
   256
  9
$DIMSCALE
 40
1.0
  9
$DIMASZ
 40
0.18
  9
$DIMEXO
 40
0.0625
  9
$DIMDLI
 40
0.38
  9
$DIMRND
 40
0.0
  9
$DIMDLE
 40
0.0
  9
$DIMEXE
 40
0.18
  9
$DIMTP
 40
0.0
  9
$DIMTM
 40
0.0
  9
$DIMTXT
 40
0.18
  9
$DIMCEN
 40
0.09
  9
$DIMTSZ
 40
0.0
  9
$DIMTOL
 70
     0
  9
$DIMLIM
 70
     0
  9
$DIMTIH
 70
     1
  9
$DIMTOH
 70
     1
  9
$DIMSE1
 70
     0
  9
$DIMSE2
 70
     0
  9
$DIMTAD
 70
     0
  9
$DIMZIN
 70
     0
  9
$DIMBLK
  1

  9
$DIMASO
 70
     1
  9
$DIMSHO
 70
     1
  9
$DIMPOST
  1

  9
$DIMAPOST
  1

  9
$DIMALT
 70
     0
  9
$DIMALTD
 70
     2
  9
$DIMALTF
 40
25.4
  9
$DIMLFAC
 40
1.0
  9
$DIMTOFL
 70
     0
  9
$DIMTVP
 40
0.0
  9
$DIMTIX
 70
     0
  9
$DIMSOXD
 70
     0
  9
$DIMSAH
 70
     0
  9
$DIMBLK1
  1

  9
$DIMBLK2
  1

  9
$DIMSTYLE
  2
STANDARD
  9
$DIMCLRD
 70
     0
  9
$DIMCLRE
 70
     0
  9
$DIMCLRT
 70
     0
  9
$DIMTFAC
 40
1.0
  9
$DIMGAP
 40
0.09
  9
$LUNITS
 70
     2
  9
$LUPREC
 70
     4
  9
$SKETCHINC
 40
0.1
  9
$FILLETRAD
 40
0.0
  9
$AUNITS
 70
     0
  9
$AUPREC
 70
     0
  9
$MENU
  1
.
  9
$ELEVATION
 40
0.0
  9
$PELEVATION
 40
0.0
  9
$THICKNESS
 40
0.0
  9
$LIMCHECK
 70
     0
  9
$BLIPMODE
 70
     0
  9
$CHAMFERA
 40
0.0
  9
$CHAMFERB
 40
0.0
  9
$SKPOLY
 70
     0
  9
$TDCREATE
 40
2459805.10415276
  9
$TDUPDATE
 40
2459805.10416007
  9
$TDINDWG
 40
0.000007354271991
  9
$TDUSRTIMER
 40
0.000007354271991
  9
$USRTIMER
 70
     1
  9
$ANGBASE
 50
0.0
  9
$ANGDIR
 70
     0
  9
$PDMODE
 70
     0
  9
$PDSIZE
 40
0.0
  9
$PLINEWID
 40
0.0
  9
$COORDS
 70
     1
  9
$SPLFRAME
 70
     0
  9
$SPLINETYPE
 70
     6
  9
$SPLINESEGS
 70
     8
  9
$ATTDIA
 70
     1
  9
$ATTREQ
 70
     1
  9
$HANDLING
 70
     1
  9
$HANDSEED
  5
2C6
  9
$SURFTAB1
 70
     6
  9
$SURFTAB2
 70
     6
  9
$SURFTYPE
 70
     6
  9
$SURFU
 70
     6
  9
$SURFV
 70
     6
  9
$UCSNAME
  2

  9
$UCSORG
 10
0.0
 20
0.0
 30
0.0
  9
$UCSXDIR
 10
1.0
 20
0.0
 30
0.0
  9
$UCSYDIR
 10
0.0
 20
1.0
 30
0.0
  9
$PUCSNAME
  2

  9
$PUCSORG
 10
0.0
 20
0.0
 30
0.0
  9
$PUCSXDIR
 10
1.0
 20
0.0
 30
0.0
  9
$PUCSYDIR
 10
0.0
 20
1.0
 30
0.0
  9
$USERI1
 70
     0
  9
$USERI2
 70
     0
  9
$USERI3
 70
     0
  9
$USERI4
 70
     0
  9
$USERI5
 70
     0
  9
$USERR1
 40
0.0
  9
$USERR2
 40
0.0
  9
$USERR3
 40
0.0
  9
$USERR4
 40
0.0
  9
$USERR5
 40
0.0
  9
$WORLDVIEW
 70
     1
  9
$SHADEDGE
 70
     3
  9
$SHADEDIF
 70
    70
  9
$TILEMODE
 70
     1
  9
$MAXACTVP
 70
    64
  9
$PLIMCHECK
 70
     0
  9
$PEXTMIN
 10
100000000000000000000.0
 20
100000000000000000000.0
 30
100000000000000000000.0
  9
$PEXTMAX
 10
-100000000000000000000.0
 20
-100000000000000000000.0
 30
-100000000000000000000.0
  9
$PLIMMIN
 10
0.0
 20
0.0
  9
$PLIMMAX
 10
12.0
 20
9.0
  9
$UNITMODE
 70
     0
  9
$VISRETAIN
 70
     1
  9
$PLINEGEN
 70
     0
  9
$PSLTSCALE
 70
     1
  0
ENDSEC
  0
SECTION
  2
TABLES
  0
TABLE
  2
VPORT
  5
1
 70
     1
  0
VPORT
  5
2
100
AcDbSymbolTableRecord
  2
*ACTIVE
 70
     0
 10
0.0
 20
0.0
 11
1.0
 21
1.0
 12
0.0
 22
0.0
 13
0.0
 23
0.0
 14
1.0
 24
1.0
 15
1.0
 25
1.0
 16
0.0
 26
0.0
 36
1.0
 17
0.0
 27
0.0
 37
0.0
 40
1.0
 41
1.0
 42
50.0
 43
0.0
 44
0.0
 50
0.0
 51
0.0
 71
     0
 72
  1000
 73
     1
 74
     3
 75
     0
 76
     0
 77
     0
 78
     0
  0
ENDTAB
  0
TABLE
  2
LTYPE
  5
3
 70
     3
  0
LTYPE
  5
5
100
AcDbSymbolTableRecord
  2
BYBLOCK
 70
     0
  3

 72
    65
 73
     0
 40
0.0
  0
LTYPE
  5
4
100
AcDbSymbolTableRecord
  2
BYLAYER
 70
     0
  3

 72
    65
 73
     0
 40
0.0
  0
LTYPE
  5
6
100
AcDbSymbolTableRecord
  2
CONTINUOUS
 70
     0
  3

 72
    65
 73
     0
 40
0.0
  0
ENDTAB
  0
TABLE
  2
LAYER
  5
7
 70
     3
  0
LAYER
  5
8
100
AcDbSymbolTableRecord
  2
0
 70
     0
 62
     7
  6
CONTINUOUS
  0
LAYER
  5
A
100
AcDbSymbolTableRecord
  2
Elements
 70
     0
 62
     7
  6
CONTINUOUS
  0
LAYER
  5
9
100
AcDbSymbolTableRecord
  2
Plate H200 W600
 70
     0
 62
     7
  6
CONTINUOUS
  0
ENDTAB
  0
TABLE
  2
STYLE
  5
B
 70
     2
  0
STYLE
  5
D
100
AcDbSymbolTableRecord
  2
ANNOTATIVE
 70
     0
 40
0.0
 41
1.0
 50
0.0
 71
     0
 42
0.2
  3
txt
  4

  0
STYLE
  5
C
100
AcDbSymbolTableRecord
  2
STANDARD
 70
     0
 40
0.0
 41
1.0
 50
0.0
 71
     0
 42
0.2
  3
txt
  4

  0
ENDTAB
  0
TABLE
  2
VIEW
  5
E
 70
     0
  0
ENDTAB
  0
TABLE
  2
UCS
  5
F
 70
     0
  0
ENDTAB
  0
TABLE
  2
APPID
  5
10
 70
     4
  0
APPID
  5
11
100
AcDbSymbolTableRecord
  2
ACAD
 70
     0
  0
APPID
  5
14
100
AcDbSymbolTableRecord
  2
ACAD_MLEADERVER
 70
     0
  0
APPID
  5
13
100
AcDbSymbolTableRecord
  2
ACAD_NAV_VCDISPLAY
 70
     0
  0
APPID
  5
12
100
AcDbSymbolTableRecord
  2
ACADANNOTATIVE
 70
     0
  0
ENDTAB
  0
TABLE
  2
DIMSTYLE
  5
15
 70
     2
  0
DIMSTYLE
105
17
100
AcDbSymbolTableRecord
  2
ANNOTATIVE
 70
     0
  3

  4

  5

  6

  7

 40
1.0
 41
0.18
 42
0.0625
 43
0.38
 44
0.18
 45
0.0
 46
0.0
 47
0.0
 48
0.0
 71
     0
 72
     0
 73
     1
 74
     1
 75
     0
 76
     0
 77
     0
 78
     0
140
0.18
141
0.09
142
0.0
143
25.4
144
1.0
145
0.0
146
1.0
147
0.09
170
     0
171
     2
172
     0
173
     0
174
     0
175
     0
176
     0
177
     0
178
     0
  0
DIMSTYLE
105
16
100
AcDbSymbolTableRecord
  2
STANDARD
 70
     0
  3

  4

  5

  6

  7

 40
1.0
 41
0.18
 42
0.0625
 43
0.38
 44
0.18
 45
0.0
 46
0.0
 47
0.0
 48
0.0
 71
     0
 72
     0
 73
     1
 74
     1
 75
     0
 76
     0
 77
     0
 78
     0
140
0.18
141
0.09
142
0.0
143
25.4
144
1.0
145
0.0
146
1.0
147
0.09
170
     0
171
     2
172
     0
173
     0
174
     0
175
     0
176
     0
177
     0
178
     0
  0
ENDTAB
  0
ENDSEC
  0
SECTION
  2
BLOCKS
  0
BLOCK
  8
0
  2
*MODEL_SPACE
 70
     0
 10
0.0
 20
0.0
 30
0.0
  3
*MODEL_SPACE
  1

  0
ENDBLK
  5
1B
  8
0
  0
BLOCK
  8
0
  2
*PAPER_SPACE
 70
     0
 10
0.0
 20
0.0
 30
0.0
  3
*PAPER_SPACE
  1

  0
ENDBLK
  5
1D
  8
0
  0
ENDSEC
  0
SECTION
  2
ENTITIES
  0
POLYLINE
  5
1E
  8
Plate H200 W600
100
AcDb2dPolyline
 66
     1
 10
0.0
 20
0.0
 30
0.0
 70
     1
  0
VERTEX
  5
1F
  8
0
100
AcDbVertex
100
AcDb2dVertex
 10
0.0
 20
0.0
 30
0.0
 70
     0
 50
0.0
  0
VERTEX
  5
20
  8
0
100
AcDbVertex
100
AcDb2dVertex
 10
600.0
 20
0.0
 30
0.0
 70
     0
 50
0.0
  0
VERTEX
  5
21
  8
0
100
AcDbVertex
100
AcDb2dVertex
 10
600.0
 20
200.0
 30
0.0
 70
     0
 50
0.0
  0
VERTEX
  5
22
  8
0
100
AcDbVertex
100
AcDb2dVertex
 10
0.0
 20
200.0
 30
0.0
 70
     0
 50
0.0
  0
SEQEND
  5
23
  8
0
  0
ARC
  5
24
330
1D
  8
Elements
 10
79.669
 20
79.669
 30
0.0
 40
79.6835861206055
 50
-253.90522
 51
73.905212
  0
LINE
  5
25
330
1D
  8
Elements
 10
101.759448
 20
156.229341
 30
0.0
 11
89.007001
 21
112.032335
 31
0.0
  0
ARC
  5
26
330
1D
  8
Elements
 10
79.669
 20
79.669
 30
0.0
 40
33.6835823059082
 50
-253.90522
 51
73.905212
  0
LINE
  5
27
330
1D
  8
Elements
 10
70.330999
 20
112.032335
 30
0.0
 11
57.578552
 21
156.229341
 31
0.0
  0
CIRCLE
  5
28
330
1D
  8
Elements
 10
285.654536
 20
155.380409
 30
0.0
 40
10.385458946228
  0
CIRCLE
  5
29
330
1D
  8
Elements
 10
288.965865
 20
109.667732
 30
0.0
 40
6.16173553466797
  0
CIRCLE
  5
2A
330
1D
  8
Elements
 10
264.222561
 20
80.058364
 30
0.0
 40
6.16173553466797
  0
CIRCLE
  5
2B
330
1D
  8
Elements
 10
232.089005
 20
167.68254
 30
0.0
 40
6.16173553466797
  0
CIRCLE
  5
2C
330
1D
  8
Elements
 10
198.77073
 20
163.325534
 30
0.0
 40
6.16173553466797
  0
CIRCLE
  5
2D
330
1D
  8
Elements
 10
168.527985
 20
159.224826
 30
0.0
 40
6.16173553466797
  0
CIRCLE
  5
2E
330
1D
  8
Elements
 10
100.635895
 20
186.115726
 30
0.0
 40
2.5
  0
ARC
  5
2F
330
1D
  8
Elements
 10
187.781151
 20
159.024585
 30
0.0
 40
100.0
 50
280.32711
 51
325.197418
  0
ARC
  5
30
330
1D
  8
Elements
 10
245.26957
 20
123.919105
 30
0.0
 40
33.0
 50
318.260544
 51
464.953491
  0
LINE
  5
31
330
1D
  8
Elements
 10
236.754418
 20
155.801578
 30
0.0
 11
146.363999
 21
145.534519
 31
0.0
  0
ARC
  5
32
330
1D
  8
Elements
 10
139.520356
 20
200.389978
 30
0.0
 40
55.2807083129883
 50
202.530907
 51
277.111343
  0
ARC
  5
33
330
1D
  8
Elements
 10
100.635895
 20
186.115726
 30
0.0
 40
14.0
 50
7.62858600000001
 51
209.567627
  0
ARC
  5
34
330
1D
  8
Elements
 10
143.238114
 20
195.735851
 30
0.0
 40
29.7562217712402
 50
195.119911
 51
281.697144
  0
LINE
  5
35
330
1D
  8
Elements
 10
149.270844
 20
166.597579
 30
0.0
 11
251.28788
 21
184.113114
 31
0.0
  0
ARC
  5
36
330
1D
  8
Elements
 10
263.415215
 20
135.606124
 30
0.0
 40
50.0
 50
347.783829
 51
464.036896
  0
ARC
  5
37
330
1D
  8
Elements
 10
227.49022
 20
141.146583
 30
0.0
 40
86.3115844726563
 50
275.53611
 51
349.235611
  0
ARC
  5
38
330
1D
  8
Elements
 10
227.406662
 20
136.922504
 30
0.0
 40
82.1167373657227
 50
254.860016
 51
275.878471
  0
ARC
  5
39
330
1D
  8
Elements
 10
206.230576
 20
59.183685
 30
0.0
 40
1.55154860019684
 50
109.685242
 51
259.940186
  0
LINE
  5
3A
330
1D
  8
Elements
 10
394.967786
 20
75.746191
 30
0.0
 11
431.670301
 21
42.03597
 31
0.0
  0
LINE
  5
3B
330
1D
  8
Elements
 10
431.670301
 20
42.03597
 30
0.0
 11
382.430936
 21
49.713167
 31
0.0
  0
LINE
  5
3C
330
1D
  8
Elements
 10
382.430936
 20
49.713167
 30
0.0
 11
378.958867
 21
0.000007999999995
 31
0.0
  0
LINE
  5
3D
330
1D
  8
Elements
 10
378.958867
 20
0.000007999999995
 30
0.0
 11
354.260907
 21
43.28354
 31
0.0
  0
LINE
  5
3E
330
1D
  8
Elements
 10
354.260907
 20
43.28354
 30
0.0
 11
313.228791
 21
15.002468
 31
0.0
  0
LINE
  5
3F
330
1D
  8
Elements
 10
313.228791
 20
15.002468
 30
0.0
 11
331.670293
 21
61.298952
 31
0.0
  0
LINE
  5
40
330
1D
  8
Elements
 10
331.670293
 20
61.298952
 30
0.0
 11
283.976156
 21
75.746191
 31
0.0
  0
LINE
  5
41
330
1D
  8
Elements
 10
283.976156
 20
75.746191
 30
0.0
 11
331.670293
 21
90.193434
 31
0.0
  0
LINE
  5
42
330
1D
  8
Elements
 10
331.670293
 20
90.193434
 30
0.0
 11
313.228791
 21
136.489912
 31
0.0
  0
LINE
  5
43
330
1D
  8
Elements
 10
313.228791
 20
136.489912
 30
0.0
 11
354.260907
 21
108.208845
 31
0.0
  0
LINE
  5
44
330
1D
  8
Elements
 10
354.260907
 20
108.208845
 30
0.0
 11
378.958867
 21
151.492384
 31
0.0
  0
LINE
  5
45
330
1D
  8
Elements
 10
378.958867
 20
151.492384
 30
0.0
 11
382.430936
 21
101.779218
 31
0.0
  0
LINE
  5
46
330
1D
  8
Elements
 10
382.430936
 20
101.779218
 30
0.0
 11
431.670301
 21
109.456419
 31
0.0
  0
LINE
  5
47
330
1D
  8
Elements
 10
431.670301
 20
109.456419
 30
0.0
 11
394.967786
 21
75.746191
 31
0.0
  0
LINE
  5
48
330
1D
  8
Elements
 10
532.306026
 20
160.400902
 30
0.0
 11
533.371333999999
 21
158.962425
 31
0.0
  0
ARC
  5
49
330
1D
  8
Elements
 10
505.122677
 20
178.755394
 30
0.0
 40
34.4927274514831
 50
323.706649
 51
324.982248
  0
ARC
  5
4A
330
1D
  8
Elements
 10
510.86108
 20
174.541038
 30
0.0
 40
27.3730817427859
 50
310.591927
 51
323.706649
  0
ARC
  5
4B
330
1D
  8
Elements
 10
518.707638
 20
165.385521
 30
0.0
 40
15.315240675784
 50
298.964559
 51
310.587475
  0
ARC
  5
4C
330
1D
  8
Elements
 10
509.622555
 20
181.799339
 30
0.0
 40
34.0756517069831
 50
288.76283
 51
298.964559
  0
ARC
  5
4D
330
1D
  8
Elements
 10
518.874264
 20
154.56472
 30
0.0
 40
5.3125
 50
281.989011
 51
288.762178
  0
ARC
  5
4E
330
1D
  8
Elements
 10
518.344601
 20
157.059105
 30
0.0
 40
7.86250103558562
 50
271.614212
 51
281.988247
  0
ARC
  5
4F
330
1D
  8
Elements
 10
519.692867
 20
109.215599
 30
0.0
 40
40.0
 50
451.61428
 51
452.029594
  0
ARC
  5
50
330
1D
  8
Elements
 10
517.909419999999
 20
159.542015
 30
0.0
 40
10.3580080888287
 50
268.336827
 51
272.029575
  0
ARC
  5
51
330
1D
  8
Elements
 10
517.897213
 20
159.121605
 30
0.0
 40
9.9375
 50
609.078205
 51
628.336669
  0
ARC
  5
52
330
1D
  8
Elements
 10
509.080074
 20
136.05764
 30
0.0
 40
14.7544367005301
 50
429.078611
 51
436.248884
  0
ARC
  5
53
330
1D
  8
Elements
 10
512.078976
 20
147.453392
 30
0.0
 40
2.9794695117829
 50
440.17723
 51
459.82277
  0
LINE
  5
54
330
1D
  8
Elements
 10
511.570674999999
 20
150.389183
 30
0.0
 11
511.590694
 21
150.248558
 31
0.0
  0
ARC
  5
55
330
1D
  8
Elements
 10
506.515987
 20
141.818626
 30
0.0
 40
9.8395324542698
 50
385.312809
 51
418.952617
  0
ARC
  5
56
330
1D
  8
Elements
 10
512.698849
 20
144.742943
 30
0.0
 40
3.0
 50
365.164034
 51
385.313795
  0
ARC
  5
57
330
1D
  8
Elements
 10
471.623896999999
 20
141.032493
 30
0.0
 40
44.2422103492763
 50
359.805553
 51
365.161726
  0
ARC
  5
58
330
1D
  8
Elements
 10
512.850703999999
 20
143.276878
 30
0.0
 40
3.85030249980194
 50
296.475692
 51
321.54445
  0
ARC
  5
59
330
1D
  8
Elements
 10
504.248043
 20
221.32888
 30
0.0
 40
82.1492386297723
 50
271.76131
 51
277.216299
  0
ARC
  5
5A
330
1D
  8
Elements
 10
505.658321
 20
175.466575
 30
0.0
 40
36.2653509376904
 50
268.453344
 51
271.76131
  0
ARC
  5
5B
330
1D
  8
Elements
 10
504.822872
 20
144.524925
 30
0.0
 40
5.3125
 50
611.090834
 51
628.452874
  0
ARC
  5
5C
330
1D
  8
Elements
 10
486.075801999999
 20
89.7961649999997
 30
0.0
 40
52.538164506917
 50
431.091354
 51
433.652132
  0
ARC
  5
5D
330
1D
  8
Elements
 10
503.705562
 20
149.898704
 30
0.0
 40
10.0967403334655
 50
600.76609
 51
613.652132
  0
ARC
  5
5E
330
1D
  8
Elements
 10
510.272213
 20
161.629417
 30
0.0
 40
23.5402965170821
 50
592.046869
 51
600.762875
  0
LINE
  5
5F
330
1D
  8
Elements
 10
495.794552
 20
143.06765
 30
0.0
 11
495.785519
 21
143.074486
 31
0.0
  0
ARC
  5
60
330
1D
  8
Elements
 10
381.367793999999
 20
39.5639879999999
 30
0.0
 40
154.291409063171
 50
402.134758
 51
405.207152
  0
ARC
  5
61
330
1D
  8
Elements
 10
487.959469
 20
146.929222
 30
0.0
 40
3.0
 50
405.206069
 51
419.603605
  0
ARC
  5
62
330
1D
  8
Elements
 10
486.425167
 20
144.313743
 30
0.0
 40
6.03234988150296
 50
419.603103
 51
431.09024
  0
ARC
  5
63
330
1D
  8
Elements
 10
488.039058999999
 20
148.564476
 30
0.0
 40
1.49546655401456
 50
436.816789
 51
491.919775
  0
ARC
  5
64
330
1D
  8
Elements
 10
491.557491
 20
146.159446
 30
0.0
 40
5.7256952073967
 50
502.092233
 51
517.77441
  0
LINE
  5
65
330
1D
  8
Elements
 10
486.257198
 20
148.325217999999
 30
0.0
 11
486.332271
 21
147.552513
 31
0.0
  0
ARC
  5
66
330
1D
  8
Elements
 10
495.144283
 20
155.559349
 30
0.0
 40
11.9062674879488
 50
582.259148
 51
603.958411
  0
ARC
  5
67
330
1D
  8
Elements
 10
495.554194999999
 20
156.398216
 30
0.0
 40
12.8400155181583
 50
603.958411
 51
604.468218
  0
ARC
  5
68
330
1D
  8
Elements
 10
485.736812
 20
135.844993
 30
0.0
 40
9.9375
 50
411.095958
 51
424.468027
  0
ARC
  5
69
330
1D
  8
Elements
 10
481.116207
 20
130.119407
 30
0.0
 40
17.2949764670873
 50
405.293276
 51
411.096121
  0
ARC
  5
6A
330
1D
  8
Elements
 10
490.284298
 20
139.381614
 30
0.0
 40
4.26249602350159
 50
383.082461
 51
405.293276
  0
ARC
  5
6B
330
1D
  8
Elements
 10
488.157345
 20
138.474876
 30
0.0
 40
6.57467436683007
 50
370.128931
 51
383.084749
  0
ARC
  5
6C
330
1D
  8
Elements
 10
465.262447
 20
134.384788
 30
0.0
 40
29.8320373062122
 50
367.596223
 51
370.128931
  0
ARC
  5
6D
330
1D
  8
Elements
 10
484.982418
 20
137.014671
 30
0.0
 40
9.9375
 50
352.727015
 51
367.59669
  0
ARC
  5
6E
330
1D
  8
Elements
 10
466.402706
 20
139.386009
 30
0.0
 40
28.6678774892392
 50
346.848998
 51
352.726634
  0
LINE
  5
6F
330
1D
  8
Elements
 10
494.318722
 20
132.863548
 30
0.0
 11
493.892208
 21
132.312767
 31
0.0
  0
ARC
  5
70
330
1D
  8
Elements
 10
487.975948
 20
146.094017
 30
0.0
 40
14.9974991640891
 50
273.113697
 51
293.233739
  0
ARC
  5
71
330
1D
  8
Elements
 10
488.434322
 20
137.666038
 30
0.0
 40
6.5570356374124
 50
253.647721
 51
273.113697
  0
LINE
  5
72
330
1D
  8
Elements
 10
486.588253
 20
131.37429
 30
0.0
 11
485.418208999999
 21
131.717552
 31
0.0
  0
LINE
  5
73
330
1D
  8
Elements
 10
485.418208999999
 20
131.717552
 30
0.0
 11
485.237301
 21
131.884788
 31
0.0
  0
ARC
  5
74
330
1D
  8
Elements
 10
505.494991
 20
153.803978
 30
0.0
 40
29.8466680746359
 50
575.225899
 51
587.25592
  0
ARC
  5
75
330
1D
  8
Elements
 10
468.154415
 20
127.437767
 30
0.0
 40
15.8643886549731
 50
395.225899
 51
401.013976
  0
LINE
  5
76
330
1D
  8
Elements
 10
480.124874
 20
137.848655
 30
0.0
 11
479.997555
 21
137.994896
 31
0.0
  0
ARC
  5
77
330
1D
  8
Elements
 10
474.746578
 20
133.427025
 30
0.0
 40
6.95985795662959
 50
401.020297
 51
421.822242
  0
LINE
  5
78
330
1D
  8
Elements
 10
478.033077
 20
139.562034
 30
0.0
 11
477.585567
 21
139.583763
 31
0.0
  0
ARC
  5
79
330
1D
  8
Elements
 10
478.895992
 20
138.459495
 30
0.0
 40
1.72661250892125
 50
499.372343
 51
558.464409
  0
ARC
  5
7A
330
1D
  8
Elements
 10
481.937862
 20
139.690452
 30
0.0
 40
5.00600874895121
 50
560.801985
 51
582.841027
  0
ARC
  5
7B
330
1D
  8
Elements
 10
486.574215
 20
143.990013
 30
0.0
 40
11.3291200720366
 50
582.841027
 51
599.336904
  0
ARC
  5
7C
330
1D
  8
Elements
 10
476.907833
 20
127.686058
 30
0.0
 40
7.625
 50
409.941928
 51
419.336706
  0
ARC
  5
7D
330
1D
  8
Elements
 10
477.423824
 20
128.299583
 30
0.0
 40
6.82312801586186
 50
387.692371
 51
409.941609
  0
LINE
  5
7E
330
1D
  8
Elements
 10
483.46545
 20
131.470482
 30
0.0
 11
483.610226
 21
131.194847
 31
0.0
  0
LINE
  5
7F
330
1D
  8
Elements
 10
483.610226
 20
131.194847
 30
0.0
 11
483.512081
 21
130.430198
 31
0.0
  0
ARC
  5
80
330
1D
  8
Elements
 10
480.994625
 20
131.881126
 30
0.0
 40
2.90564558707034
 50
291.164011
 51
330.04314
  0
ARC
  5
81
330
1D
  8
Elements
 10
478.970455
 20
140.048607
 30
0.0
 40
11.3031118043143
 50
267.549501
 51
285.776564
  0
LINE
  5
82
330
1D
  8
Elements
 10
478.487179
 20
128.755882
 30
0.0
 11
477.748287
 21
128.787376
 31
0.0
  0
ARC
  5
83
330
1D
  8
Elements
 10
478.705439999999
 20
151.13845
 30
0.0
 40
22.3715181148197
 50
618.494608
 51
627.547837
  0
ARC
  5
84
330
1D
  8
Elements
 10
475.351681
 20
134.661644
 30
0.0
 40
5.55676623492555
 50
611.245738
 51
618.492838
  0
ARC
  5
85
330
1D
  8
Elements
 10
483.345211
 20
158.204124
 30
0.0
 40
30.4192828399989
 50
604.004713
 51
611.245738
  0
ARC
  5
86
330
1D
  8
Elements
 10
480.165157
 20
151.682396
 30
0.0
 40
23.1634958626965
 50
590.434431
 51
604.004713
  0
ARC
  5
87
330
1D
  8
Elements
 10
469.619381
 20
138.9197
 30
0.0
 40
6.60758868341171
 50
582.096555
 51
590.437899
  0
LINE
  5
88
330
1D
  8
Elements
 10
464.716427
 20
134.490013
 30
0.0
 11
464.686764
 21
134.522972
 31
0.0
  0
ARC
  5
89
330
1D
  8
Elements
 10
494.368771
 20
161.336693
 30
0.0
 40
40.0
 50
578.670638
 51
582.093755
  0
LINE
  5
8A
330
1D
  8
Elements
 10
463.13879
 20
136.34304
 30
0.0
 11
459.684444
 21
140.658958
 31
0.0
  0
ARC
  5
8B
330
1D
  8
Elements
 10
433.882442
 20
120.008812
 30
0.0
 40
33.048040380509
 50
398.67147
 51
406.123265
  0
LINE
  5
8C
330
1D
  8
Elements
 10
456.788326
 20
143.830833
 30
0.0
 11
451.809322
 21
148.618431
 31
0.0
  0
ARC
  5
8D
330
1D
  8
Elements
 10
424.084225
 20
119.785910999999
 30
0.0
 40
40.0
 50
406.121876
 51
409.305768
  0
LINE
  5
8E
330
1D
  8
Elements
 10
450.165157
 20
150.113792
 30
0.0
 11
449.890255
 21
150.350364
 31
0.0
  0
ARC
  5
8F
330
1D
  8
Elements
 10
446.84631
 20
146.811302
 30
0.0
 40
4.66801767641341
 50
409.301197
 51
433.414416
  0
ARC
  5
90
330
1D
  8
Elements
 10
446.200191
 20
144.641868
 30
0.0
 40
6.93165705530111
 50
433.414416
 51
454.351034
  0
LINE
  5
91
330
1D
  8
Elements
 10
445.674312
 20
151.553489
 30
0.0
 11
445.484737
 21
151.539085
 31
0.0
  0
ARC
  5
92
330
1D
  8
Elements
 10
446.678951
 20
148.658226
 30
0.0
 40
3.11857299082582
 50
472.515664
 51
503.679126
  0
ARC
  5
93
330
1D
  8
Elements
 10
445.825313
 20
151.180443
 30
0.0
 40
1.79113458386041
 50
562.140764
 51
615.071601
  0
ARC
  5
94
330
1D
  8
Elements
 10
441.288569999999
 20
128.556663
 30
0.0
 40
21.2868136560319
 50
433.656277
 51
438.962702
  0
ARC
  5
95
330
1D
  8
Elements
 10
444.270626
 20
138.725609
 30
0.0
 40
10.6895891912977
 50
417.836626
 51
433.656277
  0
ARC
  5
96
330
1D
  8
Elements
 10
447.983395
 20
144.627708
 30
0.0
 40
3.71685904621592
 50
410.422967
 51
417.853313
  0
LINE
  5
97
330
1D
  8
Elements
 10
450.351437
 20
147.492454
 30
0.0
 11
453.052364
 21
145.259788
 31
0.0
  0
ARC
  5
98
330
1D
  8
Elements
 10
427.567867
 20
114.428978
 30
0.0
 40
40.0
 50
403.794995
 51
410.423213
  0
ARC
  5
99
330
1D
  8
Elements
 10
449.21191
 20
135.178001
 30
0.0
 40
10.0168134910519
 50
396.649791
 51
403.80799
  0
LINE
  5
9A
330
1D
  8
Elements
 10
457.248409
 20
141.157249
 30
0.0
 11
458.392696
 21
139.619163
 31
0.0
  0
ARC
  5
9B
330
1D
  8
Elements
 10
443.983271999999
 20
128.89846
 30
0.0
 40
17.9601412233441
 50
386.54871
 51
396.649555
  0
LINE
  5
9C
330
1D
  8
Elements
 10
460.049557
 20
136.925804
 30
0.0
 11
460.21545
 21
136.593773
 31
0.0
  0
ARC
  5
9D
330
1D
  8
Elements
 10
456.789424999999
 20
134.881614
 30
0.0
 40
3.83004268009567
 50
333.044881
 51
386.553618
  0
LINE
  5
9E
330
1D
  8
Elements
 10
460.203365
 20
133.14553
 30
0.0
 11
459.410640999999
 21
132.704857
 31
0.0
  0
ARC
  5
9F
330
1D
  8
Elements
 10
458.523312
 20
139.190452
 30
0.0
 40
6.54601440258675
 50
262.631658
 51
277.790574
  0
ARC
  5
A0
330
1D
  8
Elements
 10
458.365108
 20
137.967064
 30
0.0
 40
5.3125
 50
602.848516
 51
622.631994
  0
ARC
  5
A1
330
1D
  8
Elements
 10
466.179562
 20
153.203636
 30
0.0
 40
22.4360635783791
 50
597.490625
 51
602.847858
  0
ARC
  5
A2
330
1D
  8
Elements
 10
452.942623
 20
132.303001
 30
0.0
 40
2.30460942022962
 50
419.231941
 51
477.420149
  0
ARC
  5
A3
330
1D
  8
Elements
 10
452.434566
 20
133.902611
 30
0.0
 40
0.710641526874683
 50
501.121929
 51
570.2699
  0
ARC
  5
A4
330
1D
  8
Elements
 10
455.793331
 20
136.67556
 30
0.0
 40
5.05798893987853
 50
578.245548
 51
596.430696
  0
ARC
  5
A5
330
1D
  8
Elements
 10
457.447018
 20
139.164818
 30
0.0
 40
8.04638983548326
 50
596.420346
 51
607.081245
  0
ARC
  5
A6
330
1D
  8
Elements
 10
463.146603
 20
152.645285999999
 30
0.0
 40
22.6822773042466
 50
607.081245
 51
610.124294
  0
ARC
  5
A7
330
1D
  8
Elements
 10
454.415157
 20
128.492943
 30
0.0
 40
3.0
 50
410.940748
 51
430.12505
  0
ARC
  5
A8
330
1D
  8
Elements
 10
451.631832
 20
125.063011
 30
0.0
 40
7.41706943534519
 50
399.889998
 51
410.941318
  0
ARC
  5
A9
330
1D
  8
Elements
 10
485.295406
 20
153.200217999999
 30
0.0
 40
36.4569753612959
 50
579.889998
 51
582.798462
  0
ARC
  5
AA
330
1D
  8
Elements
 10
456.34399
 20
126.392357
 30
0.0
 40
3.0
 50
380.91214
 51
402.796895
  0
ARC
  5
AB
330
1D
  8
Elements
 10
434.294674
 20
117.96804
 30
0.0
 40
26.6037675761455
 50
375.812929
 51
380.910207
  0
ARC
  5
AC
330
1D
  8
Elements
 10
450.330196
 20
122.509544
 30
0.0
 40
9.9375
 50
360.816445
 51
375.813145
  0
ARC
  5
AD
330
1D
  8
Elements
 10
440.69775
 20
122.372337
 30
0.0
 40
19.5709458239141
 50
357.116033
 51
360.816081
  0
ARC
  5
AE
330
1D
  8
Elements
 10
457.247677
 20
121.538597
 30
0.0
 40
3.0
 50
337.718904
 51
357.117221
  0
ARC
  5
AF
330
1D
  8
Elements
 10
450.218746
 20
124.418724
 30
0.0
 40
10.5961438431034
 50
328.618639
 51
337.718477
  0
ARC
  5
B0
330
1D
  8
Elements
 10
467.069576
 20
114.140648
 30
0.0
 40
9.14187092794273
 50
508.618639
 51
515.549207
  0
ARC
  5
B1
330
1D
  8
Elements
 10
446.011836999999
 20
84.5190659999998
 30
0.0
 40
35.7509036510557
 50
429.130856
 51
436.680018
  0
ARC
  5
B2
330
1D
  8
Elements
 10
463.098140999999
 20
156.686302
 30
0.0
 40
38.4114649162842
 50
613.329313
 51
616.680018
  0
ARC
  5
B3
330
1D
  8
Elements
 10
454.504513
 20
127.989525
 30
0.0
 40
8.45548575861511
 50
597.657402
 51
613.329313
  0
LINE
  5
B4
330
1D
  8
Elements
 10
449.980953
 20
120.845726
 30
0.0
 11
448.295284
 21
121.913109
 31
0.0
  0
ARC
  5
B5
330
1D
  8
Elements
 10
454.054562
 20
131.008079
 30
0.0
 40
10.7650754541871
 50
584.62351
 51
597.656221
  0
LINE
  5
B6
330
1D
  8
Elements
 10
446.392696
 20
123.446312
 30
0.0
 11
444.052853
 21
125.816917
 31
0.0
  0
ARC
  5
B7
330
1D
  8
Elements
 10
431.492549999999
 20
113.419945
 30
0.0
 40
17.6478602834537
 50
404.625246
 51
408.788431
  0
ARC
  5
B8
330
1D
  8
Elements
 10
442.712887
 20
126.143333
 30
0.0
 40
0.686331286610338
 50
413.643714
 51
481.072106
  0
ARC
  5
B9
330
1D
  8
Elements
 10
443.424679
 20
126.1968
 30
0.0
 40
1.19249746035459
 50
513.374621
 51
560.858765
  0
ARC
  5
BA
330
1D
  8
Elements
 10
404.931881
 20
111.529564
 30
0.0
 40
40.0
 50
380.685302
 51
380.858846
  0
ARC
  5
BB
330
1D
  8
Elements
 10
448.555172
 20
128.000755
 30
0.0
 40
6.62928252537504
 50
560.685429
 51
570.554136
  0
ARC
  5
BC
330
1D
  8
Elements
 10
447.117306
 20
127.152122
 30
0.0
 40
4.95959479786844
 50
570.554136
 51
599.311948
  0
LINE
  5
BD
330
1D
  8
Elements
 10
444.586056
 20
122.886986
 30
0.0
 11
445.125729
 21
122.566673
 31
0.0
  0
LINE
  5
BE
330
1D
  8
Elements
 10
445.125729
 20
122.566673
 30
0.0
 11
444.860958
 21
122.036644
 31
0.0
  0
ARC
  5
BF
330
1D
  8
Elements
 10
440.656979
 20
124.136741
 30
0.0
 40
4.69934156376097
 50
313.800059
 51
333.457187
  0
ARC
  5
C0
330
1D
  8
Elements
 10
437.697994
 20
127.221702
 30
0.0
 40
8.97401860098625
 50
300.001739
 51
313.802242
  0
LINE
  5
C1
330
1D
  8
Elements
 10
442.185299
 20
119.450217999999
 30
0.0
 11
441.879757
 21
119.273704
 31
0.0
  0
ARC
  5
C2
330
1D
  8
Elements
 10
437.296871
 20
127.210472
 30
0.0
 40
9.1649602201474
 50
275.052195
 51
300.003199
  0
ARC
  5
C3
330
1D
  8
Elements
 10
437.146358
 20
128.914085
 30
0.0
 40
10.8749950432218
 50
243.658717
 51
275.052195
  0
ARC
  5
C4
330
1D
  8
Elements
 10
424.429439
 20
121.238548
 30
0.0
 40
8.1586292614726
 50
345.299363
 51
373.170227
  0
ARC
  5
C5
330
1D
  8
Elements
 10
399.544674
 20
115.41555
 30
0.0
 40
33.7156090147287
 50
373.170283
 51
377.722004
  0
LINE
  5
C6
330
1D
  8
Elements
 10
431.660274
 20
125.678489
 30
0.0
 11
429.818233
 21
131.442894
 31
0.0
  0
ARC
  5
C7
330
1D
  8
Elements
 10
419.244991
 20
128.063988
 30
0.0
 40
11.1000484867253
 50
377.722395
 51
391.104257
  0
ARC
  5
C8
330
1D
  8
Elements
 10
365.46484
 20
95.6162339999996
 30
0.0
 40
73.9104418056777
 50
391.104257
 51
399.806281
  0
ARC
  5
C9
330
1D
  8
Elements
 10
415.699825
 20
137.479759
 30
0.0
 40
8.51864289974619
 50
399.806281
 51
414.911391
  0
LINE
  5
CA
330
1D
  8
Elements
 10
420.596676
 20
144.450217999999
 30
0.0
 11
417.770015999999
 21
146.435814
 31
0.0
  0
ARC
  5
CB
330
1D
  8
Elements
 10
412.546992999999
 20
139.000755
 30
0.0
 40
9.08632161176777
 50
414.912617
 51
429.091212
  0
LINE
  5
CC
330
1D
  8
Elements
 10
415.789791
 20
147.488792
 30
0.0
 11
414.126827
 21
148.124046
 31
0.0
  0
ARC
  5
CD
330
1D
  8
Elements
 10
418.35693
 20
144.459739
 30
0.0
 40
5.59650879097956
 50
499.099405
 51
517.154222
  0
LINE
  5
CE
330
1D
  8
Elements
 10
413.199458999999
 20
146.632591
 30
0.0
 11
413.300777
 21
145.877952
 31
0.0
  0
ARC
  5
CF
330
1D
  8
Elements
 10
417.984249
 20
149.912864
 30
0.0
 40
6.18186032230801
 50
580.74561
 51
596.11979
  0
ARC
  5
D0
330
1D
  8
Elements
 10
389.63586
 20
107.694359
 30
0.0
 40
44.671169659042
 50
411.917175
 51
416.11979
  0
ARC
  5
D1
330
1D
  8
Elements
 10
406.402583999999
 20
129.090842999999
 30
0.0
 40
17.4878999293028
 50
400.234386
 51
411.917175
  0
LINE
  5
D2
330
1D
  8
Elements
 10
419.752926
 20
140.386497
 30
0.0
 11
420.303463
 21
139.735862
 31
0.0
  0
ARC
  5
D3
330
1D
  8
Elements
 10
411.951168
 20
132.668724
 30
0.0
 40
10.9409247950953
 50
385.827205
 51
400.235608
  0
ARC
  5
D4
330
1D
  8
Elements
 10
392.56213
 20
123.284446
 30
0.0
 40
32.4815990964705
 50
379.872366
 51
385.827205
  0
ARC
  5
D5
330
1D
  8
Elements
 10
413.76379
 20
130.947777
 30
0.0
 40
9.9375
 50
366.225473
 51
379.871984
  0
ARC
  5
D6
330
1D
  8
Elements
 10
411.044552
 20
130.651146
 30
0.0
 40
12.6728552593194
 50
359.451672
 51
366.225552
  0
ARC
  5
D7
330
1D
  8
Elements
 10
429.029049
 20
130.479027
 30
0.0
 40
5.3125
 50
539.452311
 51
553.552164
  0
ARC
  5
D8
330
1D
  8
Elements
 10
415.93774
 20
127.323265
 30
0.0
 40
8.15385192844958
 50
357.975257
 51
373.553025
  0
LINE
  5
D9
330
1D
  8
Elements
 10
424.086544
 20
127.035179
 30
0.0
 11
424.23315
 21
126.764183
 31
0.0
  0
ARC
  5
DA
330
1D
  8
Elements
 10
423.747677
 20
130.569359
 30
0.0
 40
3.83611265223309
 50
255.126179
 51
277.270657
  0
ARC
  5
DB
330
1D
  8
Elements
 10
424.196896
 20
132.261009
 30
0.0
 40
5.58631826450168
 50
614.567778
 51
615.126179
  0
ARC
  5
DC
330
1D
  8
Elements
 10
421.410519
 20
122.167259
 30
0.0
 40
4.88488056272042
 50
434.567778
 51
451.227129
  0
LINE
  5
DD
330
1D
  8
Elements
 10
421.305904
 20
127.051048
 30
0.0
 11
421.08691
 21
127.046409
 31
0.0
  0
ARC
  5
DE
330
1D
  8
Elements
 10
434.697018
 20
224.508079
 30
0.0
 40
98.4073784225324
 50
619.101803
 51
622.050298
  0
LINE
  5
DF
330
1D
  8
Elements
 10
416.091671
 20
127.875511
 30
0.0
 11
412.210201
 21
130.901146
 31
0.0
  0
ARC
  5
E0
330
1D
  8
Elements
 10
415.132442
 20
134.650169
 30
0.0
 40
4.75345891858637
 50
572.518576
 51
592.06485
  0
ARC
  5
E1
330
1D
  8
Elements
 10
414.810787
 20
134.444847
 30
0.0
 40
4.37189916601093
 50
560.353022
 51
572.516836
  0
ARC
  5
E2
330
1D
  8
Elements
 10
425.098019
 20
138.261009
 30
0.0
 40
15.3441313722417
 50
551.775191
 51
560.353022
  0
ARC
  5
E3
330
1D
  8
Elements
 10
400.860347999999
 20
133.208519
 30
0.0
 40
9.41452650299286
 50
371.775191
 51
384.217143
  0
LINE
  5
E4
330
1D
  8
Elements
 10
409.446407
 20
137.070335
 30
0.0
 11
409.429683999999
 21
137.107445
 31
0.0
  0
ARC
  5
E5
330
1D
  8
Elements
 10
408.432612999999
 20
136.350853
 30
0.0
 40
1.25163107790091
 50
397.191768
 51
445.132405
  0
LINE
  5
E6
330
1D
  8
Elements
 10
408.538814
 20
137.597923
 30
0.0
 11
408.326412
 21
137.470238
 31
0.0
  0
ARC
  5
E7
330
1D
  8
Elements
 10
410.446651
 20
136.218773
 30
0.0
 40
2.46202736896069
 50
509.448899
 51
535.113685
  0
ARC
  5
E8
330
1D
  8
Elements
 10
419.280392
 20
136.885277
 30
0.0
 40
11.2961046950811
 50
542.317534
 51
567.903424
  0
ARC
  5
E9
330
1D
  8
Elements
 10
381.998043
 20
117.142845
 30
0.0
 40
30.8907997708951
 50
386.23231
 51
387.903424
  0
ARC
  5
EA
330
1D
  8
Elements
 10
404.942013
 20
128.448753
 30
0.0
 40
5.3125
 50
362.033144
 51
386.231803
  0
ARC
  5
EB
330
1D
  8
Elements
 10
401.385616
 20
128.322532
 30
0.0
 40
8.87118075020314
 50
356.396174
 51
362.032642
  0
LINE
  5
EC
330
1D
  8
Elements
 10
410.239254
 20
127.764915
 30
0.0
 11
409.997921
 21
127.331566
 31
0.0
  0
ARC
  5
ED
330
1D
  8
Elements
 10
402.726924999999
 20
141.720482
 30
0.0
 40
16.1215674549639
 50
290.368149
 51
296.808348
  0
ARC
  5
EE
330
1D
  8
Elements
 10
395.919918
 20
160.055198
 30
0.0
 40
35.6792057751151
 50
290.144926
 51
290.368149
  0
ARC
  5
EF
330
1D
  8
Elements
 10
404.785274
 20
135.888206
 30
0.0
 40
9.9375
 50
276.37983
 51
290.144497
  0
ARC
  5
F0
330
1D
  8
Elements
 10
404.010494
 20
142.817160999999
 30
0.0
 40
16.9095960402225
 50
269.039244
 51
276.380183
  0
ARC
  5
F1
330
1D
  8
Elements
 10
403.795406
 20
129.993187
 30
0.0
 40
4.08364244098787
 50
606.392786
 51
629.039244
  0
ARC
  5
F2
330
1D
  8
Elements
 10
403.74023
 20
129.868675
 30
0.0
 40
3.94754488032188
 50
588.069577
 51
606.402884
  0
ARC
  5
F3
330
1D
  8
Elements
 10
405.130855
 20
131.417015
 30
0.0
 40
6.02868750594191
 50
581.808739
 51
588.069577
  0
ARC
  5
F4
330
1D
  8
Elements
 10
404.269160999999
 20
130.646507
 30
0.0
 40
4.8726224204781
 50
562.053867
 51
581.808739
  0
ARC
  5
F5
330
1D
  8
Elements
 10
402.533564999999
 20
129.943382
 30
0.0
 40
3.0
 50
533.439167
 51
562.054236
  0
ARC
  5
F6
330
1D
  8
Elements
 10
389.484737
 20
131.443626
 30
0.0
 40
10.1347600797563
 50
353.441412
 51
354.102374
  0
ARC
  5
F7
330
1D
  8
Elements
 10
389.680904
 20
131.423362
 30
0.0
 40
9.9375
 50
354.102984
 51
371.278738
  0
ARC
  5
F8
330
1D
  8
Elements
 10
376.391842
 20
128.772972
 30
0.0
 40
23.4883096185028
 50
371.279161
 51
388.147629
  0
ARC
  5
F9
330
1D
  8
Elements
 10
394.457149
 20
138.438255
 30
0.0
 40
3.0
 50
388.149012
 51
407.640214
  0
ARC
  5
FA
330
1D
  8
Elements
 10
378.986446
 20
121.471702
 30
0.0
 40
25.9609112910191
 50
407.640334
 51
414.276354
  0
ARC
  5
FB
330
1D
  8
Elements
 10
377.923457999999
 20
53.9734109999995
 30
0.0
 40
90.0475130503719
 50
439.622222
 51
442.586824
  0
ARC
  5
FC
330
1D
  8
Elements
 10
390.03088
 20
147.027122
 30
0.0
 40
3.7905809766223
 50
600.957045
 51
622.586824
  0
LINE
  5
FD
330
1D
  8
Elements
 10
388.190669999999
 20
143.713157
 30
0.0
 11
387.280146999999
 21
144.218773
 31
0.0
  0
LINE
  5
FE
330
1D
  8
Elements
 10
387.280146999999
 20
144.218773
 30
0.0
 11
385.631953999999
 21
146.466331
 31
0.0
  0
ARC
  5
FF
330
1D
  8
Elements
 10
379.492306
 20
141.96389
 30
0.0
 40
7.61352978635115
 50
396.253543
 51
411.733385
  0
LINE
  5
100
330
1D
  8
Elements
 10
384.207515999999
 20
147.941673
 30
0.0
 11
383.152706
 21
148.773704
 31
0.0
  0
ARC
  5
101
330
1D
  8
Elements
 10
362.022091
 20
121.986107
 30
0.0
 40
34.118510323021
 50
411.732887
 51
420.811868
  0
ARC
  5
102
330
1D
  8
Elements
 10
368.187251999999
 20
133.021263
 30
0.0
 40
21.4781980512139
 50
420.811868
 51
433.028399
  0
ARC
  5
103
330
1D
  8
Elements
 10
370.711299999999
 20
141.291771
 30
0.0
 40
12.8310920468748
 50
433.028527
 51
441.758585
  0
LINE
  5
104
330
1D
  8
Elements
 10
372.550533
 20
153.990257
 30
0.0
 11
371.376095
 21
154.160423
 31
0.0
  0
ARC
  5
105
330
1D
  8
Elements
 10
369.836299999999
 20
143.530052
 30
0.0
 40
10.7412049499063
 50
441.758082
 51
454.805189
  0
LINE
  5
106
330
1D
  8
Elements
 10
368.93652
 20
154.233421
 30
0.0
 11
368.447018
 21
154.192405
 31
0.0
  0
LINE
  5
107
330
1D
  8
Elements
 10
368.447018
 20
154.192405
 30
0.0
 11
368.447018
 21
163.7322
 31
0.0
  0
LINE
  5
108
330
1D
  8
Elements
 10
368.447018
 20
163.7322
 30
0.0
 11
368.93652
 21
163.690941
 31
0.0
  0
ARC
  5
109
330
1D
  8
Elements
 10
369.836299999999
 20
174.395285999999
 30
0.0
 40
10.7420370954014
 50
265.194811
 51
278.241415
  0
LINE
  5
10A
330
1D
  8
Elements
 10
371.376095
 20
163.764183
 30
0.0
 11
371.7019
 21
163.811302
 31
0.0
  0
ARC
  5
10B
330
1D
  8
Elements
 10
368.251583
 20
187.63015
 30
0.0
 40
24.0674522722287
 50
278.242431
 51
286.971661
  0
ARC
  5
10C
330
1D
  8
Elements
 10
371.676632
 20
176.40432
 30
0.0
 40
12.3307189149108
 50
286.975996
 51
295.998703
  0
ARC
  5
10D
330
1D
  8
Elements
 10
362.623165
 20
194.967552
 30
0.0
 40
32.9840114851539
 50
295.998703
 51
308.266653
  0
LINE
  5
10E
330
1D
  8
Elements
 10
383.050899
 20
169.070579
 30
0.0
 11
384.207638
 21
169.982933
 31
0.0
  0
ARC
  5
10F
330
1D
  8
Elements
 10
379.492794
 20
175.960228
 30
0.0
 40
7.61300500048341
 50
308.266086
 51
323.746457
  0
LINE
  5
110
330
1D
  8
Elements
 10
385.631953999999
 20
171.458275
 30
0.0
 11
387.280146999999
 21
173.705833
 31
0.0
  0
LINE
  5
111
330
1D
  8
Elements
 10
387.280146999999
 20
173.705833
 30
0.0
 11
388.190669999999
 21
174.211448
 31
0.0
  0
ARC
  5
112
330
1D
  8
Elements
 10
390.03088
 20
170.897484
 30
0.0
 40
3.79057992128737
 50
457.413173
 51
479.042955
  0
ARC
  5
113
330
1D
  8
Elements
 10
377.923458
 20
263.951195
 30
0.0
 40
90.0475149381802
 50
277.413173
 51
280.377778
  0
ARC
  5
114
330
1D
  8
Elements
 10
378.986446
 20
196.452904
 30
0.0
 40
25.960907947846
 50
305.723646
 51
311.642231
  0
ARC
  5
115
330
1D
  8
Elements
 10
392.706783
 20
181.022239
 30
0.0
 40
5.3125
 50
311.642176
 51
331.410344
  0
ARC
  5
116
330
1D
  8
Elements
 10
386.942623
 20
184.163597
 30
0.0
 40
11.8771442685886
 50
331.410458
 51
341.799624
  0
ARC
  5
117
330
1D
  8
Elements
 10
436.224361
 20
167.960228
 30
0.0
 40
40.0
 50
521.058447
 51
521.799606
  0
ARC
  5
118
330
1D
  8
Elements
 10
365.88464
 20
192.10012
 30
0.0
 40
34.3667245041517
 50
341.05829
 51
347.446682
  0
ARC
  5
119
330
1D
  8
Elements
 10
391.987057
 20
186.287864
 30
0.0
 40
7.625
 50
347.447116
 51
355.587295
  0
ARC
  5
11A
330
1D
  8
Elements
 10
389.484737
 20
186.48098
 30
0.0
 40
10.1347878471126
 50
355.586974
 51
365.827936
  0
ARC
  5
11B
330
1D
  8
Elements
 10
404.671749
 20
188.031029
 30
0.0
 40
5.13116106348146
 50
538.739657
 51
545.827936
  0
ARC
  5
11C
330
1D
  8
Elements
 10
402.541134
 20
188.077904
 30
0.0
 40
3.0
 50
508.77036
 51
538.740955
  0
ARC
  5
11D
330
1D
  8
Elements
 10
404.636837
 20
186.806907
 30
0.0
 40
5.45108378099071
 50
473.607484
 51
508.76891
  0
LINE
  5
11E
330
1D
  8
Elements
 10
402.453854
 20
191.80178
 30
0.0
 11
402.855831
 21
191.977562
 31
0.0
  0
ARC
  5
11F
330
1D
  8
Elements
 10
404.168697
 20
179.809837
 30
0.0
 40
12.2376556885934
 50
428.729135
 51
456.152999
  0
ARC
  5
120
330
1D
  8
Elements
 10
402.96545
 20
176.718284
 30
0.0
 40
15.5553043254688
 50
423.191656
 51
428.730243
  0
LINE
  5
121
330
1D
  8
Elements
 10
409.980953
 20
190.601585
 30
0.0
 11
409.997921
 21
190.59304
 31
0.0
  0
LINE
  5
122
330
1D
  8
Elements
 10
409.997921
 20
190.59304
 30
0.0
 11
410.239254
 21
190.159691
 31
0.0
  0
ARC
  5
123
330
1D
  8
Elements
 10
401.385616
 20
189.602073
 30
0.0
 40
8.87118015641965
 50
357.314354
 51
363.603826
  0
ARC
  5
124
330
1D
  8
Elements
 10
404.940426
 20
189.435325
 30
0.0
 40
5.3125
 50
335.171527
 51
357.313266
  0
ARC
  5
125
330
1D
  8
Elements
 10
371.429562
 20
204.938988
 30
0.0
 40
42.2358803948282
 50
333.080275
 51
335.172575
  0
ARC
  5
126
330
1D
  8
Elements
 10
417.949581
 20
181.317894
 30
0.0
 40
9.9375
 50
513.079593
 51
528.198265
  0
ARC
  5
127
330
1D
  8
Elements
 10
419.206783
 20
181.055198
 30
0.0
 40
11.2218942386831
 50
528.197725
 51
537.748225
  0
ARC
  5
128
330
1D
  8
Elements
 10
410.446651
 20
181.705833
 30
0.0
 40
2.46207298846247
 50
544.886315
 51
570.551101
  0
LINE
  5
129
330
1D
  8
Elements
 10
408.326412
 20
180.454368
 30
0.0
 11
408.538814
 21
180.326683
 31
0.0
  0
ARC
  5
12A
330
1D
  8
Elements
 10
408.432612999999
 20
181.573753
 30
0.0
 40
1.25158421739269
 50
274.867595
 51
322.808232
  0
ARC
  5
12B
330
1D
  8
Elements
 10
403.258053
 20
184.245872
 30
0.0
 40
7.06010525115043
 50
330.945203
 51
348.801286
  0
ARC
  5
12C
330
1D
  8
Elements
 10
428.37878
 20
179.272484
 30
0.0
 40
18.5482358397878
 50
521.229143
 51
528.801286
  0
LINE
  5
12D
330
1D
  8
Elements
 10
410.817135
 20
185.240989
 30
0.0
 11
410.895015999999
 21
185.470238
 31
0.0
  0
LINE
  5
12E
330
1D
  8
Elements
 10
410.895015999999
 20
185.470238
 30
0.0
 11
411.124264
 21
185.829857
 31
0.0
  0
ARC
  5
12F
330
1D
  8
Elements
 10
415.132442
 20
183.274437
 30
0.0
 40
4.75345891858637
 50
487.93515
 51
507.481424
  0
LINE
  5
130
330
1D
  8
Elements
 10
412.210201
 20
187.02346
 30
0.0
 11
416.091671
 21
190.049095
 31
0.0
  0
ARC
  5
131
330
1D
  8
Elements
 10
434.697017999999
 20
93.4165269999999
 30
0.0
 40
98.4073787518021
 50
458.736139
 51
460.898197
  0
ARC
  5
132
330
1D
  8
Elements
 10
421.61108
 20
178.574241
 30
0.0
 40
12.25
 50
449.743075
 51
458.736178
  0
ARC
  5
133
330
1D
  8
Elements
 10
421.680782
 20
194.115501
 30
0.0
 40
3.29132582337372
 50
269.743032
 51
288.565643
  0
ARC
  5
134
330
1D
  8
Elements
 10
424.508785
 20
185.695823
 30
0.0
 40
5.59061809595343
 50
466.69419
 51
468.565643
  0
ARC
  5
135
330
1D
  8
Elements
 10
423.82629
 20
187.971946
 30
0.0
 40
3.21441921735078
 50
442.728164
 51
466.69419
  0
LINE
  5
136
330
1D
  8
Elements
 10
424.23315
 20
191.160423
 30
0.0
 11
424.086544
 21
190.889427
 31
0.0
  0
ARC
  5
137
330
1D
  8
Elements
 10
415.93774
 20
190.601341
 30
0.0
 40
8.15389449445932
 50
346.445965
 51
362.024743
  0
ARC
  5
138
330
1D
  8
Elements
 10
429.029049
 20
187.445335
 30
0.0
 40
5.3125
 50
526.445276
 51
540.547689
  0
ARC
  5
139
330
1D
  8
Elements
 10
411.047115
 20
187.27346
 30
0.0
 40
12.6703096103747
 50
353.773708
 51
360.547628
  0
ARC
  5
13A
330
1D
  8
Elements
 10
413.76379
 20
186.977073
 30
0.0
 40
9.9375
 50
340.131142
 51
353.773128
  0
ARC
  5
13B
330
1D
  8
Elements
 10
392.571163
 20
194.635765
 30
0.0
 40
32.4715762867944
 50
334.173485
 51
340.130919
  0
ARC
  5
13C
330
1D
  8
Elements
 10
411.949581
 20
185.256859
 30
0.0
 40
10.9427578235264
 50
319.765443
 51
334.173485
  0
LINE
  5
13D
330
1D
  8
Elements
 10
420.303341
 20
178.188743
 30
0.0
 11
419.752682
 21
177.537864
 31
0.0
  0
ARC
  5
13E
330
1D
  8
Elements
 10
406.407222999999
 20
188.828392
 30
0.0
 40
17.4808182282956
 50
308.083659
 51
319.768106
  0
ARC
  5
13F
330
1D
  8
Elements
 10
389.63586
 20
210.230247
 30
0.0
 40
44.6711724238738
 50
303.880198
 51
308.083659
  0
ARC
  5
140
330
1D
  8
Elements
 10
417.984249
 20
168.011741
 30
0.0
 40
6.18185556607252
 50
483.880198
 51
499.25439
  0
LINE
  5
141
330
1D
  8
Elements
 10
413.300777
 20
172.046654
 30
0.0
 11
413.199458999999
 21
171.292015
 31
0.0
  0
ARC
  5
142
330
1D
  8
Elements
 10
418.35693
 20
173.464866
 30
0.0
 40
5.59649783045177
 50
562.845778
 51
580.900595
  0
LINE
  5
143
330
1D
  8
Elements
 10
414.126827
 20
169.80056
 30
0.0
 11
415.789913
 21
170.436058
 31
0.0
  0
ARC
  5
144
330
1D
  8
Elements
 10
412.547726
 20
178.922386
 30
0.0
 40
9.08464692053396
 50
290.908788
 51
305.088681
  0
LINE
  5
145
330
1D
  8
Elements
 10
417.770015999999
 20
171.488792
 30
0.0
 11
420.564938
 21
173.452171
 31
0.0
  0
ARC
  5
146
330
1D
  8
Elements
 10
415.313839
 20
180.927025
 30
0.0
 40
9.13500311888287
 50
305.088113
 51
319.771103
  0
ARC
  5
147
330
1D
  8
Elements
 10
371.266842
 20
218.187767
 30
0.0
 40
66.8280771861598
 50
319.771103
 51
329.283943
  0
ARC
  5
148
330
1D
  8
Elements
 10
418.406612
 20
190.180443
 30
0.0
 40
11.9957830969074
 50
329.283943
 51
342.277496
  0
LINE
  5
149
330
1D
  8
Elements
 10
429.833126
 20
186.528831
 30
0.0
 11
431.584225
 21
192.008323
 31
0.0
  0
ARC
  5
14A
330
1D
  8
Elements
 10
393.48254
 20
204.184592999999
 30
0.0
 40
40.0
 50
342.277502
 51
346.829078
  0
ARC
  5
14B
330
1D
  8
Elements
 10
426.124751999999
 20
196.546409
 30
0.0
 40
6.47598384537588
 50
346.824784
 51
358.951024
  0
ARC
  5
14C
330
1D
  8
Elements
 10
424.043819
 20
196.584495
 30
0.0
 40
8.55728423887748
 50
358.951024
 51
374.702711
  0
ARC
  5
14D
330
1D
  8
Elements
 10
437.148799999999
 20
188.964378
 30
0.0
 40
10.9174880165897
 50
444.58621
 51
476.245315
  0
ARC
  5
14E
330
1D
  8
Elements
 10
437.318722
 20
190.757591
 30
0.0
 40
9.11638636775575
 50
419.997709
 51
444.58621
  0
LINE
  5
14F
330
1D
  8
Elements
 10
441.877193
 20
198.652366
 30
0.0
 11
442.119991
 21
198.51223
 31
0.0
  0
ARC
  5
150
330
1D
  8
Elements
 10
437.319453999999
 20
190.198753
 30
0.0
 40
9.59994201728407
 50
406.199941
 51
419.996381
  0
ARC
  5
151
330
1D
  8
Elements
 10
441.010372
 20
194.048607
 30
0.0
 40
4.26671697522124
 50
386.542813
 51
406.191538
  0
LINE
  5
152
330
1D
  8
Elements
 10
444.827389
 20
195.955345
 30
0.0
 11
445.125729
 21
195.357933
 31
0.0
  0
LINE
  5
153
330
1D
  8
Elements
 10
445.125729
 20
195.357933
 30
0.0
 11
444.586056
 21
195.03762
 31
0.0
  0
ARC
  5
154
330
1D
  8
Elements
 10
447.117183999999
 20
190.772728
 30
0.0
 40
4.95940999896971
 50
480.688278
 51
509.445253
  0
ARC
  5
155
330
1D
  8
Elements
 10
448.555172
 20
189.923851
 30
0.0
 40
6.62929876330972
 50
509.445253
 51
519.348839
  0
ARC
  5
156
330
1D
  8
Elements
 10
404.922115
 20
206.368919
 30
0.0
 40
40.0
 50
339.179669
 51
339.34867
  0
ARC
  5
157
330
1D
  8
Elements
 10
443.423824
 20
191.727806
 30
0.0
 40
1.19163165852447
 50
519.179603
 51
566.633298
  0
ARC
  5
158
330
1D
  8
Elements
 10
442.713009
 20
191.78054
 30
0.0
 40
0.685599224558879
 50
238.877035
 51
306.384352
  0
ARC
  5
159
330
1D
  8
Elements
 10
431.502682
 20
204.493187
 30
0.0
 40
17.6324917558055
 50
311.211569
 51
315.378379
  0
LINE
  5
15A
330
1D
  8
Elements
 10
444.052853
 20
192.107689
 30
0.0
 11
446.392939999999
 21
194.479027
 31
0.0
  0
ARC
  5
15B
330
1D
  8
Elements
 10
454.048824
 20
186.923607
 30
0.0
 40
10.7562201869351
 50
482.340414
 51
495.37846
  0
LINE
  5
15C
330
1D
  8
Elements
 10
448.294796
 20
196.011253
 30
0.0
 11
449.869625
 21
197.008323
 31
0.0
  0
ARC
  5
15D
330
1D
  8
Elements
 10
455.557247
 20
188.025657
 30
0.0
 40
10.6320262139603
 50
467.43759
 51
482.341071
  0
ARC
  5
15E
330
1D
  8
Elements
 10
460.718258
 20
171.594749
 30
0.0
 40
27.8543620506906
 50
463.215864
 51
467.43759
  0
ARC
  5
15F
330
1D
  8
Elements
 10
445.205439999999
 20
237.652122
 30
0.0
 40
40.0
 50
283.215864
 51
288.304235
  0
LINE
  5
160
330
1D
  8
Elements
 10
457.767939999999
 20
199.676048
 30
0.0
 11
458.747555
 21
200.000023
 31
0.0
  0
ARC
  5
161
330
1D
  8
Elements
 10
469.801754
 20
204.675071
 30
0.0
 40
12.0021415552878
 50
562.924504
 51
569.813497
  0
ARC
  5
162
330
1D
  8
Elements
 10
446.743526
 20
191.462425
 30
0.0
 40
14.5733756509917
 50
384.781303
 51
389.813497
  0
ARC
  5
163
330
1D
  8
Elements
 10
457.251217
 20
196.313499
 30
0.0
 40
3.0
 50
362.630722
 51
384.7797
  0
ARC
  5
164
330
1D
  8
Elements
 10
440.69775
 20
195.552269
 30
0.0
 40
19.5709397769381
 50
359.183919
 51
362.632958
  0
ARC
  5
165
330
1D
  8
Elements
 10
450.330196
 20
195.415062
 30
0.0
 40
9.9375
 50
344.185117
 51
359.183555
  0
ARC
  5
166
330
1D
  8
Elements
 10
434.288814
 20
199.959007
 30
0.0
 40
26.610028258328
 50
339.191232
 51
344.184486
  0
ARC
  5
167
330
1D
  8
Elements
 10
456.358761
 20
191.571556
 30
0.0
 40
3.0
 50
315.794579
 51
339.192642
  0
ARC
  5
168
330
1D
  8
Elements
 10
478.497677
 20
170.038597
 30
0.0
 40
27.8836137705108
 50
495.794941
 51
500.954817
  0
ARC
  5
169
330
1D
  8
Elements
 10
454.511958999999
 20
189.493187
 30
0.0
 40
3.0
 50
313.959692
 51
320.953524
  0
ARC
  5
16A
330
1D
  8
Elements
 10
453.634518
 20
190.403099
 30
0.0
 40
4.26401856498687
 50
286.886626
 51
313.959227
  0
ARC
  5
16B
330
1D
  8
Elements
 10
457.09338
 20
179.010765
 30
0.0
 40
7.64200943800376
 50
466.886626
 51
483.569241
  0
LINE
  5
16C
330
1D
  8
Elements
 10
452.867794
 20
185.378196
 30
0.0
 11
452.322018
 21
185.015892
 31
0.0
  0
ARC
  5
16D
330
1D
  8
Elements
 10
453.075802
 20
183.906517
 30
0.0
 40
1.34123207543369
 50
484.194831
 51
540.271147
  0
LINE
  5
16E
330
1D
  8
Elements
 10
451.734492999999
 20
183.900169
 30
0.0
 11
451.881344
 21
183.57595
 31
0.0
  0
ARC
  5
16F
330
1D
  8
Elements
 10
452.966671
 20
186.243187
 30
0.0
 40
2.87959800131984
 50
247.858064
 51
302.238406
  0
ARC
  5
170
330
1D
  8
Elements
 10
470.507442
 20
158.430443
 30
0.0
 40
30.0025030816662
 50
479.289826
 51
482.238406
  0
ARC
  5
171
330
1D
  8
Elements
 10
458.428463
 20
179.96389
 30
0.0
 40
5.3125
 50
454.410721
 51
479.290914
  0
ARC
  5
172
330
1D
  8
Elements
 10
458.523312
 20
178.734154
 30
0.0
 40
6.54599523437174
 50
442.209426
 51
454.410448
  0
LINE
  5
173
330
1D
  8
Elements
 10
459.410640999999
 20
185.219749
 30
0.0
 11
460.203365
 21
184.779075
 31
0.0
  0
ARC
  5
174
330
1D
  8
Elements
 10
456.789303
 20
183.042991
 30
0.0
 40
3.83023155120208
 50
333.452098
 51
386.955119
  0
LINE
  5
175
330
1D
  8
Elements
 10
460.215694
 20
181.331077
 30
0.0
 11
460.049557
 21
180.998314
 31
0.0
  0
ARC
  5
176
330
1D
  8
Elements
 10
443.989254
 20
189.022972
 30
0.0
 40
17.9534172982142
 50
323.348188
 51
333.450918
  0
LINE
  5
177
330
1D
  8
Elements
 10
458.392939999999
 20
178.305687
 30
0.0
 11
458.215572
 21
178.067405
 31
0.0
  0
ARC
  5
178
330
1D
  8
Elements
 10
429.319576
 20
199.569114
 30
0.0
 40
36.0180593166806
 50
316.208295
 51
323.346764
  0
ARC
  5
179
330
1D
  8
Elements
 10
446.655392
 20
182.945823
 30
0.0
 40
11.9999287483858
 50
309.577033
 51
316.221292
  0
LINE
  5
17A
330
1D
  8
Elements
 10
454.300777
 20
173.696556
 30
0.0
 11
451.295895
 21
171.212669
 31
0.0
  0
ARC
  5
17B
330
1D
  8
Elements
 10
436.871212
 20
188.663841
 30
0.0
 40
22.6409323069021
 50
305.034223
 51
309.576404
  0
ARC
  5
17C
330
1D
  8
Elements
 10
445.491328999999
 20
176.368675
 30
0.0
 40
7.625
 50
287.916318
 51
305.034702
  0
ARC
  5
17D
330
1D
  8
Elements
 10
441.288569999999
 20
189.367943
 30
0.0
 40
21.2868119154361
 50
281.037298
 51
287.916402
  0
ARC
  5
17E
330
1D
  8
Elements
 10
445.825313
 20
166.744163
 30
0.0
 40
1.79116745765931
 50
464.928399
 51
517.859236
  0
ARC
  5
17F
330
1D
  8
Elements
 10
446.67712
 20
169.264671
 30
0.0
 40
3.11611267193128
 50
576.315498
 51
607.501685
  0
ARC
  5
180
330
1D
  8
Elements
 10
446.221676
 20
173.372825
 30
0.0
 40
7.02581620909168
 50
263.979166
 51
283.502086
  0
ARC
  5
181
330
1D
  8
Elements
 10
446.723140999999
 20
171.284691
 30
0.0
 40
4.87822387343449
 50
283.502086
 51
310.693357
  0
LINE
  5
182
330
1D
  8
Elements
 10
449.903805
 20
167.58596
 30
0.0
 11
450.165035
 21
167.81057
 31
0.0
  0
ARC
  5
183
330
1D
  8
Elements
 10
424.084835
 20
198.139183
 30
0.0
 40
40.0
 50
310.692982
 51
313.876735
  0
LINE
  5
184
330
1D
  8
Elements
 10
451.8092
 20
169.305931
 30
0.0
 11
456.788692
 21
174.093773
 31
0.0
  0
ARC
  5
185
330
1D
  8
Elements
 10
433.889521999999
 20
197.908958
 30
0.0
 40
33.0384071193805
 50
313.876483
 51
321.329362
  0
LINE
  5
186
330
1D
  8
Elements
 10
459.684322
 20
177.265159
 30
0.0
 11
463.139156
 21
181.582054
 31
0.0
  0
ARC
  5
187
330
1D
  8
Elements
 10
494.369625
 20
156.58889
 30
0.0
 40
40.0
 50
497.908892
 51
501.330282
  0
ARC
  5
188
330
1D
  8
Elements
 10
470.040279
 20
178.565941
 30
0.0
 40
7.21426562480404
 50
489.5609
 51
497.912109
  0
ARC
  5
189
330
1D
  8
Elements
 10
479.963497
 20
166.555198
 30
0.0
 40
22.7939576223497
 50
476.327565
 51
489.56262
  0
ARC
  5
18A
330
1D
  8
Elements
 10
483.333858
 20
159.743919
 30
0.0
 40
30.3934593977499
 50
475.169595
 51
476.327565
  0
ARC
  5
18B
330
1D
  8
Elements
 10
480.356441
 20
166.079612
 30
0.0
 40
23.39309479984
 50
461.505422
 51
475.169595
  0
ARC
  5
18C
330
1D
  8
Elements
 10
476.431881
 20
185.354027
 30
0.0
 40
3.72328736734557
 50
452.450554
 51
461.487087
  0
LINE
  5
18D
330
1D
  8
Elements
 10
476.272701
 20
189.073997
 30
0.0
 11
478.48608
 21
189.168724
 31
0.0
  0
ARC
  5
18E
330
1D
  8
Elements
 10
478.969479
 20
177.862083
 30
0.0
 40
11.3169079423536
 50
434.238061
 51
452.448104
  0
ARC
  5
18F
330
1D
  8
Elements
 10
480.992916
 20
186.042259
 30
0.0
 40
2.90768759047695
 50
389.960885
 51
428.815006
  0
LINE
  5
190
330
1D
  8
Elements
 10
483.512081
 20
187.494407
 30
0.0
 11
483.610226
 21
186.729759
 31
0.0
  0
ARC
  5
191
330
1D
  8
Elements
 10
479.414181
 20
188.242454
 30
0.0
 40
4.46038564418509
 50
311.152688
 51
340.175511
  0
ARC
  5
192
330
1D
  8
Elements
 10
508.672115
 20
154.765648
 30
0.0
 40
40.0
 50
491.152666
 51
491.3514
  0
ARC
  5
193
330
1D
  8
Elements
 10
469.473263
 20
199.304222
 30
0.0
 40
19.331593998581
 50
302.319518
 51
311.351335
  0
ARC
  5
194
330
1D
  8
Elements
 10
483.885372
 20
176.523704
 30
0.0
 40
7.625
 50
482.319237
 51
496.980567
  0
ARC
  5
195
330
1D
  8
Elements
 10
484.482418
 20
175.966575
 30
0.0
 40
8.44166885896013
 50
496.980778
 51
505.172849
  0
ARC
  5
196
330
1D
  8
Elements
 10
479.373653
 20
179.536155
 30
0.0
 40
2.20940710149642
 50
505.498651
 51
561.896638
  0
LINE
  5
197
330
1D
  8
Elements
 10
477.323603999999
 20
178.712181
 30
0.0
 11
477.585567
 21
178.340842999999
 31
0.0
  0
LINE
  5
198
330
1D
  8
Elements
 10
477.585567
 20
178.340842999999
 30
0.0
 11
478.033077
 21
178.362571
 31
0.0
  0
ARC
  5
199
330
1D
  8
Elements
 10
474.534054
 20
184.89431
 30
0.0
 40
7.40991025525418
 50
298.177758
 51
310.825179
  0
ARC
  5
19A
330
1D
  8
Elements
 10
475.90527
 20
183.307152
 30
0.0
 40
5.3125
 50
310.824776
 51
317.655994
  0
ARC
  5
19B
330
1D
  8
Elements
 10
462.52795
 20
195.49807
 30
0.0
 40
23.4113828868237
 50
317.656697
 51
324.442206
  0
ARC
  5
19C
330
1D
  8
Elements
 10
514.115108
 20
158.622825
 30
0.0
 40
40.0
 50
500.346754
 51
504.442206
  0
ARC
  5
19D
330
1D
  8
Elements
 10
490.887447
 20
177.875755
 30
0.0
 40
9.83064894677118
 50
492.744236
 51
500.350645
  0
LINE
  5
19E
330
1D
  8
Elements
 10
484.215083999999
 20
185.095238
 30
0.0
 11
485.418208999999
 21
186.207054
 31
0.0
  0
LINE
  5
19F
330
1D
  8
Elements
 10
485.418208999999
 20
186.207054
 30
0.0
 11
486.588131
 21
186.550316
 31
0.0
  0
ARC
  5
1A0
330
1D
  8
Elements
 10
488.434322
 20
180.258323
 30
0.0
 40
6.55728316087187
 50
446.886497
 51
466.352702
  0
ARC
  5
1A1
330
1D
  8
Elements
 10
487.975948
 20
171.830589
 30
0.0
 40
14.9974740847095
 50
426.766261
 51
446.886497
  0
LINE
  5
1A2
330
1D
  8
Elements
 10
493.892208
 20
185.611839
 30
0.0
 11
494.318722
 21
185.061302
 31
0.0
  0
ARC
  5
1A3
330
1D
  8
Elements
 10
466.392208
 20
178.537132
 30
0.0
 40
28.6784755354067
 50
367.273745
 51
373.149555
  0
ARC
  5
1A4
330
1D
  8
Elements
 10
484.982418
 20
180.909935
 30
0.0
 40
9.9375
 50
352.40331
 51
367.27447
  0
ARC
  5
1A5
330
1D
  8
Elements
 10
465.262447
 20
183.539818
 30
0.0
 40
29.8320255289526
 50
351.396935
 51
352.403777
  0
ARC
  5
1A6
330
1D
  8
Elements
 10
483.687251999999
 20
180.752464
 30
0.0
 40
11.1975519943372
 50
336.914508
 51
351.396935
  0
LINE
  5
1A7
330
1D
  8
Elements
 10
493.988155
 20
176.361839
 30
0.0
 11
493.901485
 21
176.15847
 31
0.0
  0
ARC
  5
1A8
330
1D
  8
Elements
 10
481.121333999999
 20
187.798118
 30
0.0
 40
17.2862281807461
 50
311.229299
 51
317.674
  0
ARC
  5
1A9
330
1D
  8
Elements
 10
484.440548
 20
184.010521
 30
0.0
 40
12.25
 50
296.609479
 51
311.229753
  0
ARC
  5
1AA
330
1D
  8
Elements
 10
495.628902
 20
161.677269
 30
0.0
 40
12.7289937286471
 50
476.609629
 51
496.915806
  0
LINE
  5
1AB
330
1D
  8
Elements
 10
486.332271
 20
170.372092999999
 30
0.0
 11
486.257198
 21
169.599388
 31
0.0
  0
ARC
  5
1AC
330
1D
  8
Elements
 10
491.557491
 20
171.765159
 30
0.0
 40
5.72570272343165
 50
562.22559
 51
577.907767
  0
ARC
  5
1AD
330
1D
  8
Elements
 10
488.039058999999
 20
169.36013
 30
0.0
 40
1.49552664205
 50
228.080225
 51
283.183211
  0
ARC
  5
1AE
330
1D
  8
Elements
 10
486.862789
 20
172.742454
 30
0.0
 40
5.07072113812072
 50
287.411623
 51
316.149822
  0
ARC
  5
1AF
330
1D
  8
Elements
 10
519.365719
 20
141.518577
 30
0.0
 40
40.0
 50
496.113074
 51
496.149926
  0
ARC
  5
1B0
330
1D
  8
Elements
 10
280.5686
 20
371.213157
 30
0.0
 40
291.336168637664
 50
316.113086
 51
317.302085
  0
ARC
  5
1B1
330
1D
  8
Elements
 10
509.58984
 20
159.894066
 30
0.0
 40
20.2831062799927
 50
487.953404
 51
497.302085
  0
LINE
  5
1B2
330
1D
  8
Elements
 10
497.115353
 20
175.887474
 30
0.0
 11
497.209103
 21
175.960472
 31
0.0
  0
LINE
  5
1B3
330
1D
  8
Elements
 10
497.209103
 20
175.960472
 30
0.0
 11
498.774532
 21
176.836693
 31
0.0
  0
ARC
  5
1B4
330
1D
  8
Elements
 10
503.705562
 20
168.025902
 30
0.0
 40
10.0967512629121
 50
466.347876
 51
479.23391
  0
ARC
  5
1B5
330
1D
  8
Elements
 10
486.075802
 20
228.128441
 30
0.0
 40
52.5381629169127
 50
286.347876
 51
288.963205
  0
ARC
  5
1B6
330
1D
  8
Elements
 10
504.874996
 20
173.417503
 30
0.0
 40
5.3125
 50
452.524608
 51
468.96286
  0
ARC
  5
1B7
330
1D
  8
Elements
 10
505.891476
 20
150.358421
 30
0.0
 40
28.39396099715
 50
444.593248
 51
452.524051
  0
ARC
  5
1B8
330
1D
  8
Elements
 10
512.335933999999
 20
218.448021
 30
0.0
 40
40.0
 50
624.593221
 51
626.385142
  0
ARC
  5
1B9
330
1D
  8
Elements
 10
504.408442999999
 20
92.9634019999999
 30
0.0
 40
85.7348491230809
 50
443.194975
 51
446.385143
  0
ARC
  5
1BA
330
1D
  8
Elements
 10
512.345333
 20
174.02346
 30
0.0
 40
4.63771112712028
 50
400.615035
 51
421.373412
  0
ARC
  5
1BB
330
1D
  8
Elements
 10
471.623531
 20
176.892112
 30
0.0
 40
44.2425651771623
 50
354.66461
 51
360.194762
  0
ARC
  5
1BC
330
1D
  8
Elements
 10
512.687374
 20
173.057152
 30
0.0
 40
3.0
 50
338.092095
 51
354.662889
  0
ARC
  5
1BD
330
1D
  8
Elements
 10
510.350703999999
 20
173.996849
 30
0.0
 40
5.51859586663544
 50
320.958113
 51
338.092359
  0
ARC
  5
1BE
330
1D
  8
Elements
 10
545.704342
 20
145.325217999999
 30
0.0
 40
40.0
 50
500.958049
 51
501.612065
  0
ARC
  5
1BF
330
1D
  8
Elements
 10
505.006466
 20
177.567894
 30
0.0
 40
11.9221309900611
 50
309.088583
 51
321.612162
  0
ARC
  5
1C0
330
1D
  8
Elements
 10
508.186031
 20
173.654075
 30
0.0
 40
6.87950057141343
 50
299.66279
 51
309.088583
  0
LINE
  5
1C1
330
1D
  8
Elements
 10
511.590694
 20
167.676048
 30
0.0
 11
511.570674999999
 21
167.535667
 31
0.0
  0
ARC
  5
1C2
330
1D
  8
Elements
 10
512.078976
 20
171.007347
 30
0.0
 40
3.50869342303078
 50
261.670309
 51
292.423312
  0
ARC
  5
1C3
330
1D
  8
Elements
 10
518.972164
 20
154.302513
 30
0.0
 40
14.5625
 50
462.353251
 51
472.423318
  0
ARC
  5
1C4
330
1D
  8
Elements
 10
519.638668
 20
151.2593
 30
0.0
 40
17.6778347635037
 50
461.315209
 51
462.35348
  0
ARC
  5
1C5
330
1D
  8
Elements
 10
517.973385
 20
159.598655
 30
0.0
 40
9.1738406939194
 50
428.193493
 51
461.335949
  0
ARC
  5
1C6
330
1D
  8
Elements
 10
536.240108
 20
205.253685
 30
0.0
 40
40.0
 50
608.193525
 51
608.579396
  0
ARC
  5
1C7
330
1D
  8
Elements
 10
503.642086
 20
122.160910999999
 30
0.0
 40
49.258396319621
 50
428.534021
 51
428.579488
  0
ARC
  5
1C8
330
1D
  8
Elements
 10
507.281001999999
 20
131.415306
 30
0.0
 40
39.3143682284272
 50
422.031171
 51
428.534021
  0
ARC
  5
1C9
330
1D
  8
Elements
 10
516.720333
 20
149.191429
 30
0.0
 40
19.1875
 50
401.295347
 51
422.031249
  0
ARC
  5
1CA
330
1D
  8
Elements
 10
514.835323
 20
147.535667
 30
0.0
 40
21.6964091369628
 50
396.482496
 51
401.295542
  0
ARC
  5
1CB
330
1D
  8
Elements
 10
564.449947
 20
184.207785999999
 30
0.0
 40
40.0
 50
576.482496
 51
576.524911
  0
LINE
  5
1CC
330
1D
  8
Elements
 10
248.2247
 20
31.903051
 30
0.0
 11
258.2247
 21
31.903051
 31
0.0
  0
ARC
  5
1CD
330
1D
  8
Elements
 10
258.2247
 20
30.903051
 30
0.0
 40
1.0
 50
270.0
 51
450.0
  0
LINE
  5
1CE
330
1D
  8
Elements
 10
258.2247
 20
29.903051
 30
0.0
 11
248.2247
 21
29.903051
 31
0.0
  0
ARC
  5
1CF
330
1D
  8
Elements
 10
248.2247
 20
30.903051
 30
0.0
 40
1.0
 50
90.0
 51
270.0
  0
LINE
  5
1D0
330
1D
  8
Elements
 10
258.2247
 20
21.903051
 30
0.0
 11
248.2247
 21
21.903051
 31
0.0
  0
ARC
  5
1D1
330
1D
  8
Elements
 10
248.2247
 20
22.903051
 30
0.0
 40
1.0
 50
90.0
 51
270.0
  0
LINE
  5
1D2
330
1D
  8
Elements
 10
248.2247
 20
23.903051
 30
0.0
 11
258.2247
 21
23.903051
 31
0.0
  0
ARC
  5
1D3
330
1D
  8
Elements
 10
258.2247
 20
22.903051
 30
0.0
 40
1.0
 50
270.0
 51
450.0
  0
ARC
  5
1D4
330
1D
  8
Elements
 10
209.2247
 20
26.903051
 30
0.0
 40
7.5
 50
391.588135
 51
508.411865
  0
ARC
  5
1D5
330
1D
  8
Elements
 10
200.280428
 20
32.403051
 30
0.0
 40
3.0
 50
270.0
 51
328.411865
  0
LINE
  5
1D6
330
1D
  8
Elements
 10
191.7247
 20
29.403051
 30
0.0
 11
200.280428
 21
29.403051
 31
0.0
  0
ARC
  5
1D7
330
1D
  8
Elements
 10
191.7247
 20
26.903051
 30
0.0
 40
2.5
 50
90.0
 51
270.0
  0
LINE
  5
1D8
330
1D
  8
Elements
 10
200.280428
 20
24.403051
 30
0.0
 11
191.7247
 21
24.403051
 31
0.0
  0
ARC
  5
1D9
330
1D
  8
Elements
 10
200.280428
 20
21.403051
 30
0.0
 40
3.0
 50
391.588135
 51
450.0
  0
ARC
  5
1DA
330
1D
  8
Elements
 10
209.2247
 20
26.903051
 30
0.0
 40
7.5
 50
211.588135
 51
328.411865
  0
ARC
  5
1DB
330
1D
  8
Elements
 10
218.168972
 20
21.403051
 30
0.0
 40
3.0
 50
450.0
 51
508.411865
  0
LINE
  5
1DC
330
1D
  8
Elements
 10
226.7247
 20
24.403051
 30
0.0
 11
218.168972
 21
24.403051
 31
0.0
  0
ARC
  5
1DD
330
1D
  8
Elements
 10
226.7247
 20
26.903051
 30
0.0
 40
2.5
 50
270.0
 51
450.0
  0
LINE
  5
1DE
330
1D
  8
Elements
 10
218.168972
 20
29.403051
 30
0.0
 11
226.7247
 21
29.403051
 31
0.0
  0
ARC
  5
1DF
330
1D
  8
Elements
 10
218.168972
 20
32.403051
 30
0.0
 40
3.0
 50
211.588135
 51
270.0
  0
CIRCLE
  5
1E0
330
1D
  8
Elements
 10
164.2247
 20
26.903051
 30
0.0
 40
3.5
  0
ARC
  5
1E1
330
1D
  8
Elements
 10
165.467341
 20
39.903052
 30
0.0
 40
3.0
 50
225.0
 51
270.0
  0
LINE
  5
1E2
330
1D
  8
Elements
 10
165.467341
 20
36.903052
 30
0.0
 11
182.982059
 21
36.903052
 31
0.0
  0
ARC
  5
1E3
330
1D
  8
Elements
 10
182.982059
 20
39.903052
 30
0.0
 40
3.0
 50
270.0
 51
315.0
  0
LINE
  5
1E4
330
1D
  8
Elements
 10
185.103379
 20
37.781731
 30
0.0
 11
188.346021
 21
41.024372
 31
0.0
  0
ARC
  5
1E5
330
1D
  8
Elements
 10
190.467341
 20
38.903052
 30
0.0
 40
3.0
 50
450.0
 51
495.0
  0
LINE
  5
1E6
330
1D
  8
Elements
 10
190.467341
 20
41.903052
 30
0.0
 11
227.982059
 21
41.903052
 31
0.0
  0
ARC
  5
1E7
330
1D
  8
Elements
 10
227.982059
 20
38.903052
 30
0.0
 40
3.0
 50
405.0
 51
450.0
  0
LINE
  5
1E8
330
1D
  8
Elements
 10
230.103379
 20
41.024372
 30
0.0
 11
233.346021
 21
37.781731
 31
0.0
  0
ARC
  5
1E9
330
1D
  8
Elements
 10
235.467341
 20
39.903052
 30
0.0
 40
3.0
 50
225.0
 51
270.0
  0
LINE
  5
1EA
330
1D
  8
Elements
 10
235.467341
 20
36.903052
 30
0.0
 11
252.982059
 21
36.903052
 31
0.0
  0
ARC
  5
1EB
330
1D
  8
Elements
 10
252.982059
 20
39.903052
 30
0.0
 40
3.0
 50
270.0
 51
315.0
  0
LINE
  5
1EC
330
1D
  8
Elements
 10
255.103381
 20
37.781731
 30
0.0
 11
258.346019
 21
41.024372
 31
0.0
  0
ARC
  5
1ED
330
1D
  8
Elements
 10
260.467341
 20
38.903052
 30
0.0
 40
3.0
 50
450.0
 51
495.0
  0
LINE
  5
1EE
330
1D
  8
Elements
 10
260.467341
 20
41.903052
 30
0.0
 11
267.7247
 21
41.903052
 31
0.0
  0
ARC
  5
1EF
330
1D
  8
Elements
 10
267.7247
 20
40.403052
 30
0.0
 40
1.5
 50
360.0
 51
450.0
  0
LINE
  5
1F0
330
1D
  8
Elements
 10
269.2247
 20
40.403052
 30
0.0
 11
269.2247
 21
13.403052
 31
0.0
  0
ARC
  5
1F1
330
1D
  8
Elements
 10
267.7247
 20
13.403052
 30
0.0
 40
1.5
 50
270.0
 51
360.0
  0
LINE
  5
1F2
330
1D
  8
Elements
 10
267.7247
 20
11.903052
 30
0.0
 11
260.467341
 21
11.903052
 31
0.0
  0
ARC
  5
1F3
330
1D
  8
Elements
 10
260.467341
 20
14.903052
 30
0.0
 40
3.0
 50
225.0
 51
270.0
  0
LINE
  5
1F4
330
1D
  8
Elements
 10
258.346019
 20
12.781731
 30
0.0
 11
255.103381
 21
16.024372
 31
0.0
  0
ARC
  5
1F5
330
1D
  8
Elements
 10
252.982059
 20
13.903052
 30
0.0
 40
3.0
 50
405.0
 51
450.0
  0
LINE
  5
1F6
330
1D
  8
Elements
 10
252.982059
 20
16.903052
 30
0.0
 11
235.467341
 21
16.903052
 31
0.0
  0
ARC
  5
1F7
330
1D
  8
Elements
 10
235.467341
 20
13.903052
 30
0.0
 40
3.0
 50
450.0
 51
495.0
  0
LINE
  5
1F8
330
1D
  8
Elements
 10
233.346021
 20
16.024372
 30
0.0
 11
230.103379
 21
12.781731
 31
0.0
  0
ARC
  5
1F9
330
1D
  8
Elements
 10
227.982059
 20
14.903052
 30
0.0
 40
3.0
 50
270.0
 51
315.0
  0
LINE
  5
1FA
330
1D
  8
Elements
 10
227.982059
 20
11.903052
 30
0.0
 11
190.467341
 21
11.903052
 31
0.0
  0
ARC
  5
1FB
330
1D
  8
Elements
 10
190.467341
 20
14.903052
 30
0.0
 40
3.0
 50
225.0
 51
270.0
  0
LINE
  5
1FC
330
1D
  8
Elements
 10
188.346021
 20
12.781731
 30
0.0
 11
185.103379
 21
16.024372
 31
0.0
  0
ARC
  5
1FD
330
1D
  8
Elements
 10
182.982059
 20
13.903052
 30
0.0
 40
3.0
 50
405.0
 51
450.0
  0
LINE
  5
1FE
330
1D
  8
Elements
 10
182.982059
 20
16.903052
 30
0.0
 11
165.467341
 21
16.903052
 31
0.0
  0
ARC
  5
1FF
330
1D
  8
Elements
 10
165.467341
 20
13.903052
 30
0.0
 40
3.0
 50
450.0
 51
495.0
  0
LINE
  5
200
330
1D
  8
Elements
 10
163.346019
 20
16.024372
 30
0.0
 11
160.103381
 21
12.781731
 31
0.0
  0
ARC
  5
201
330
1D
  8
Elements
 10
157.982059
 20
14.903052
 30
0.0
 40
3.0
 50
270.0
 51
315.0
  0
LINE
  5
202
330
1D
  8
Elements
 10
157.982059
 20
11.903052
 30
0.0
 11
150.7247
 21
11.903052
 31
0.0
  0
ARC
  5
203
330
1D
  8
Elements
 10
150.7247
 20
13.403052
 30
0.0
 40
1.5
 50
180.0
 51
270.0
  0
LINE
  5
204
330
1D
  8
Elements
 10
149.2247
 20
13.403052
 30
0.0
 11
149.2247
 21
40.403052
 31
0.0
  0
ARC
  5
205
330
1D
  8
Elements
 10
150.7247
 20
40.403052
 30
0.0
 40
1.5
 50
90.0
 51
180.0
  0
LINE
  5
206
330
1D
  8
Elements
 10
150.7247
 20
41.903052
 30
0.0
 11
157.982059
 21
41.903052
 31
0.0
  0
ARC
  5
207
330
1D
  8
Elements
 10
157.982059
 20
38.903052
 30
0.0
 40
3.0
 50
405.0
 51
450.0
  0
LINE
  5
208
330
1D
  8
Elements
 10
160.103381
 20
41.024372
 30
0.0
 11
163.346019
 21
37.781731
 31
0.0
  0
ARC
  5
209
330
1D
  8
Elements
 10
172.11224
 20
128.865432
 30
0.0
 40
13.5000015258793
 50
323.130115
 51
576.869904
  0
ARC
  5
20A
330
1D
  8
Elements
 10
162.112248
 20
121.36544
 30
0.0
 40
1.00000610352028
 50
576.870072
 51
629.999563
  0
LINE
  5
20B
330
1D
  8
Elements
 10
182.11224
 20
120.365432
 30
0.0
 11
162.11224
 21
120.365432
 31
0.0
  0
ARC
  5
20C
330
1D
  8
Elements
 10
182.11224
 20
121.36544
 30
0.0
 40
1.00000762939453
 50
270.0
 51
323.129928
  0
ARC
  5
20D
330
1D
  8
Elements
 10
172.11224
 20
128.865432
 30
0.0
 40
19.5000044020583
 50
317.166571
 51
582.833444
  0
ARC
  5
20E
330
1D
  8
Elements
 10
153.41222
 20
111.528754
 30
0.0
 40
6.00002288818844
 50
360.000073
 51
402.833326
  0
LINE
  5
20F
330
1D
  8
Elements
 10
159.412243
 20
64.365432
 30
0.0
 11
159.412243
 21
111.528762
 31
0.0
  0
ARC
  5
210
330
1D
  8
Elements
 10
165.412228
 20
64.365417
 30
0.0
 40
5.99998474123034
 50
179.999854
 51
270.000146
  0
LINE
  5
211
330
1D
  8
Elements
 10
178.812237
 20
58.365432
 30
0.0
 11
165.412243
 21
58.365432
 31
0.0
  0
ARC
  5
212
330
1D
  8
Elements
 10
178.812252
 20
64.365417
 30
0.0
 40
5.99998474123034
 50
269.999854
 51
360.000146
  0
LINE
  5
213
330
1D
  8
Elements
 10
184.812237
 20
111.528762
 30
0.0
 11
184.812237
 21
64.365432
 31
0.0
  0
ARC
  5
214
330
1D
  8
Elements
 10
190.812222
 20
111.528762
 30
0.0
 40
5.9999846012066
 50
497.16643
 51
540.0
  0
CIRCLE
  5
215
330
1D
  8
Elements
 10
216.17184
 20
102.514323
 30
0.0
 40
10.0
  0
LINE
  5
216
330
1D
  8
Elements
 10
241.216332
 20
125.511401
 30
0.0
 11
241.216332
 21
75.511403
 31
0.0
  0
LINE
  5
217
330
1D
  8
Elements
 10
241.216332
 20
75.511403
 30
0.0
 11
191.216334
 21
75.511403
 31
0.0
  0
LINE
  5
218
330
1D
  8
Elements
 10
191.216334
 20
75.511403
 30
0.0
 11
191.216334
 21
125.511401
 31
0.0
  0
LINE
  5
219
330
1D
  8
Elements
 10
191.216334
 20
125.511401
 30
0.0
 11
241.216332
 21
125.511401
 31
0.0
  0
ARC
  5
21A
330
1D
  8
Elements
 62
     5
 10
333.1193
 20
178.3648
 30
0.0
 40
2.5
 50
180.0
 51
360.0
  0
ARC
  5
21B
330
1D
  8
Elements
 62
     5
 10
338.1193
 20
178.3648
 30
0.0
 40
2.5
 50
360.0
 51
540.0
  0
ARC
  5
21C
330
1D
  8
Elements
 62
     5
 10
343.1193
 20
178.3648
 30
0.0
 40
2.5
 50
180.0
 51
360.0
  0
ARC
  5
21D
330
1D
  8
Elements
 62
     5
 10
348.1193
 20
178.3648
 30
0.0
 40
2.5
 50
360.0
 51
540.0
  0
ARC
  5
21E
330
1D
  8
Elements
 62
     5
 10
353.1193
 20
178.3648
 30
0.0
 40
2.5
 50
180.0
 51
360.0
  0
ARC
  5
21F
330
1D
  8
Elements
 62
     5
 10
358.1193
 20
178.3648
 30
0.0
 40
2.5
 50
360.0
 51
540.0
  0
ARC
  5
220
330
1D
  8
Elements
 62
     5
 10
363.1193
 20
178.3648
 30
0.0
 40
2.5
 50
180.0
 51
360.0
  0
ARC
  5
221
330
1D
  8
Elements
 62
     5
 10
368.1193
 20
178.3648
 30
0.0
 40
2.5
 50
360.0
 51
540.0
  0
ARC
  5
222
330
1D
  8
Elements
 62
     5
 10
373.1193
 20
178.3648
 30
0.0
 40
2.5
 50
180.0
 51
360.0
  0
ARC
  5
223
330
1D
  8
Elements
 62
     5
 10
378.1193
 20
178.3648
 30
0.0
 40
2.5
 50
360.0
 51
540.0
  0
ARC
  5
224
330
1D
  8
Elements
 62
     5
 10
383.1193
 20
178.3648
 30
0.0
 40
2.5
 50
180.0
 51
360.0
  0
ARC
  5
225
330
1D
  8
Elements
 62
     5
 10
388.1193
 20
178.3648
 30
0.0
 40
2.5
 50
360.0
 51
540.0
  0
ARC
  5
226
330
1D
  8
Elements
 62
     5
 10
393.1193
 20
178.3648
 30
0.0
 40
2.5
 50
180.0
 51
360.0
  0
LINE
  5
227
330
1D
  8
Elements
 62
     5
 10
395.6193
 20
198.3648
 30
0.0
 11
395.6193
 21
178.3648
 31
0.0
  0
LINE
  5
228
330
1D
  8
Elements
 62
     5
 10
290.6193
 20
198.3648
 30
0.0
 11
395.6193
 21
198.3648
 31
0.0
  0
LINE
  5
229
330
1D
  8
Elements
 62
     5
 10
290.6193
 20
178.3648
 30
0.0
 11
290.6193
 21
198.3648
 31
0.0
  0
ARC
  5
22A
330
1D
  8
Elements
 62
     5
 10
293.1193
 20
178.3648
 30
0.0
 40
2.5
 50
180.0
 51
360.0
  0
ARC
  5
22B
330
1D
  8
Elements
 62
     5
 10
298.1193
 20
178.3648
 30
0.0
 40
2.5
 50
360.0
 51
540.0
  0
ARC
  5
22C
330
1D
  8
Elements
 62
     5
 10
303.1193
 20
178.3648
 30
0.0
 40
2.5
 50
180.0
 51
360.0
  0
ARC
  5
22D
330
1D
  8
Elements
 62
     5
 10
308.1193
 20
178.3648
 30
0.0
 40
2.5
 50
360.0
 51
540.0
  0
ARC
  5
22E
330
1D
  8
Elements
 62
     5
 10
313.1193
 20
178.3648
 30
0.0
 40
2.5
 50
180.0
 51
360.0
  0
ARC
  5
22F
330
1D
  8
Elements
 62
     5
 10
318.1193
 20
178.3648
 30
0.0
 40
2.5
 50
360.0
 51
540.0
  0
ARC
  5
230
330
1D
  8
Elements
 62
     5
 10
323.1193
 20
178.3648
 30
0.0
 40
2.5
 50
180.0
 51
360.0
  0
ARC
  5
231
330
1D
  8
Elements
 62
     5
 10
328.1193
 20
178.3648
 30
0.0
 40
2.5
 50
360.0
 51
540.0
  0
LINE
  5
232
330
1D
  8
Elements
 10
20.000003
 20
173.526493
 30
0.0
 11
20.000003
 21
173.026493
 31
0.0
  0
ARC
  5
233
330
1D
  8
Elements
 10
-43.054906
 20
165.526493
 30
0.0
 40
63.4993839207445
 50
-6.783118
 51
6.783118
  0
LINE
  5
234
330
1D
  8
Elements
 10
20.000003
 20
158.026493
 30
0.0
 11
20.000003
 21
157.526493
 31
0.0
  0
ARC
  5
235
330
1D
  8
Elements
 10
19.904368
 20
156.531117
 30
0.0
 40
0.999963930739589
 50
17.804293
 51
84.511943
  0
ARC
  5
236
330
1D
  8
Elements
 10
19.904338
 20
156.531086
 30
0.0
 40
1.00000147489373
 50
-62.153202
 51
17.805423
  0
LINE
  5
237
330
1D
  8
Elements
 10
20.371447
 20
155.646885
 30
0.0
 11
8.667766
 21
149.464085
 31
0.0
  0
ARC
  5
238
330
1D
  8
Elements
 10
7.50001
 20
151.674595
 30
0.0
 40
2.50000762939453
 50
180.0
 51
297.84633
  0
LINE
  5
239
330
1D
  8
Elements
 10
5.000003
 20
151.674595
 30
0.0
 11
5.000003
 21
179.378392
 31
0.0
  0
ARC
  5
23A
330
1D
  8
Elements
 10
7.50001
 20
179.378392
 30
0.0
 40
2.50000152382953
 50
62.15367
 51
180.0
  0
LINE
  5
23B
330
1D
  8
Elements
 10
8.667766
 20
181.588902
 30
0.0
 11
20.371447
 21
175.406117
 31
0.0
  0
ARC
  5
23C
330
1D
  8
Elements
 10
19.904338
 20
174.521916
 30
0.0
 40
1.00000231817562
 50
-17.805423
 51
62.153202
  0
ARC
  5
23D
330
1D
  8
Elements
 10
19.904368
 20
174.521885
 30
0.0
 40
0.999960249110984
 50
275.488057
 51
342.195707
  0
LINE
  5
23E
330
1D
  8
Elements
 10
11.003283
 20
186.009907
 30
0.0
 11
28.565043
 21
176.732441
 31
0.0
  0
ARC
  5
23F
330
1D
  8
Elements
 10
37.463366
 20
193.576435
 30
0.0
 40
19.0499420438279
 50
242.153461
 51
270.000023
  0
LINE
  5
240
330
1D
  8
Elements
 10
37.463374
 20
174.526493
 30
0.0
 11
77.500003
 21
174.526493
 31
0.0
  0
ARC
  5
241
330
1D
  8
Elements
 10
77.500018
 20
168.526509
 30
0.0
 40
5.99998474123034
 50
-0.000145999999972
 51
90.000146
  0
LINE
  5
242
330
1D
  8
Elements
 10
83.500003
 20
168.526493
 30
0.0
 11
83.500003
 21
162.526493
 31
0.0
  0
ARC
  5
243
330
1D
  8
Elements
 10
77.500018
 20
162.526478
 30
0.0
 40
5.99998474123034
 50
-90.000146
 51
0.000146
  0
LINE
  5
244
330
1D
  8
Elements
 10
77.500003
 20
156.526493
 30
0.0
 11
37.463374
 21
156.526493
 31
0.0
  0
ARC
  5
245
330
1D
  8
Elements
 10
37.463366
 20
137.476536
 30
0.0
 40
19.0499572753922
 50
89.999977
 51
117.846517
  0
LINE
  5
246
330
1D
  8
Elements
 10
28.565043
 20
154.320545
 30
0.0
 11
11.003283
 21
145.04308
 31
0.0
  0
ARC
  5
247
330
1D
  8
Elements
 10
7.500003
 20
151.674595
 30
0.0
 40
7.5
 50
180.0
 51
297.846487
  0
LINE
  5
248
330
1D
  8
Elements
 10
0.000003
 20
151.674595
 30
0.0
 11
0.000003
 21
179.378392
 31
0.0
  0
ARC
  5
249
330
1D
  8
Elements
 10
7.500003
 20
179.378392
 30
0.0
 40
7.49999820704861
 50
62.153513
 51
180.0
  0
CIRCLE
  5
24A
330
1D
  8
Elements
 10
305.768695
 20
60.30772
 30
0.0
 40
2.25
  0
LINE
  5
24B
330
1D
  8
Elements
 10
289.811424
 20
54.80828
 30
0.0
 11
289.811424
 21
49.65772
 31
0.0
  0
LINE
  5
24C
330
1D
  8
Elements
 10
289.811424
 20
49.65772
 30
0.0
 11
289.311424
 21
49.65772
 31
0.0
  0
LINE
  5
24D
330
1D
  8
Elements
 10
289.311424
 20
49.65772
 30
0.0
 11
284.83601
 21
50.933049
 31
0.0
  0
LINE
  5
24E
330
1D
  8
Elements
 10
284.83601
 20
50.933049
 30
0.0
 11
285.090009
 21
51.988433
 31
0.0
  0
ARC
  5
24F
330
1D
  8
Elements
 10
284.061424
 20
54.806592
 30
0.0
 40
3.0
 50
-69.948692
 51
239.165413
  0
LINE
  5
250
330
1D
  8
Elements
 10
282.52374
 20
52.230639
 30
0.0
 11
282.369856
 21
51.614778
 31
0.0
  0
LINE
  5
251
330
1D
  8
Elements
 10
282.369856
 20
51.614778
 30
0.0
 11
280.525739
 21
52.134694
 31
0.0
  0
ARC
  5
252
330
1D
  8
Elements
 10
281.615379
 20
56.211591
 30
0.0
 40
4.21999979019165
 50
97.542908
 51
255.036194
  0
LINE
  5
253
330
1D
  8
Elements
 10
281.061424
 20
60.395075
 30
0.0
 11
281.061424
 21
65.36095
 31
0.0
  0
ARC
  5
254
330
1D
  8
Elements
 10
281.991424
 20
57.616591
 30
0.0
 40
7.80000019073486
 50
96.847717
 51
255.003204
  0
LINE
  5
255
330
1D
  8
Elements
 10
279.973056
 20
50.082257
 30
0.0
 11
282.811424
 21
49.307719
 31
0.0
  0
LINE
  5
256
330
1D
  8
Elements
 10
282.811424
 20
49.307719
 30
0.0
 11
282.811424
 21
49.15772
 31
0.0
  0
LINE
  5
257
330
1D
  8
Elements
 10
282.811424
 20
49.15772
 30
0.0
 11
281.991424
 21
48.307719
 31
0.0
  0
LINE
  5
258
330
1D
  8
Elements
 10
281.991424
 20
48.307719
 30
0.0
 11
282.811424
 21
47.457721
 31
0.0
  0
LINE
  5
259
330
1D
  8
Elements
 10
282.811424
 20
47.457721
 30
0.0
 11
282.811424
 21
47.307719
 31
0.0
  0
LINE
  5
25A
330
1D
  8
Elements
 10
282.811424
 20
47.307719
 30
0.0
 11
279.971443
 21
46.530492
 31
0.0
  0
ARC
  5
25B
330
1D
  8
Elements
 10
281.991424
 20
38.996593
 30
0.0
 40
7.80000019073486
 50
105.009064
 51
263.152283
  0
LINE
  5
25C
330
1D
  8
Elements
 10
281.061424
 20
31.252231
 30
0.0
 11
281.061424
 21
36.217978
 31
0.0
  0
ARC
  5
25D
330
1D
  8
Elements
 10
281.614414
 20
40.401591
 30
0.0
 40
4.21999979019165
 50
105.061798
 51
262.470276
  0
LINE
  5
25E
330
1D
  8
Elements
 10
280.517803
 20
44.476619
 30
0.0
 11
282.405105
 21
45.010013
 31
0.0
  0
LINE
  5
25F
330
1D
  8
Elements
 10
282.405105
 20
45.010013
 30
0.0
 11
282.566272
 21
44.40746
 31
0.0
  0
ARC
  5
260
330
1D
  8
Elements
 10
284.061424
 20
41.80659
 30
0.0
 40
3.0
 50
119.893158
 51
429.618408
  0
LINE
  5
261
330
1D
  8
Elements
 10
285.106237
 20
44.618773
 30
0.0
 11
284.810592
 21
45.687819
 31
0.0
  0
LINE
  5
262
330
1D
  8
Elements
 10
284.810592
 20
45.687819
 30
0.0
 11
289.311424
 21
46.957721
 31
0.0
  0
LINE
  5
263
330
1D
  8
Elements
 10
289.311424
 20
46.957721
 30
0.0
 11
289.811424
 21
46.957721
 31
0.0
  0
LINE
  5
264
330
1D
  8
Elements
 10
289.811424
 20
46.957721
 30
0.0
 11
289.811424
 21
41.80659
 31
0.0
  0
ARC
  5
265
330
1D
  8
Elements
 10
284.061424
 20
41.80659
 30
0.0
 40
5.75
 50
301.44899
 51
359.989517
  0
LINE
  5
266
330
1D
  8
Elements
 10
287.061426
 20
31.196593
 30
0.0
 11
287.061426
 21
36.901237
 31
0.0
  0
ARC
  5
267
330
1D
  8
Elements
 10
287.236787
 20
38.999259
 30
0.0
 40
7.80463933944702
 50
268.712509
 51
346.055588
  0
LINE
  5
268
330
1D
  8
Elements
 10
294.811424
 20
42.584735
 30
0.0
 11
294.811424
 21
37.118495
 31
0.0
  0
ARC
  5
269
330
1D
  8
Elements
 10
295.811425
 20
46.457721
 30
0.0
 40
4.0
 50
179.996582
 51
255.522491
  0
LINE
  5
26A
330
1D
  8
Elements
 10
291.811424
 20
47.457721
 30
0.0
 11
291.811424
 21
46.457959
 31
0.0
  0
LINE
  5
26B
330
1D
  8
Elements
 10
293.806957
 20
47.457719
 30
0.0
 11
291.811424
 21
47.457719
 31
0.0
  0
LINE
  5
26C
330
1D
  8
Elements
 10
293.806957
 20
46.082719
 30
0.0
 11
293.806957
 21
47.457719
 31
0.0
  0
LINE
  5
26D
330
1D
  8
Elements
 10
295.129388
 20
46.991891
 30
0.0
 11
293.806957
 21
46.082719
 31
0.0
  0
ARC
  5
26E
330
1D
  8
Elements
 10
292.811424
 20
41.457721
 30
0.0
 40
6.0
 50
399.916214
 51
427.273834
  0
LINE
  5
26F
330
1D
  8
Elements
 10
310.811425
 20
45.307719
 30
0.0
 11
297.413326
 21
45.307719
 31
0.0
  0
ARC
  5
270
330
1D
  8
Elements
 10
310.811425
 20
46.307719
 30
0.0
 40
1.0
 50
270.0
 51
360.0
  0
LINE
  5
271
330
1D
  8
Elements
 10
311.811425
 20
48.307719
 30
0.0
 11
311.811425
 21
46.307719
 31
0.0
  0
LINE
  5
272
330
1D
  8
Elements
 10
311.811422
 20
50.307672
 30
0.0
 11
311.811224
 21
48.307719
 31
0.0
  0
ARC
  5
273
330
1D
  8
Elements
 10
310.811422
 20
50.307719
 30
0.0
 40
1.0
 50
359.997177
 51
450.0
  0
LINE
  5
274
330
1D
  8
Elements
 10
297.413326
 20
51.307719
 30
0.0
 11
310.811422
 21
51.307719
 31
0.0
  0
ARC
  5
275
330
1D
  8
Elements
 10
292.811424
 20
55.15772
 30
0.0
 40
6.0
 50
270.0
 51
320.083786
  0
LINE
  5
276
330
1D
  8
Elements
 10
291.811424
 20
49.15772
 30
0.0
 11
292.811424
 21
49.15772
 31
0.0
  0
LINE
  5
277
330
1D
  8
Elements
 10
291.811456
 20
50.164767
 30
0.0
 11
291.811424
 21
49.15772
 31
0.0
  0
ARC
  5
278
330
1D
  8
Elements
 10
295.811425
 20
50.18077
 30
0.0
 40
4.0
 50
104.43103
 51
180.229218
  0
LINE
  5
279
330
1D
  8
Elements
 10
294.810745
 20
59.497427
 30
0.0
 11
294.814567
 21
54.054564
 31
0.0
  0
ARC
  5
27A
330
1D
  8
Elements
 10
287.237314
 20
57.614261
 30
0.0
 40
7.80404806137085
 50
373.963654
 51
451.202362
  0
LINE
  5
27B
330
1D
  8
Elements
 10
287.073568
 20
59.704497
 30
0.0
 11
287.073558
 21
65.416591
 31
0.0
  0
ARC
  5
27C
330
1D
  8
Elements
 10
284.061424
 20
54.806592
 30
0.0
 40
5.75
 50
359.991287
 51
418.409058
  0
CIRCLE
  5
27D
330
1D
  8
Elements
 10
272.811426
 20
48.307719
 30
0.0
 40
2.25
  0
CIRCLE
  5
27E
330
1D
  8
Elements
 10
305.768694
 20
36.307719
 30
0.0
 40
2.25
  0
CIRCLE
  5
27F
330
1D
  8
Elements
 10
291.815303
 20
48.307719
 30
0.0
 40
24.0
  0
LINE
  5
280
330
1D
  8
Elements
 10
331.128107
 20
175.53659
 30
0.0
 11
336.325901
 21
176.0829
 31
0.0
  0
LINE
  5
281
330
1D
  8
Elements
 10
336.325901
 20
176.0829
 30
0.0
 11
336.325901
 21
171.0829
 31
0.0
  0
LINE
  5
282
330
1D
  8
Elements
 10
336.3259
 20
171.0829
 30
0.0
 11
340.484134
 21
170.645852
 31
0.0
  0
LINE
  5
283
330
1D
  8
Elements
 10
340.484134
 20
170.645852
 30
0.0
 11
341.523692
 21
175.53659
 31
0.0
  0
LINE
  5
284
330
1D
  8
Elements
 10
341.523692
 20
175.53659
 30
0.0
 11
346.494317
 21
173.921536
 31
0.0
  0
LINE
  5
285
330
1D
  8
Elements
 10
346.494317
 20
173.921536
 30
0.0
 11
344.460633
 21
169.353808
 31
0.0
  0
LINE
  5
286
330
1D
  8
Elements
 10
344.460632
 20
169.35381
 30
0.0
 11
348.081605
 21
167.26324
 31
0.0
  0
LINE
  5
287
330
1D
  8
Elements
 10
348.081605
 20
167.26324
 30
0.0
 11
351.020532
 21
171.308326
 31
0.0
  0
LINE
  5
288
330
1D
  8
Elements
 10
351.020532
 20
171.308326
 30
0.0
 11
354.904521
 21
167.811166
 31
0.0
  0
LINE
  5
289
330
1D
  8
Elements
 10
354.904521
 20
167.811166
 30
0.0
 11
351.188797
 21
164.465512
 31
0.0
  0
LINE
  5
28A
330
1D
  8
Elements
 10
351.188796
 20
164.465512
 30
0.0
 11
353.646407
 21
161.0829
 31
0.0
  0
LINE
  5
28B
330
1D
  8
Elements
 10
353.646407
 20
161.0829
 30
0.0
 11
357.976535
 21
163.5829
 31
0.0
  0
LINE
  5
28C
330
1D
  8
Elements
 10
357.976535
 20
163.5829
 30
0.0
 11
360.102313
 21
158.808324
 31
0.0
  0
LINE
  5
28D
330
1D
  8
Elements
 10
360.102313
 20
158.808324
 30
0.0
 11
355.34703
 21
157.263239
 31
0.0
  0
LINE
  5
28E
330
1D
  8
Elements
 10
355.34703
 20
157.26324
 30
0.0
 11
356.216338
 21
153.17347
 31
0.0
  0
LINE
  5
28F
330
1D
  8
Elements
 10
356.216338
 20
153.17347
 30
0.0
 11
361.188947
 21
153.696112
 31
0.0
  0
LINE
  5
290
330
1D
  8
Elements
 10
361.188947
 20
153.696112
 30
0.0
 11
361.188947
 21
148.469688
 31
0.0
  0
LINE
  5
291
330
1D
  8
Elements
 10
361.188947
 20
148.469688
 30
0.0
 11
356.216338
 21
148.99233
 31
0.0
  0
LINE
  5
292
330
1D
  8
Elements
 10
356.216338
 20
148.992331
 30
0.0
 11
355.34703
 21
144.902561
 31
0.0
  0
LINE
  5
293
330
1D
  8
Elements
 10
355.34703
 20
144.902561
 30
0.0
 11
360.102313
 21
143.357476
 31
0.0
  0
LINE
  5
294
330
1D
  8
Elements
 10
360.102313
 20
143.357476
 30
0.0
 11
357.976535
 21
138.5829
 31
0.0
  0
LINE
  5
295
330
1D
  8
Elements
 10
357.976535
 20
138.5829
 30
0.0
 11
353.646407
 21
141.0829
 31
0.0
  0
LINE
  5
296
330
1D
  8
Elements
 10
353.646407
 20
141.082901
 30
0.0
 11
351.188796
 21
137.700289
 31
0.0
  0
LINE
  5
297
330
1D
  8
Elements
 10
351.188796
 20
137.700289
 30
0.0
 11
354.904521
 21
134.354636
 31
0.0
  0
LINE
  5
298
330
1D
  8
Elements
 10
354.904521
 20
134.354636
 30
0.0
 11
351.020531
 21
130.857474
 31
0.0
  0
LINE
  5
299
330
1D
  8
Elements
 10
351.020531
 20
130.857474
 30
0.0
 11
348.081604
 21
134.90256
 31
0.0
  0
LINE
  5
29A
330
1D
  8
Elements
 10
348.081605
 20
134.90256
 30
0.0
 11
344.460632
 21
132.811992
 31
0.0
  0
LINE
  5
29B
330
1D
  8
Elements
 10
344.460632
 20
132.811992
 30
0.0
 11
346.494316
 21
128.244264
 31
0.0
  0
LINE
  5
29C
330
1D
  8
Elements
 10
346.494316
 20
128.244264
 30
0.0
 11
341.523691
 21
126.62921
 31
0.0
  0
LINE
  5
29D
330
1D
  8
Elements
 10
341.523691
 20
126.62921
 30
0.0
 11
340.484133
 21
131.519948
 31
0.0
  0
LINE
  5
29E
330
1D
  8
Elements
 10
340.484134
 20
131.519948
 30
0.0
 11
336.3259
 21
131.0829
 31
0.0
  0
LINE
  5
29F
330
1D
  8
Elements
 10
336.3259
 20
131.0829
 30
0.0
 11
336.3259
 21
126.0829
 31
0.0
  0
LINE
  5
2A0
330
1D
  8
Elements
 10
336.3259
 20
126.0829
 30
0.0
 11
331.128107
 21
126.62921
 31
0.0
  0
LINE
  5
2A1
330
1D
  8
Elements
 10
331.128107
 20
126.62921
 30
0.0
 11
332.167665
 21
131.519948
 31
0.0
  0
LINE
  5
2A2
330
1D
  8
Elements
 10
332.167666
 20
131.519948
 30
0.0
 11
328.191167
 21
132.811992
 31
0.0
  0
LINE
  5
2A3
330
1D
  8
Elements
 10
328.191167
 20
132.811992
 30
0.0
 11
326.157484
 21
128.244264
 31
0.0
  0
LINE
  5
2A4
330
1D
  8
Elements
 10
326.157484
 20
128.244264
 30
0.0
 11
321.631267
 21
130.857476
 31
0.0
  0
LINE
  5
2A5
330
1D
  8
Elements
 10
321.631267
 20
130.857476
 30
0.0
 11
324.570194
 21
134.902562
 31
0.0
  0
LINE
  5
2A6
330
1D
  8
Elements
 10
324.570195
 20
134.90256
 30
0.0
 11
321.463003
 21
137.700289
 31
0.0
  0
LINE
  5
2A7
330
1D
  8
Elements
 10
321.463003
 20
137.700289
 30
0.0
 11
317.747279
 21
134.354636
 31
0.0
  0
LINE
  5
2A8
330
1D
  8
Elements
 10
317.747279
 20
134.354636
 30
0.0
 11
314.675265
 21
138.582901
 31
0.0
  0
LINE
  5
2A9
330
1D
  8
Elements
 10
314.675265
 20
138.582901
 30
0.0
 11
319.005391
 21
141.082901
 31
0.0
  0
LINE
  5
2AA
330
1D
  8
Elements
 10
319.005391
 20
141.082901
 30
0.0
 11
317.30477
 21
144.902561
 31
0.0
  0
LINE
  5
2AB
330
1D
  8
Elements
 10
317.30477
 20
144.902561
 30
0.0
 11
312.549487
 21
143.357476
 31
0.0
  0
LINE
  5
2AC
330
1D
  8
Elements
 10
312.549487
 20
143.357476
 30
0.0
 11
311.462853
 21
148.46969
 31
0.0
  0
LINE
  5
2AD
330
1D
  8
Elements
 10
311.462853
 20
148.46969
 30
0.0
 11
316.435462
 21
148.992332
 31
0.0
  0
LINE
  5
2AE
330
1D
  8
Elements
 10
316.435462
 20
148.992331
 30
0.0
 11
316.435462
 21
153.17347
 31
0.0
  0
LINE
  5
2AF
330
1D
  8
Elements
 10
316.435462
 20
153.17347
 30
0.0
 11
311.462853
 21
153.696112
 31
0.0
  0
LINE
  5
2B0
330
1D
  8
Elements
 10
311.462853
 20
153.696112
 30
0.0
 11
312.549487
 21
158.808326
 31
0.0
  0
LINE
  5
2B1
330
1D
  8
Elements
 10
312.549487
 20
158.808326
 30
0.0
 11
317.30477
 21
157.263241
 31
0.0
  0
LINE
  5
2B2
330
1D
  8
Elements
 10
317.30477
 20
157.26324
 30
0.0
 11
319.005391
 21
161.0829
 31
0.0
  0
LINE
  5
2B3
330
1D
  8
Elements
 10
319.005391
 20
161.0829
 30
0.0
 11
314.675265
 21
163.5829
 31
0.0
  0
LINE
  5
2B4
330
1D
  8
Elements
 10
314.675265
 20
163.5829
 30
0.0
 11
317.747279
 21
167.811166
 31
0.0
  0
LINE
  5
2B5
330
1D
  8
Elements
 10
317.747279
 20
167.811166
 30
0.0
 11
321.463004
 21
164.465513
 31
0.0
  0
LINE
  5
2B6
330
1D
  8
Elements
 10
321.463003
 20
164.465512
 30
0.0
 11
324.570195
 21
167.26324
 31
0.0
  0
LINE
  5
2B7
330
1D
  8
Elements
 10
324.570195
 20
167.26324
 30
0.0
 11
321.631268
 21
171.308326
 31
0.0
  0
LINE
  5
2B8
330
1D
  8
Elements
 10
321.631268
 20
171.308326
 30
0.0
 11
326.157485
 21
173.921536
 31
0.0
  0
LINE
  5
2B9
330
1D
  8
Elements
 10
326.157485
 20
173.921536
 30
0.0
 11
328.191168
 21
169.35381
 31
0.0
  0
LINE
  5
2BA
330
1D
  8
Elements
 10
328.191167
 20
169.35381
 30
0.0
 11
332.167666
 21
170.645852
 31
0.0
  0
LINE
  5
2BB
330
1D
  8
Elements
 10
332.167666
 20
170.645852
 30
0.0
 11
331.128107
 21
175.53659
 31
0.0
  0
LINE
  5
2BC
330
1D
  8
Elements
 10
576.6703
 20
0.0
 30
0.0
 11
436.6703
 21
0.000000000000014
 31
0.0
  0
ARC
  5
2BD
330
1D
  8
Elements
 10
436.670315
 20
5.00002300000001
 30
0.0
 40
5.00001525884145
 50
180.000262
 51
269.999825
  0
LINE
  5
2BE
330
1D
  8
Elements
 10
431.6703
 20
5.00000000000001
 30
0.0
 11
431.6703
 21
93.0
 31
0.0
  0
ARC
  5
2BF
330
1D
  8
Elements
 10
438.6703
 20
93.000006
 30
0.0
 40
6.9999942779541
 50
90.0
 51
180.00009
  0
LINE
  5
2C0
330
1D
  8
Elements
 10
438.6703
 20
100.0
 30
0.0
 11
575.6703
 21
100.0
 31
0.0
  0
ARC
  5
2C1
330
1D
  8
Elements
 10
575.670304
 20
94.000004
 30
0.0
 40
5.99999570846558
 50
359.999959
 51
450.000041
  0
LINE
  5
2C2
330
1D
  8
Elements
 10
581.6703
 20
94.0
 30
0.0
 11
581.6703
 21
5.0
 31
0.0
  0
ARC
  5
2C3
330
1D
  8
Elements
 10
576.670308
 20
5.0
 30
0.0
 40
4.99999237061204
 50
269.999907
 51
360.0
  0
ENDSEC
  0
EOF
