  0
SECTION
  2
HEADER
  9
$ACADVER
  1
AC1009
  9
$EXTMIN
 10
0.0
 20
0.0
 30
0.0
  9
$EXTMAX
 10
1000.0
 20
1000.0
 30
0.0
  9
$FILLMODE
 70
 0
  9
$SPLFRAME
 70
 1
  0
ENDSEC
  0
SECTION
  2
TABLES
  0
TABLE
  2
LAYER
 70
1
  0
LAYER
  2
0
 70
     0
 62
     7
  6
CONTINUOUS
  0
ENDTAB
  0
ENDSEC
  0
SECTION
  2
ENTITIES
  0
POLYLINE
  8
0
 62
     0
 66
     1
 10
0
 20
0
 30
0.0
 70
     1
 40
0
 41
0
  0
VERTEX
  8
0
 10
0
 20
110
 30
0.0
 40
0
 41
0
  0
VERTEX
  8
0
 10
0
 20
4.99983
 30
0.0
 40
0
 41
0
  0
VERTEX
  8
0
 10
20
 20
4.99983
 30
0.0
 40
0
 41
0
  0
VERTEX
  8
0
 10
20.0639
 20
4.99983
 30
0.0
 40
0
 41
0
  0
VERTEX
  8
0
 10
20.2557
 20
5.01275
 30
0.0
 40
0
 41
0
  0
VERTEX
  8
0
 10
20.5039
 20
5.05067
 30
0.0
 40
0
 41
0
  0
VERTEX
  8
0
 10
20.7435
 20
5.11225
 30
0.0
 40
0
 41
0
  0
VERTEX
  8
0
 10
20.9732
 20
5.19635
 30
0.0
 40
0
 41
0
  0
VERTEX
  8
0
 10
21.1917
 20
5.3016
 30
0.0
 40
0
 41
0
  0
VERTEX
  8
0
 10
21.3978
 20
5.42681
 30
0.0
 40
0
 41
0
  0
VERTEX
  8
0
 10
21.5903
 20
5.57075
 30
0.0
 40
0
 41
0
  0
VERTEX
  8
0
 10
21.7678
 20
5.7321
 30
0.0
 40
0
 41
0
  0
VERTEX
  8
0
 10
21.9292
 20
5.90961
 30
0.0
 40
0
 41
0
  0
VERTEX
  8
0
 10
22.0731
 20
6.10211
 30
0.0
 40
0
 41
0
  0
VERTEX
  8
0
 10
22.1983
 20
6.30821
 30
0.0
 40
0
 41
0
  0
VERTEX
  8
0
 10
22.3036
 20
6.52675
 30
0.0
 40
0
 41
0
  0
VERTEX
  8
0
 10
22.3876
 20
6.75646
 30
0.0
 40
0
 41
0
  0
VERTEX
  8
0
 10
22.4492
 20
6.99604
 30
0.0
 40
0
 41
0
  0
VERTEX
  8
0
 10
22.4871
 20
7.24425
 30
0.0
 40
0
 41
0
  0
VERTEX
  8
0
 10
22.5
 20
7.43599
 30
0.0
 40
0
 41
0
  0
VERTEX
  8
0
 10
22.5
 20
7.49983
 30
0.0
 40
0
 41
0
  0
VERTEX
  8
0
 10
22.5
 20
7.56375
 30
0.0
 40
0
 41
0
  0
VERTEX
  8
0
 10
22.4871
 20
7.75549
 30
0.0
 40
0
 41
0
  0
VERTEX
  8
0
 10
22.4492
 20
8.00369
 30
0.0
 40
0
 41
0
  0
VERTEX
  8
0
 10
22.3876
 20
8.24328
 30
0.0
 40
0
 41
0
  0
VERTEX
  8
0
 10
22.3036
 20
8.47299
 30
0.0
 40
0
 41
0
  0
VERTEX
  8
0
 10
22.1983
 20
8.69151
 30
0.0
 40
0
 41
0
  0
VERTEX
  8
0
 10
22.0731
 20
8.89763
 30
0.0
 40
0
 41
0
  0
VERTEX
  8
0
 10
21.9292
 20
9.09011
 30
0.0
 40
0
 41
0
  0
VERTEX
  8
0
 10
21.7678
 20
9.26764
 30
0.0
 40
0
 41
0
  0
VERTEX
  8
0
 10
21.5903
 20
9.42899
 30
0.0
 40
0
 41
0
  0
VERTEX
  8
0
 10
21.3978
 20
9.57292
 30
0.0
 40
0
 41
0
  0
VERTEX
  8
0
 10
21.1917
 20
9.69814
 30
0.0
 40
0
 41
0
  0
VERTEX
  8
0
 10
20.9732
 20
9.80339
 30
0.0
 40
0
 41
0
  0
VERTEX
  8
0
 10
20.7435
 20
9.88747
 30
0.0
 40
0
 41
0
  0
VERTEX
  8
0
 10
20.5039
 20
9.94906
 30
0.0
 40
0
 41
0
  0
VERTEX
  8
0
 10
20.2557
 20
9.98699
 30
0.0
 40
0
 41
0
  0
VERTEX
  8
0
 10
20.0639
 20
9.99983
 30
0.0
 40
0
 41
0
  0
VERTEX
  8
0
 10
20
 20
9.99983
 30
0.0
 40
0
 41
0
  0
VERTEX
  8
0
 10
19.9361
 20
9.99983
 30
0.0
 40
0
 41
0
  0
VERTEX
  8
0
 10
19.7444
 20
10.0128
 30
0.0
 40
0
 41
0
  0
VERTEX
  8
0
 10
19.4962
 20
10.0507
 30
0.0
 40
0
 41
0
  0
VERTEX
  8
0
 10
19.2565
 20
10.1122
 30
0.0
 40
0
 41
0
  0
VERTEX
  8
0
 10
19.0269
 20
10.1963
 30
0.0
 40
0
 41
0
  0
VERTEX
  8
0
 10
18.8083
 20
10.3016
 30
0.0
 40
0
 41
0
  0
VERTEX
  8
0
 10
18.6022
 20
10.4268
 30
0.0
 40
0
 41
0
  0
VERTEX
  8
0
 10
18.4097
 20
10.5707
 30
0.0
 40
0
 41
0
  0
VERTEX
  8
0
 10
18.2322
 20
10.7321
 30
0.0
 40
0
 41
0
  0
VERTEX
  8
0
 10
18.071
 20
10.9096
 30
0.0
 40
0
 41
0
  0
VERTEX
  8
0
 10
17.9269
 20
11.1021
 30
0.0
 40
0
 41
0
  0
VERTEX
  8
0
 10
17.8018
 20
11.3082
 30
0.0
 40
0
 41
0
  0
VERTEX
  8
0
 10
17.6965
 20
11.5268
 30
0.0
 40
0
 41
0
  0
VERTEX
  8
0
 10
17.6124
 20
11.7565
 30
0.0
 40
0
 41
0
  0
VERTEX
  8
0
 10
17.5508
 20
11.996
 30
0.0
 40
0
 41
0
  0
VERTEX
  8
0
 10
17.5129
 20
12.2443
 30
0.0
 40
0
 41
0
  0
VERTEX
  8
0
 10
17.5
 20
12.436
 30
0.0
 40
0
 41
0
  0
VERTEX
  8
0
 10
17.5
 20
12.4998
 30
0.0
 40
0
 41
0
  0
VERTEX
  8
0
 10
17.5
 20
12.5638
 30
0.0
 40
0
 41
0
  0
VERTEX
  8
0
 10
17.5129
 20
12.7555
 30
0.0
 40
0
 41
0
  0
VERTEX
  8
0
 10
17.5508
 20
13.0037
 30
0.0
 40
0
 41
0
  0
VERTEX
  8
0
 10
17.6124
 20
13.2433
 30
0.0
 40
0
 41
0
  0
VERTEX
  8
0
 10
17.6965
 20
13.473
 30
0.0
 40
0
 41
0
  0
VERTEX
  8
0
 10
17.8018
 20
13.6915
 30
0.0
 40
0
 41
0
  0
VERTEX
  8
0
 10
17.9269
 20
13.8976
 30
0.0
 40
0
 41
0
  0
VERTEX
  8
0
 10
18.071
 20
14.0901
 30
0.0
 40
0
 41
0
  0
VERTEX
  8
0
 10
18.2322
 20
14.2676
 30
0.0
 40
0
 41
0
  0
VERTEX
  8
0
 10
18.4097
 20
14.429
 30
0.0
 40
0
 41
0
  0
VERTEX
  8
0
 10
18.6022
 20
14.5729
 30
0.0
 40
0
 41
0
  0
VERTEX
  8
0
 10
18.8083
 20
14.6982
 30
0.0
 40
0
 41
0
  0
VERTEX
  8
0
 10
19.0269
 20
14.8033
 30
0.0
 40
0
 41
0
  0
VERTEX
  8
0
 10
19.2565
 20
14.8875
 30
0.0
 40
0
 41
0
  0
VERTEX
  8
0
 10
19.4962
 20
14.949
 30
0.0
 40
0
 41
0
  0
VERTEX
  8
0
 10
19.7444
 20
14.9869
 30
0.0
 40
0
 41
0
  0
VERTEX
  8
0
 10
19.9361
 20
14.9999
 30
0.0
 40
0
 41
0
  0
VERTEX
  8
0
 10
20
 20
14.9999
 30
0.0
 40
0
 41
0
  0
VERTEX
  8
0
 10
20.0639
 20
14.9999
 30
0.0
 40
0
 41
0
  0
VERTEX
  8
0
 10
20.2557
 20
15.0128
 30
0.0
 40
0
 41
0
  0
VERTEX
  8
0
 10
20.5039
 20
15.0507
 30
0.0
 40
0
 41
0
  0
VERTEX
  8
0
 10
20.7435
 20
15.1122
 30
0.0
 40
0
 41
0
  0
VERTEX
  8
0
 10
20.9732
 20
15.1964
 30
0.0
 40
0
 41
0
  0
VERTEX
  8
0
 10
21.1917
 20
15.3015
 30
0.0
 40
0
 41
0
  0
VERTEX
  8
0
 10
21.3978
 20
15.4268
 30
0.0
 40
0
 41
0
  0
VERTEX
  8
0
 10
21.5903
 20
15.5707
 30
0.0
 40
0
 41
0
  0
VERTEX
  8
0
 10
21.7678
 20
15.7321
 30
0.0
 40
0
 41
0
  0
VERTEX
  8
0
 10
21.9292
 20
15.9096
 30
0.0
 40
0
 41
0
  0
VERTEX
  8
0
 10
22.0731
 20
16.1021
 30
0.0
 40
0
 41
0
  0
VERTEX
  8
0
 10
22.1983
 20
16.3082
 30
0.0
 40
0
 41
0
  0
VERTEX
  8
0
 10
22.3036
 20
16.5268
 30
0.0
 40
0
 41
0
  0
VERTEX
  8
0
 10
22.3876
 20
16.7564
 30
0.0
 40
0
 41
0
  0
VERTEX
  8
0
 10
22.4492
 20
16.996
 30
0.0
 40
0
 41
0
  0
VERTEX
  8
0
 10
22.4871
 20
17.2443
 30
0.0
 40
0
 41
0
  0
VERTEX
  8
0
 10
22.5
 20
17.436
 30
0.0
 40
0
 41
0
  0
VERTEX
  8
0
 10
22.5
 20
17.4999
 30
0.0
 40
0
 41
0
  0
VERTEX
  8
0
 10
22.5
 20
17.5637
 30
0.0
 40
0
 41
0
  0
VERTEX
  8
0
 10
22.4871
 20
17.7554
 30
0.0
 40
0
 41
0
  0
VERTEX
  8
0
 10
22.4492
 20
18.0038
 30
0.0
 40
0
 41
0
  0
VERTEX
  8
0
 10
22.3876
 20
18.2433
 30
0.0
 40
0
 41
0
  0
VERTEX
  8
0
 10
22.3036
 20
18.4729
 30
0.0
 40
0
 41
0
  0
VERTEX
  8
0
 10
22.1983
 20
18.6915
 30
0.0
 40
0
 41
0
  0
VERTEX
  8
0
 10
22.0731
 20
18.8976
 30
0.0
 40
0
 41
0
  0
VERTEX
  8
0
 10
21.9292
 20
19.0901
 30
0.0
 40
0
 41
0
  0
VERTEX
  8
0
 10
21.7678
 20
19.2676
 30
0.0
 40
0
 41
0
  0
VERTEX
  8
0
 10
21.5903
 20
19.429
 30
0.0
 40
0
 41
0
  0
VERTEX
  8
0
 10
21.3978
 20
19.5729
 30
0.0
 40
0
 41
0
  0
VERTEX
  8
0
 10
21.1917
 20
19.6982
 30
0.0
 40
0
 41
0
  0
VERTEX
  8
0
 10
20.9732
 20
19.8033
 30
0.0
 40
0
 41
0
  0
VERTEX
  8
0
 10
20.7435
 20
19.8875
 30
0.0
 40
0
 41
0
  0
VERTEX
  8
0
 10
20.5039
 20
19.949
 30
0.0
 40
0
 41
0
  0
VERTEX
  8
0
 10
20.2557
 20
19.9869
 30
0.0
 40
0
 41
0
  0
VERTEX
  8
0
 10
20.0639
 20
19.9999
 30
0.0
 40
0
 41
0
  0
VERTEX
  8
0
 10
20
 20
19.9999
 30
0.0
 40
0
 41
0
  0
VERTEX
  8
0
 10
19.9361
 20
19.9999
 30
0.0
 40
0
 41
0
  0
VERTEX
  8
0
 10
19.7444
 20
20.0128
 30
0.0
 40
0
 41
0
  0
VERTEX
  8
0
 10
19.4962
 20
20.0507
 30
0.0
 40
0
 41
0
  0
VERTEX
  8
0
 10
19.2565
 20
20.1122
 30
0.0
 40
0
 41
0
  0
VERTEX
  8
0
 10
19.0269
 20
20.1964
 30
0.0
 40
0
 41
0
  0
VERTEX
  8
0
 10
18.8083
 20
20.3015
 30
0.0
 40
0
 41
0
  0
VERTEX
  8
0
 10
18.6022
 20
20.4268
 30
0.0
 40
0
 41
0
  0
VERTEX
  8
0
 10
18.4097
 20
20.5707
 30
0.0
 40
0
 41
0
  0
VERTEX
  8
0
 10
18.2322
 20
20.7321
 30
0.0
 40
0
 41
0
  0
VERTEX
  8
0
 10
18.071
 20
20.9096
 30
0.0
 40
0
 41
0
  0
VERTEX
  8
0
 10
17.9269
 20
21.1021
 30
0.0
 40
0
 41
0
  0
VERTEX
  8
0
 10
17.8018
 20
21.3082
 30
0.0
 40
0
 41
0
  0
VERTEX
  8
0
 10
17.6965
 20
21.5268
 30
0.0
 40
0
 41
0
  0
VERTEX
  8
0
 10
17.6124
 20
21.7564
 30
0.0
 40
0
 41
0
  0
VERTEX
  8
0
 10
17.5508
 20
21.996
 30
0.0
 40
0
 41
0
  0
VERTEX
  8
0
 10
17.5129
 20
22.2443
 30
0.0
 40
0
 41
0
  0
VERTEX
  8
0
 10
17.5
 20
22.436
 30
0.0
 40
0
 41
0
  0
VERTEX
  8
0
 10
17.5
 20
22.4999
 30
0.0
 40
0
 41
0
  0
VERTEX
  8
0
 10
17.5
 20
22.5637
 30
0.0
 40
0
 41
0
  0
VERTEX
  8
0
 10
17.5129
 20
22.7554
 30
0.0
 40
0
 41
0
  0
VERTEX
  8
0
 10
17.5508
 20
23.0038
 30
0.0
 40
0
 41
0
  0
VERTEX
  8
0
 10
17.6124
 20
23.2433
 30
0.0
 40
0
 41
0
  0
VERTEX
  8
0
 10
17.6965
 20
23.4729
 30
0.0
 40
0
 41
0
  0
VERTEX
  8
0
 10
17.8018
 20
23.6915
 30
0.0
 40
0
 41
0
  0
VERTEX
  8
0
 10
17.9269
 20
23.8976
 30
0.0
 40
0
 41
0
  0
VERTEX
  8
0
 10
18.071
 20
24.0901
 30
0.0
 40
0
 41
0
  0
VERTEX
  8
0
 10
18.2322
 20
24.2676
 30
0.0
 40
0
 41
0
  0
VERTEX
  8
0
 10
18.4097
 20
24.429
 30
0.0
 40
0
 41
0
  0
VERTEX
  8
0
 10
18.6022
 20
24.5729
 30
0.0
 40
0
 41
0
  0
VERTEX
  8
0
 10
18.8083
 20
24.6982
 30
0.0
 40
0
 41
0
  0
VERTEX
  8
0
 10
19.0269
 20
24.8035
 30
0.0
 40
0
 41
0
  0
VERTEX
  8
0
 10
19.2565
 20
24.8875
 30
0.0
 40
0
 41
0
  0
VERTEX
  8
0
 10
19.4962
 20
24.9492
 30
0.0
 40
0
 41
0
  0
VERTEX
  8
0
 10
19.7444
 20
24.9871
 30
0.0
 40
0
 41
0
  0
VERTEX
  8
0
 10
19.9361
 20
24.9999
 30
0.0
 40
0
 41
0
  0
VERTEX
  8
0
 10
20
 20
24.9999
 30
0.0
 40
0
 41
0
  0
VERTEX
  8
0
 10
20.0639
 20
24.9999
 30
0.0
 40
0
 41
0
  0
VERTEX
  8
0
 10
20.2557
 20
25.0128
 30
0.0
 40
0
 41
0
  0
VERTEX
  8
0
 10
20.5039
 20
25.0507
 30
0.0
 40
0
 41
0
  0
VERTEX
  8
0
 10
20.7435
 20
25.1124
 30
0.0
 40
0
 41
0
  0
VERTEX
  8
0
 10
20.9732
 20
25.1964
 30
0.0
 40
0
 41
0
  0
VERTEX
  8
0
 10
21.1917
 20
25.3017
 30
0.0
 40
0
 41
0
  0
VERTEX
  8
0
 10
21.3978
 20
25.4268
 30
0.0
 40
0
 41
0
  0
VERTEX
  8
0
 10
21.5903
 20
25.5708
 30
0.0
 40
0
 41
0
  0
VERTEX
  8
0
 10
21.7678
 20
25.7321
 30
0.0
 40
0
 41
0
  0
VERTEX
  8
0
 10
21.9292
 20
25.9097
 30
0.0
 40
0
 41
0
  0
VERTEX
  8
0
 10
22.0731
 20
26.1021
 30
0.0
 40
0
 41
0
  0
VERTEX
  8
0
 10
22.1983
 20
26.3083
 30
0.0
 40
0
 41
0
  0
VERTEX
  8
0
 10
22.3036
 20
26.5268
 30
0.0
 40
0
 41
0
  0
VERTEX
  8
0
 10
22.3876
 20
26.7564
 30
0.0
 40
0
 41
0
  0
VERTEX
  8
0
 10
22.4492
 20
26.9961
 30
0.0
 40
0
 41
0
  0
VERTEX
  8
0
 10
22.4871
 20
27.2443
 30
0.0
 40
0
 41
0
  0
VERTEX
  8
0
 10
22.5
 20
27.436
 30
0.0
 40
0
 41
0
  0
VERTEX
  8
0
 10
22.5
 20
27.4999
 30
0.0
 40
0
 41
0
  0
VERTEX
  8
0
 10
22.5
 20
27.5637
 30
0.0
 40
0
 41
0
  0
VERTEX
  8
0
 10
22.4871
 20
27.7556
 30
0.0
 40
0
 41
0
  0
VERTEX
  8
0
 10
22.4492
 20
28.0038
 30
0.0
 40
0
 41
0
  0
VERTEX
  8
0
 10
22.3876
 20
28.2433
 30
0.0
 40
0
 41
0
  0
VERTEX
  8
0
 10
22.3036
 20
28.4731
 30
0.0
 40
0
 41
0
  0
VERTEX
  8
0
 10
22.1983
 20
28.6915
 30
0.0
 40
0
 41
0
  0
VERTEX
  8
0
 10
22.0731
 20
28.8976
 30
0.0
 40
0
 41
0
  0
VERTEX
  8
0
 10
21.9292
 20
29.0901
 30
0.0
 40
0
 41
0
  0
VERTEX
  8
0
 10
21.7678
 20
29.2676
 30
0.0
 40
0
 41
0
  0
VERTEX
  8
0
 10
21.5903
 20
29.429
 30
0.0
 40
0
 41
0
  0
VERTEX
  8
0
 10
21.3978
 20
29.5729
 30
0.0
 40
0
 41
0
  0
VERTEX
  8
0
 10
21.1917
 20
29.6982
 30
0.0
 40
0
 41
0
  0
VERTEX
  8
0
 10
20.9732
 20
29.8035
 30
0.0
 40
0
 41
0
  0
VERTEX
  8
0
 10
20.7435
 20
29.8875
 30
0.0
 40
0
 41
0
  0
VERTEX
  8
0
 10
20.5039
 20
29.9492
 30
0.0
 40
0
 41
0
  0
VERTEX
  8
0
 10
20.2557
 20
29.9871
 30
0.0
 40
0
 41
0
  0
VERTEX
  8
0
 10
20.0639
 20
29.9999
 30
0.0
 40
0
 41
0
  0
VERTEX
  8
0
 10
20
 20
29.9999
 30
0.0
 40
0
 41
0
  0
VERTEX
  8
0
 10
19.9361
 20
29.9999
 30
0.0
 40
0
 41
0
  0
VERTEX
  8
0
 10
19.7444
 20
30.0128
 30
0.0
 40
0
 41
0
  0
VERTEX
  8
0
 10
19.4962
 20
30.0507
 30
0.0
 40
0
 41
0
  0
VERTEX
  8
0
 10
19.2565
 20
30.1124
 30
0.0
 40
0
 41
0
  0
VERTEX
  8
0
 10
19.0269
 20
30.1964
 30
0.0
 40
0
 41
0
  0
VERTEX
  8
0
 10
18.8083
 20
30.3017
 30
0.0
 40
0
 41
0
  0
VERTEX
  8
0
 10
18.6022
 20
30.4268
 30
0.0
 40
0
 41
0
  0
VERTEX
  8
0
 10
18.4097
 20
30.5708
 30
0.0
 40
0
 41
0
  0
VERTEX
  8
0
 10
18.2322
 20
30.7321
 30
0.0
 40
0
 41
0
  0
VERTEX
  8
0
 10
18.071
 20
30.9097
 30
0.0
 40
0
 41
0
  0
VERTEX
  8
0
 10
17.9269
 20
31.1021
 30
0.0
 40
0
 41
0
  0
VERTEX
  8
0
 10
17.8018
 20
31.3083
 30
0.0
 40
0
 41
0
  0
VERTEX
  8
0
 10
17.6965
 20
31.5268
 30
0.0
 40
0
 41
0
  0
VERTEX
  8
0
 10
17.6124
 20
31.7564
 30
0.0
 40
0
 41
0
  0
VERTEX
  8
0
 10
17.5508
 20
31.9961
 30
0.0
 40
0
 41
0
  0
VERTEX
  8
0
 10
17.5129
 20
32.2443
 30
0.0
 40
0
 41
0
  0
VERTEX
  8
0
 10
17.5
 20
32.436
 30
0.0
 40
0
 41
0
  0
VERTEX
  8
0
 10
17.5
 20
32.4999
 30
0.0
 40
0
 41
0
  0
VERTEX
  8
0
 10
17.5
 20
32.5638
 30
0.0
 40
0
 41
0
  0
VERTEX
  8
0
 10
17.5129
 20
32.7556
 30
0.0
 40
0
 41
0
  0
VERTEX
  8
0
 10
17.5508
 20
33.0038
 30
0.0
 40
0
 41
0
  0
VERTEX
  8
0
 10
17.6124
 20
33.2433
 30
0.0
 40
0
 41
0
  0
VERTEX
  8
0
 10
17.6965
 20
33.4731
 30
0.0
 40
0
 41
0
  0
VERTEX
  8
0
 10
17.8018
 20
33.6915
 30
0.0
 40
0
 41
0
  0
VERTEX
  8
0
 10
17.9269
 20
33.8976
 30
0.0
 40
0
 41
0
  0
VERTEX
  8
0
 10
18.071
 20
34.0901
 30
0.0
 40
0
 41
0
  0
VERTEX
  8
0
 10
18.2322
 20
34.2676
 30
0.0
 40
0
 41
0
  0
VERTEX
  8
0
 10
18.4097
 20
34.429
 30
0.0
 40
0
 41
0
  0
VERTEX
  8
0
 10
18.6022
 20
34.5729
 30
0.0
 40
0
 41
0
  0
VERTEX
  8
0
 10
18.8083
 20
34.6982
 30
0.0
 40
0
 41
0
  0
VERTEX
  8
0
 10
19.0269
 20
34.8035
 30
0.0
 40
0
 41
0
  0
VERTEX
  8
0
 10
19.2565
 20
34.8875
 30
0.0
 40
0
 41
0
  0
VERTEX
  8
0
 10
19.4962
 20
34.9492
 30
0.0
 40
0
 41
0
  0
VERTEX
  8
0
 10
19.7444
 20
34.9871
 30
0.0
 40
0
 41
0
  0
VERTEX
  8
0
 10
19.9361
 20
34.9999
 30
0.0
 40
0
 41
0
  0
VERTEX
  8
0
 10
20
 20
34.9999
 30
0.0
 40
0
 41
0
  0
VERTEX
  8
0
 10
20.0639
 20
34.9999
 30
0.0
 40
0
 41
0
  0
VERTEX
  8
0
 10
20.2557
 20
35.0128
 30
0.0
 40
0
 41
0
  0
VERTEX
  8
0
 10
20.5039
 20
35.0507
 30
0.0
 40
0
 41
0
  0
VERTEX
  8
0
 10
20.7435
 20
35.1124
 30
0.0
 40
0
 41
0
  0
VERTEX
  8
0
 10
20.9732
 20
35.1964
 30
0.0
 40
0
 41
0
  0
VERTEX
  8
0
 10
21.1917
 20
35.3017
 30
0.0
 40
0
 41
0
  0
VERTEX
  8
0
 10
21.3978
 20
35.4268
 30
0.0
 40
0
 41
0
  0
VERTEX
  8
0
 10
21.5903
 20
35.5708
 30
0.0
 40
0
 41
0
  0
VERTEX
  8
0
 10
21.7678
 20
35.7321
 30
0.0
 40
0
 41
0
  0
VERTEX
  8
0
 10
21.9292
 20
35.9097
 30
0.0
 40
0
 41
0
  0
VERTEX
  8
0
 10
22.0731
 20
36.1022
 30
0.0
 40
0
 41
0
  0
VERTEX
  8
0
 10
22.1983
 20
36.3083
 30
0.0
 40
0
 41
0
  0
VERTEX
  8
0
 10
22.3036
 20
36.5268
 30
0.0
 40
0
 41
0
  0
VERTEX
  8
0
 10
22.3876
 20
36.7565
 30
0.0
 40
0
 41
0
  0
VERTEX
  8
0
 10
22.4492
 20
36.9961
 30
0.0
 40
0
 41
0
  0
VERTEX
  8
0
 10
22.4871
 20
37.2443
 30
0.0
 40
0
 41
0
  0
VERTEX
  8
0
 10
22.5
 20
37.436
 30
0.0
 40
0
 41
0
  0
VERTEX
  8
0
 10
22.5
 20
37.4999
 30
0.0
 40
0
 41
0
  0
VERTEX
  8
0
 10
22.5
 20
37.5638
 30
0.0
 40
0
 41
0
  0
VERTEX
  8
0
 10
22.4871
 20
37.7556
 30
0.0
 40
0
 41
0
  0
VERTEX
  8
0
 10
22.4492
 20
38.0038
 30
0.0
 40
0
 41
0
  0
VERTEX
  8
0
 10
22.3876
 20
38.2433
 30
0.0
 40
0
 41
0
  0
VERTEX
  8
0
 10
22.3036
 20
38.4731
 30
0.0
 40
0
 41
0
  0
VERTEX
  8
0
 10
22.1983
 20
38.6915
 30
0.0
 40
0
 41
0
  0
VERTEX
  8
0
 10
22.0731
 20
38.8976
 30
0.0
 40
0
 41
0
  0
VERTEX
  8
0
 10
21.9292
 20
39.0901
 30
0.0
 40
0
 41
0
  0
VERTEX
  8
0
 10
21.7678
 20
39.2676
 30
0.0
 40
0
 41
0
  0
VERTEX
  8
0
 10
21.5903
 20
39.429
 30
0.0
 40
0
 41
0
  0
VERTEX
  8
0
 10
21.3978
 20
39.5729
 30
0.0
 40
0
 41
0
  0
VERTEX
  8
0
 10
21.1917
 20
39.6982
 30
0.0
 40
0
 41
0
  0
VERTEX
  8
0
 10
20.9732
 20
39.8035
 30
0.0
 40
0
 41
0
  0
VERTEX
  8
0
 10
20.7435
 20
39.8875
 30
0.0
 40
0
 41
0
  0
VERTEX
  8
0
 10
20.5039
 20
39.9492
 30
0.0
 40
0
 41
0
  0
VERTEX
  8
0
 10
20.2557
 20
39.9871
 30
0.0
 40
0
 41
0
  0
VERTEX
  8
0
 10
20.0639
 20
39.9999
 30
0.0
 40
0
 41
0
  0
VERTEX
  8
0
 10
20
 20
39.9999
 30
0.0
 40
0
 41
0
  0
VERTEX
  8
0
 10
19.9361
 20
39.9999
 30
0.0
 40
0
 41
0
  0
VERTEX
  8
0
 10
19.7444
 20
40.0128
 30
0.0
 40
0
 41
0
  0
VERTEX
  8
0
 10
19.4962
 20
40.0507
 30
0.0
 40
0
 41
0
  0
VERTEX
  8
0
 10
19.2565
 20
40.1124
 30
0.0
 40
0
 41
0
  0
VERTEX
  8
0
 10
19.0269
 20
40.1964
 30
0.0
 40
0
 41
0
  0
VERTEX
  8
0
 10
18.8083
 20
40.3017
 30
0.0
 40
0
 41
0
  0
VERTEX
  8
0
 10
18.6022
 20
40.4268
 30
0.0
 40
0
 41
0
  0
VERTEX
  8
0
 10
18.4097
 20
40.5708
 30
0.0
 40
0
 41
0
  0
VERTEX
  8
0
 10
18.2322
 20
40.7321
 30
0.0
 40
0
 41
0
  0
VERTEX
  8
0
 10
18.071
 20
40.9097
 30
0.0
 40
0
 41
0
  0
VERTEX
  8
0
 10
17.9269
 20
41.1022
 30
0.0
 40
0
 41
0
  0
VERTEX
  8
0
 10
17.8018
 20
41.3083
 30
0.0
 40
0
 41
0
  0
VERTEX
  8
0
 10
17.6965
 20
41.5268
 30
0.0
 40
0
 41
0
  0
VERTEX
  8
0
 10
17.6124
 20
41.7565
 30
0.0
 40
0
 41
0
  0
VERTEX
  8
0
 10
17.5508
 20
41.9961
 30
0.0
 40
0
 41
0
  0
VERTEX
  8
0
 10
17.5129
 20
42.2443
 30
0.0
 40
0
 41
0
  0
VERTEX
  8
0
 10
17.5
 20
42.436
 30
0.0
 40
0
 41
0
  0
VERTEX
  8
0
 10
17.5
 20
42.4999
 30
0.0
 40
0
 41
0
  0
VERTEX
  8
0
 10
17.5
 20
42.5638
 30
0.0
 40
0
 41
0
  0
VERTEX
  8
0
 10
17.5129
 20
42.7556
 30
0.0
 40
0
 41
0
  0
VERTEX
  8
0
 10
17.5508
 20
43.0038
 30
0.0
 40
0
 41
0
  0
VERTEX
  8
0
 10
17.6124
 20
43.2433
 30
0.0
 40
0
 41
0
  0
VERTEX
  8
0
 10
17.6965
 20
43.4731
 30
0.0
 40
0
 41
0
  0
VERTEX
  8
0
 10
17.8018
 20
43.6915
 30
0.0
 40
0
 41
0
  0
VERTEX
  8
0
 10
17.9269
 20
43.8976
 30
0.0
 40
0
 41
0
  0
VERTEX
  8
0
 10
18.071
 20
44.0901
 30
0.0
 40
0
 41
0
  0
VERTEX
  8
0
 10
18.2322
 20
44.2676
 30
0.0
 40
0
 41
0
  0
VERTEX
  8
0
 10
18.4097
 20
44.429
 30
0.0
 40
0
 41
0
  0
VERTEX
  8
0
 10
18.6022
 20
44.5729
 30
0.0
 40
0
 41
0
  0
VERTEX
  8
0
 10
18.8083
 20
44.6982
 30
0.0
 40
0
 41
0
  0
VERTEX
  8
0
 10
19.0269
 20
44.8035
 30
0.0
 40
0
 41
0
  0
VERTEX
  8
0
 10
19.2565
 20
44.8875
 30
0.0
 40
0
 41
0
  0
VERTEX
  8
0
 10
19.4962
 20
44.9492
 30
0.0
 40
0
 41
0
  0
VERTEX
  8
0
 10
19.7444
 20
44.9871
 30
0.0
 40
0
 41
0
  0
VERTEX
  8
0
 10
19.9361
 20
44.9999
 30
0.0
 40
0
 41
0
  0
VERTEX
  8
0
 10
20
 20
44.9999
 30
0.0
 40
0
 41
0
  0
VERTEX
  8
0
 10
20.0639
 20
44.9999
 30
0.0
 40
0
 41
0
  0
VERTEX
  8
0
 10
20.2557
 20
45.0128
 30
0.0
 40
0
 41
0
  0
VERTEX
  8
0
 10
20.5039
 20
45.0507
 30
0.0
 40
0
 41
0
  0
VERTEX
  8
0
 10
20.7435
 20
45.1124
 30
0.0
 40
0
 41
0
  0
VERTEX
  8
0
 10
20.9732
 20
45.1964
 30
0.0
 40
0
 41
0
  0
VERTEX
  8
0
 10
21.1917
 20
45.3017
 30
0.0
 40
0
 41
0
  0
VERTEX
  8
0
 10
21.3978
 20
45.4268
 30
0.0
 40
0
 41
0
  0
VERTEX
  8
0
 10
21.5903
 20
45.5708
 30
0.0
 40
0
 41
0
  0
VERTEX
  8
0
 10
21.7678
 20
45.7321
 30
0.0
 40
0
 41
0
  0
VERTEX
  8
0
 10
21.9292
 20
45.9097
 30
0.0
 40
0
 41
0
  0
VERTEX
  8
0
 10
22.0731
 20
46.1022
 30
0.0
 40
0
 41
0
  0
VERTEX
  8
0
 10
22.1983
 20
46.3083
 30
0.0
 40
0
 41
0
  0
VERTEX
  8
0
 10
22.3036
 20
46.5268
 30
0.0
 40
0
 41
0
  0
VERTEX
  8
0
 10
22.3876
 20
46.7565
 30
0.0
 40
0
 41
0
  0
VERTEX
  8
0
 10
22.4492
 20
46.9961
 30
0.0
 40
0
 41
0
  0
VERTEX
  8
0
 10
22.4871
 20
47.2443
 30
0.0
 40
0
 41
0
  0
VERTEX
  8
0
 10
22.5
 20
47.436
 30
0.0
 40
0
 41
0
  0
VERTEX
  8
0
 10
22.5
 20
47.4999
 30
0.0
 40
0
 41
0
  0
VERTEX
  8
0
 10
22.5
 20
47.5638
 30
0.0
 40
0
 41
0
  0
VERTEX
  8
0
 10
22.4871
 20
47.7556
 30
0.0
 40
0
 41
0
  0
VERTEX
  8
0
 10
22.4492
 20
48.0038
 30
0.0
 40
0
 41
0
  0
VERTEX
  8
0
 10
22.3876
 20
48.2433
 30
0.0
 40
0
 41
0
  0
VERTEX
  8
0
 10
22.3036
 20
48.4731
 30
0.0
 40
0
 41
0
  0
VERTEX
  8
0
 10
22.1983
 20
48.6915
 30
0.0
 40
0
 41
0
  0
VERTEX
  8
0
 10
22.0731
 20
48.8978
 30
0.0
 40
0
 41
0
  0
VERTEX
  8
0
 10
21.9292
 20
49.0901
 30
0.0
 40
0
 41
0
  0
VERTEX
  8
0
 10
21.7678
 20
49.2676
 30
0.0
 40
0
 41
0
  0
VERTEX
  8
0
 10
21.5903
 20
49.429
 30
0.0
 40
0
 41
0
  0
VERTEX
  8
0
 10
21.3978
 20
49.5729
 30
0.0
 40
0
 41
0
  0
VERTEX
  8
0
 10
21.1917
 20
49.6982
 30
0.0
 40
0
 41
0
  0
VERTEX
  8
0
 10
20.9732
 20
49.8035
 30
0.0
 40
0
 41
0
  0
VERTEX
  8
0
 10
20.7435
 20
49.8875
 30
0.0
 40
0
 41
0
  0
VERTEX
  8
0
 10
20.5039
 20
49.9492
 30
0.0
 40
0
 41
0
  0
VERTEX
  8
0
 10
20.2557
 20
49.9871
 30
0.0
 40
0
 41
0
  0
VERTEX
  8
0
 10
20.0639
 20
49.9999
 30
0.0
 40
0
 41
0
  0
VERTEX
  8
0
 10
20
 20
49.9999
 30
0.0
 40
0
 41
0
  0
VERTEX
  8
0
 10
19.9361
 20
49.9999
 30
0.0
 40
0
 41
0
  0
VERTEX
  8
0
 10
19.7444
 20
50.0128
 30
0.0
 40
0
 41
0
  0
VERTEX
  8
0
 10
19.4962
 20
50.0507
 30
0.0
 40
0
 41
0
  0
VERTEX
  8
0
 10
19.2565
 20
50.1124
 30
0.0
 40
0
 41
0
  0
VERTEX
  8
0
 10
19.0269
 20
50.1964
 30
0.0
 40
0
 41
0
  0
VERTEX
  8
0
 10
18.8083
 20
50.3017
 30
0.0
 40
0
 41
0
  0
VERTEX
  8
0
 10
18.6022
 20
50.4268
 30
0.0
 40
0
 41
0
  0
VERTEX
  8
0
 10
18.4097
 20
50.5708
 30
0.0
 40
0
 41
0
  0
VERTEX
  8
0
 10
18.2322
 20
50.7321
 30
0.0
 40
0
 41
0
  0
VERTEX
  8
0
 10
18.071
 20
50.9097
 30
0.0
 40
0
 41
0
  0
VERTEX
  8
0
 10
17.9269
 20
51.1022
 30
0.0
 40
0
 41
0
  0
VERTEX
  8
0
 10
17.8018
 20
51.3083
 30
0.0
 40
0
 41
0
  0
VERTEX
  8
0
 10
17.6965
 20
51.5268
 30
0.0
 40
0
 41
0
  0
VERTEX
  8
0
 10
17.6124
 20
51.7565
 30
0.0
 40
0
 41
0
  0
VERTEX
  8
0
 10
17.5508
 20
51.9961
 30
0.0
 40
0
 41
0
  0
VERTEX
  8
0
 10
17.5129
 20
52.2443
 30
0.0
 40
0
 41
0
  0
VERTEX
  8
0
 10
17.5
 20
52.436
 30
0.0
 40
0
 41
0
  0
VERTEX
  8
0
 10
17.5
 20
52.4999
 30
0.0
 40
0
 41
0
  0
VERTEX
  8
0
 10
17.5
 20
52.5638
 30
0.0
 40
0
 41
0
  0
VERTEX
  8
0
 10
17.5129
 20
52.7556
 30
0.0
 40
0
 41
0
  0
VERTEX
  8
0
 10
17.5508
 20
53.0038
 30
0.0
 40
0
 41
0
  0
VERTEX
  8
0
 10
17.6124
 20
53.2433
 30
0.0
 40
0
 41
0
  0
VERTEX
  8
0
 10
17.6965
 20
53.4731
 30
0.0
 40
0
 41
0
  0
VERTEX
  8
0
 10
17.8018
 20
53.6915
 30
0.0
 40
0
 41
0
  0
VERTEX
  8
0
 10
17.9269
 20
53.8978
 30
0.0
 40
0
 41
0
  0
VERTEX
  8
0
 10
18.071
 20
54.0901
 30
0.0
 40
0
 41
0
  0
VERTEX
  8
0
 10
18.2322
 20
54.2676
 30
0.0
 40
0
 41
0
  0
VERTEX
  8
0
 10
18.4097
 20
54.429
 30
0.0
 40
0
 41
0
  0
VERTEX
  8
0
 10
18.6022
 20
54.5729
 30
0.0
 40
0
 41
0
  0
VERTEX
  8
0
 10
18.8083
 20
54.6982
 30
0.0
 40
0
 41
0
  0
VERTEX
  8
0
 10
19.0269
 20
54.8035
 30
0.0
 40
0
 41
0
  0
VERTEX
  8
0
 10
19.2565
 20
54.8875
 30
0.0
 40
0
 41
0
  0
VERTEX
  8
0
 10
19.4962
 20
54.9492
 30
0.0
 40
0
 41
0
  0
VERTEX
  8
0
 10
19.7444
 20
54.9871
 30
0.0
 40
0
 41
0
  0
VERTEX
  8
0
 10
19.9361
 20
54.9999
 30
0.0
 40
0
 41
0
  0
VERTEX
  8
0
 10
20
 20
54.9999
 30
0.0
 40
0
 41
0
  0
VERTEX
  8
0
 10
20.0639
 20
54.9999
 30
0.0
 40
0
 41
0
  0
VERTEX
  8
0
 10
20.2557
 20
55.0128
 30
0.0
 40
0
 41
0
  0
VERTEX
  8
0
 10
20.5039
 20
55.0507
 30
0.0
 40
0
 41
0
  0
VERTEX
  8
0
 10
20.7435
 20
55.1124
 30
0.0
 40
0
 41
0
  0
VERTEX
  8
0
 10
20.9732
 20
55.1964
 30
0.0
 40
0
 41
0
  0
VERTEX
  8
0
 10
21.1917
 20
55.3017
 30
0.0
 40
0
 41
0
  0
VERTEX
  8
0
 10
21.3978
 20
55.4268
 30
0.0
 40
0
 41
0
  0
VERTEX
  8
0
 10
21.5903
 20
55.5708
 30
0.0
 40
0
 41
0
  0
VERTEX
  8
0
 10
21.7678
 20
55.7321
 30
0.0
 40
0
 41
0
  0
VERTEX
  8
0
 10
21.9292
 20
55.9097
 30
0.0
 40
0
 41
0
  0
VERTEX
  8
0
 10
22.0731
 20
56.1022
 30
0.0
 40
0
 41
0
  0
VERTEX
  8
0
 10
22.1983
 20
56.3083
 30
0.0
 40
0
 41
0
  0
VERTEX
  8
0
 10
22.3036
 20
56.5268
 30
0.0
 40
0
 41
0
  0
VERTEX
  8
0
 10
22.3876
 20
56.7565
 30
0.0
 40
0
 41
0
  0
VERTEX
  8
0
 10
22.4492
 20
56.9961
 30
0.0
 40
0
 41
0
  0
VERTEX
  8
0
 10
22.4871
 20
57.2443
 30
0.0
 40
0
 41
0
  0
VERTEX
  8
0
 10
22.5
 20
57.436
 30
0.0
 40
0
 41
0
  0
VERTEX
  8
0
 10
22.5
 20
57.4999
 30
0.0
 40
0
 41
0
  0
VERTEX
  8
0
 10
22.5
 20
57.5637
 30
0.0
 40
0
 41
0
  0
VERTEX
  8
0
 10
22.4871
 20
57.7556
 30
0.0
 40
0
 41
0
  0
VERTEX
  8
0
 10
22.4492
 20
58.0038
 30
0.0
 40
0
 41
0
  0
VERTEX
  8
0
 10
22.3876
 20
58.2433
 30
0.0
 40
0
 41
0
  0
VERTEX
  8
0
 10
22.3036
 20
58.4731
 30
0.0
 40
0
 41
0
  0
VERTEX
  8
0
 10
22.1983
 20
58.6917
 30
0.0
 40
0
 41
0
  0
VERTEX
  8
0
 10
22.0731
 20
58.8978
 30
0.0
 40
0
 41
0
  0
VERTEX
  8
0
 10
21.9292
 20
59.0901
 30
0.0
 40
0
 41
0
  0
VERTEX
  8
0
 10
21.7678
 20
59.2678
 30
0.0
 40
0
 41
0
  0
VERTEX
  8
0
 10
21.5903
 20
59.429
 30
0.0
 40
0
 41
0
  0
VERTEX
  8
0
 10
21.3978
 20
59.5731
 30
0.0
 40
0
 41
0
  0
VERTEX
  8
0
 10
21.1917
 20
59.6982
 30
0.0
 40
0
 41
0
  0
VERTEX
  8
0
 10
20.9732
 20
59.8035
 30
0.0
 40
0
 41
0
  0
VERTEX
  8
0
 10
20.7435
 20
59.8876
 30
0.0
 40
0
 41
0
  0
VERTEX
  8
0
 10
20.5039
 20
59.9492
 30
0.0
 40
0
 41
0
  0
VERTEX
  8
0
 10
20.2557
 20
59.9871
 30
0.0
 40
0
 41
0
  0
VERTEX
  8
0
 10
20.0639
 20
60
 30
0.0
 40
0
 41
0
  0
VERTEX
  8
0
 10
20
 20
60
 30
0.0
 40
0
 41
0
  0
VERTEX
  8
0
 10
19.9361
 20
60
 30
0.0
 40
0
 41
0
  0
VERTEX
  8
0
 10
19.7444
 20
60.0129
 30
0.0
 40
0
 41
0
  0
VERTEX
  8
0
 10
19.4962
 20
60.0508
 30
0.0
 40
0
 41
0
  0
VERTEX
  8
0
 10
19.2565
 20
60.1124
 30
0.0
 40
0
 41
0
  0
VERTEX
  8
0
 10
19.0269
 20
60.1964
 30
0.0
 40
0
 41
0
  0
VERTEX
  8
0
 10
18.8083
 20
60.3017
 30
0.0
 40
0
 41
0
  0
VERTEX
  8
0
 10
18.6022
 20
60.4269
 30
0.0
 40
0
 41
0
  0
VERTEX
  8
0
 10
18.4097
 20
60.5708
 30
0.0
 40
0
 41
0
  0
VERTEX
  8
0
 10
18.2322
 20
60.7322
 30
0.0
 40
0
 41
0
  0
VERTEX
  8
0
 10
18.071
 20
60.9097
 30
0.0
 40
0
 41
0
  0
VERTEX
  8
0
 10
17.9269
 20
61.1022
 30
0.0
 40
0
 41
0
  0
VERTEX
  8
0
 10
17.8018
 20
61.3083
 30
0.0
 40
0
 41
0
  0
VERTEX
  8
0
 10
17.6965
 20
61.5268
 30
0.0
 40
0
 41
0
  0
VERTEX
  8
0
 10
17.6124
 20
61.7565
 30
0.0
 40
0
 41
0
  0
VERTEX
  8
0
 10
17.5508
 20
61.9961
 30
0.0
 40
0
 41
0
  0
VERTEX
  8
0
 10
17.5129
 20
62.2443
 30
0.0
 40
0
 41
0
  0
VERTEX
  8
0
 10
17.5
 20
62.4361
 30
0.0
 40
0
 41
0
  0
VERTEX
  8
0
 10
17.5
 20
62.5
 30
0.0
 40
0
 41
0
  0
VERTEX
  8
0
 10
17.5
 20
62.5639
 30
0.0
 40
0
 41
0
  0
VERTEX
  8
0
 10
17.5129
 20
62.7556
 30
0.0
 40
0
 41
0
  0
VERTEX
  8
0
 10
17.5508
 20
63.0038
 30
0.0
 40
0
 41
0
  0
VERTEX
  8
0
 10
17.6124
 20
63.2433
 30
0.0
 40
0
 41
0
  0
VERTEX
  8
0
 10
17.6965
 20
63.4731
 30
0.0
 40
0
 41
0
  0
VERTEX
  8
0
 10
17.8018
 20
63.6917
 30
0.0
 40
0
 41
0
  0
VERTEX
  8
0
 10
17.9269
 20
63.8978
 30
0.0
 40
0
 41
0
  0
VERTEX
  8
0
 10
18.071
 20
64.0903
 30
0.0
 40
0
 41
0
  0
VERTEX
  8
0
 10
18.2322
 20
64.2678
 30
0.0
 40
0
 41
0
  0
VERTEX
  8
0
 10
18.4097
 20
64.429
 30
0.0
 40
0
 41
0
  0
VERTEX
  8
0
 10
18.6022
 20
64.5731
 30
0.0
 40
0
 41
0
  0
VERTEX
  8
0
 10
18.8083
 20
64.6982
 30
0.0
 40
0
 41
0
  0
VERTEX
  8
0
 10
19.0269
 20
64.8035
 30
0.0
 40
0
 41
0
  0
VERTEX
  8
0
 10
19.2565
 20
64.8876
 30
0.0
 40
0
 41
0
  0
VERTEX
  8
0
 10
19.4962
 20
64.9492
 30
0.0
 40
0
 41
0
  0
VERTEX
  8
0
 10
19.7444
 20
64.9871
 30
0.0
 40
0
 41
0
  0
VERTEX
  8
0
 10
19.9361
 20
65
 30
0.0
 40
0
 41
0
  0
VERTEX
  8
0
 10
20
 20
65
 30
0.0
 40
0
 41
0
  0
VERTEX
  8
0
 10
20.0639
 20
65
 30
0.0
 40
0
 41
0
  0
VERTEX
  8
0
 10
20.2557
 20
65.0129
 30
0.0
 40
0
 41
0
  0
VERTEX
  8
0
 10
20.5039
 20
65.0508
 30
0.0
 40
0
 41
0
  0
VERTEX
  8
0
 10
20.7435
 20
65.1124
 30
0.0
 40
0
 41
0
  0
VERTEX
  8
0
 10
20.9732
 20
65.1964
 30
0.0
 40
0
 41
0
  0
VERTEX
  8
0
 10
21.1917
 20
65.3017
 30
0.0
 40
0
 41
0
  0
VERTEX
  8
0
 10
21.3978
 20
65.4269
 30
0.0
 40
0
 41
0
  0
VERTEX
  8
0
 10
21.5903
 20
65.5708
 30
0.0
 40
0
 41
0
  0
VERTEX
  8
0
 10
21.7678
 20
65.7322
 30
0.0
 40
0
 41
0
  0
VERTEX
  8
0
 10
21.9292
 20
65.9097
 30
0.0
 40
0
 41
0
  0
VERTEX
  8
0
 10
22.0731
 20
66.1022
 30
0.0
 40
0
 41
0
  0
VERTEX
  8
0
 10
22.1983
 20
66.3083
 30
0.0
 40
0
 41
0
  0
VERTEX
  8
0
 10
22.3036
 20
66.5268
 30
0.0
 40
0
 41
0
  0
VERTEX
  8
0
 10
22.3876
 20
66.7565
 30
0.0
 40
0
 41
0
  0
VERTEX
  8
0
 10
22.4492
 20
66.9961
 30
0.0
 40
0
 41
0
  0
VERTEX
  8
0
 10
22.4871
 20
67.2443
 30
0.0
 40
0
 41
0
  0
VERTEX
  8
0
 10
22.5
 20
67.4361
 30
0.0
 40
0
 41
0
  0
VERTEX
  8
0
 10
22.5
 20
67.5
 30
0.0
 40
0
 41
0
  0
VERTEX
  8
0
 10
22.5
 20
67.5639
 30
0.0
 40
0
 41
0
  0
VERTEX
  8
0
 10
22.4871
 20
67.7556
 30
0.0
 40
0
 41
0
  0
VERTEX
  8
0
 10
22.4492
 20
68.0038
 30
0.0
 40
0
 41
0
  0
VERTEX
  8
0
 10
22.3876
 20
68.2433
 30
0.0
 40
0
 41
0
  0
VERTEX
  8
0
 10
22.3036
 20
68.4731
 30
0.0
 40
0
 41
0
  0
VERTEX
  8
0
 10
22.1983
 20
68.6917
 30
0.0
 40
0
 41
0
  0
VERTEX
  8
0
 10
22.0731
 20
68.8978
 30
0.0
 40
0
 41
0
  0
VERTEX
  8
0
 10
21.9292
 20
69.0903
 30
0.0
 40
0
 41
0
  0
VERTEX
  8
0
 10
21.7678
 20
69.2678
 30
0.0
 40
0
 41
0
  0
VERTEX
  8
0
 10
21.5903
 20
69.429
 30
0.0
 40
0
 41
0
  0
VERTEX
  8
0
 10
21.3978
 20
69.5731
 30
0.0
 40
0
 41
0
  0
VERTEX
  8
0
 10
21.1917
 20
69.6982
 30
0.0
 40
0
 41
0
  0
VERTEX
  8
0
 10
20.9732
 20
69.8035
 30
0.0
 40
0
 41
0
  0
VERTEX
  8
0
 10
20.7435
 20
69.8876
 30
0.0
 40
0
 41
0
  0
VERTEX
  8
0
 10
20.5039
 20
69.9492
 30
0.0
 40
0
 41
0
  0
VERTEX
  8
0
 10
20.2557
 20
69.9871
 30
0.0
 40
0
 41
0
  0
VERTEX
  8
0
 10
20.0639
 20
70
 30
0.0
 40
0
 41
0
  0
VERTEX
  8
0
 10
20
 20
70
 30
0.0
 40
0
 41
0
  0
VERTEX
  8
0
 10
19.9361
 20
70
 30
0.0
 40
0
 41
0
  0
VERTEX
  8
0
 10
19.7444
 20
70.0129
 30
0.0
 40
0
 41
0
  0
VERTEX
  8
0
 10
19.4962
 20
70.0508
 30
0.0
 40
0
 41
0
  0
VERTEX
  8
0
 10
19.2565
 20
70.1124
 30
0.0
 40
0
 41
0
  0
VERTEX
  8
0
 10
19.0269
 20
70.1964
 30
0.0
 40
0
 41
0
  0
VERTEX
  8
0
 10
18.8083
 20
70.3017
 30
0.0
 40
0
 41
0
  0
VERTEX
  8
0
 10
18.6022
 20
70.4269
 30
0.0
 40
0
 41
0
  0
VERTEX
  8
0
 10
18.4097
 20
70.5708
 30
0.0
 40
0
 41
0
  0
VERTEX
  8
0
 10
18.2322
 20
70.7322
 30
0.0
 40
0
 41
0
  0
VERTEX
  8
0
 10
18.071
 20
70.9097
 30
0.0
 40
0
 41
0
  0
VERTEX
  8
0
 10
17.9269
 20
71.1022
 30
0.0
 40
0
 41
0
  0
VERTEX
  8
0
 10
17.8018
 20
71.3083
 30
0.0
 40
0
 41
0
  0
VERTEX
  8
0
 10
17.6965
 20
71.5268
 30
0.0
 40
0
 41
0
  0
VERTEX
  8
0
 10
17.6124
 20
71.7565
 30
0.0
 40
0
 41
0
  0
VERTEX
  8
0
 10
17.5508
 20
71.9961
 30
0.0
 40
0
 41
0
  0
VERTEX
  8
0
 10
17.5129
 20
72.2443
 30
0.0
 40
0
 41
0
  0
VERTEX
  8
0
 10
17.5
 20
72.4361
 30
0.0
 40
0
 41
0
  0
VERTEX
  8
0
 10
17.5
 20
72.5
 30
0.0
 40
0
 41
0
  0
VERTEX
  8
0
 10
17.5
 20
72.5639
 30
0.0
 40
0
 41
0
  0
VERTEX
  8
0
 10
17.5129
 20
72.7556
 30
0.0
 40
0
 41
0
  0
VERTEX
  8
0
 10
17.5508
 20
73.0038
 30
0.0
 40
0
 41
0
  0
VERTEX
  8
0
 10
17.6124
 20
73.2433
 30
0.0
 40
0
 41
0
  0
VERTEX
  8
0
 10
17.6965
 20
73.4731
 30
0.0
 40
0
 41
0
  0
VERTEX
  8
0
 10
17.8018
 20
73.6917
 30
0.0
 40
0
 41
0
  0
VERTEX
  8
0
 10
17.9269
 20
73.8978
 30
0.0
 40
0
 41
0
  0
VERTEX
  8
0
 10
18.071
 20
74.0903
 30
0.0
 40
0
 41
0
  0
VERTEX
  8
0
 10
18.2322
 20
74.2678
 30
0.0
 40
0
 41
0
  0
VERTEX
  8
0
 10
18.4097
 20
74.429
 30
0.0
 40
0
 41
0
  0
VERTEX
  8
0
 10
18.6022
 20
74.5731
 30
0.0
 40
0
 41
0
  0
VERTEX
  8
0
 10
18.8083
 20
74.6982
 30
0.0
 40
0
 41
0
  0
VERTEX
  8
0
 10
19.0269
 20
74.8035
 30
0.0
 40
0
 41
0
  0
VERTEX
  8
0
 10
19.2565
 20
74.8876
 30
0.0
 40
0
 41
0
  0
VERTEX
  8
0
 10
19.4962
 20
74.9492
 30
0.0
 40
0
 41
0
  0
VERTEX
  8
0
 10
19.7444
 20
74.9871
 30
0.0
 40
0
 41
0
  0
VERTEX
  8
0
 10
19.9361
 20
75
 30
0.0
 40
0
 41
0
  0
VERTEX
  8
0
 10
20
 20
75
 30
0.0
 40
0
 41
0
  0
VERTEX
  8
0
 10
20.0639
 20
75
 30
0.0
 40
0
 41
0
  0
VERTEX
  8
0
 10
20.2557
 20
75.0129
 30
0.0
 40
0
 41
0
  0
VERTEX
  8
0
 10
20.5039
 20
75.0508
 30
0.0
 40
0
 41
0
  0
VERTEX
  8
0
 10
20.7435
 20
75.1124
 30
0.0
 40
0
 41
0
  0
VERTEX
  8
0
 10
20.9732
 20
75.1964
 30
0.0
 40
0
 41
0
  0
VERTEX
  8
0
 10
21.1917
 20
75.3017
 30
0.0
 40
0
 41
0
  0
VERTEX
  8
0
 10
21.3978
 20
75.4269
 30
0.0
 40
0
 41
0
  0
VERTEX
  8
0
 10
21.5903
 20
75.5708
 30
0.0
 40
0
 41
0
  0
VERTEX
  8
0
 10
21.7678
 20
75.7322
 30
0.0
 40
0
 41
0
  0
VERTEX
  8
0
 10
21.9292
 20
75.9097
 30
0.0
 40
0
 41
0
  0
VERTEX
  8
0
 10
22.0731
 20
76.1022
 30
0.0
 40
0
 41
0
  0
VERTEX
  8
0
 10
22.1983
 20
76.3083
 30
0.0
 40
0
 41
0
  0
VERTEX
  8
0
 10
22.3036
 20
76.5268
 30
0.0
 40
0
 41
0
  0
VERTEX
  8
0
 10
22.3876
 20
76.7565
 30
0.0
 40
0
 41
0
  0
VERTEX
  8
0
 10
22.4492
 20
76.9961
 30
0.0
 40
0
 41
0
  0
VERTEX
  8
0
 10
22.4871
 20
77.2443
 30
0.0
 40
0
 41
0
  0
VERTEX
  8
0
 10
22.5
 20
77.4361
 30
0.0
 40
0
 41
0
  0
VERTEX
  8
0
 10
22.5
 20
77.5
 30
0.0
 40
0
 41
0
  0
VERTEX
  8
0
 10
22.5
 20
77.5639
 30
0.0
 40
0
 41
0
  0
VERTEX
  8
0
 10
22.4871
 20
77.7556
 30
0.0
 40
0
 41
0
  0
VERTEX
  8
0
 10
22.4492
 20
78.0038
 30
0.0
 40
0
 41
0
  0
VERTEX
  8
0
 10
22.3876
 20
78.2433
 30
0.0
 40
0
 41
0
  0
VERTEX
  8
0
 10
22.3036
 20
78.4731
 30
0.0
 40
0
 41
0
  0
VERTEX
  8
0
 10
22.1983
 20
78.6917
 30
0.0
 40
0
 41
0
  0
VERTEX
  8
0
 10
22.0731
 20
78.8978
 30
0.0
 40
0
 41
0
  0
VERTEX
  8
0
 10
21.9292
 20
79.0903
 30
0.0
 40
0
 41
0
  0
VERTEX
  8
0
 10
21.7678
 20
79.2678
 30
0.0
 40
0
 41
0
  0
VERTEX
  8
0
 10
21.5903
 20
79.429
 30
0.0
 40
0
 41
0
  0
VERTEX
  8
0
 10
21.3978
 20
79.5731
 30
0.0
 40
0
 41
0
  0
VERTEX
  8
0
 10
21.1917
 20
79.6982
 30
0.0
 40
0
 41
0
  0
VERTEX
  8
0
 10
20.9732
 20
79.8035
 30
0.0
 40
0
 41
0
  0
VERTEX
  8
0
 10
20.7435
 20
79.8876
 30
0.0
 40
0
 41
0
  0
VERTEX
  8
0
 10
20.5039
 20
79.9492
 30
0.0
 40
0
 41
0
  0
VERTEX
  8
0
 10
20.2557
 20
79.9871
 30
0.0
 40
0
 41
0
  0
VERTEX
  8
0
 10
20.0639
 20
80
 30
0.0
 40
0
 41
0
  0
VERTEX
  8
0
 10
20
 20
80
 30
0.0
 40
0
 41
0
  0
VERTEX
  8
0
 10
19.9361
 20
80
 30
0.0
 40
0
 41
0
  0
VERTEX
  8
0
 10
19.7444
 20
80.0129
 30
0.0
 40
0
 41
0
  0
VERTEX
  8
0
 10
19.4962
 20
80.0508
 30
0.0
 40
0
 41
0
  0
VERTEX
  8
0
 10
19.2565
 20
80.1124
 30
0.0
 40
0
 41
0
  0
VERTEX
  8
0
 10
19.0269
 20
80.1964
 30
0.0
 40
0
 41
0
  0
VERTEX
  8
0
 10
18.8083
 20
80.3017
 30
0.0
 40
0
 41
0
  0
VERTEX
  8
0
 10
18.6022
 20
80.4269
 30
0.0
 40
0
 41
0
  0
VERTEX
  8
0
 10
18.4097
 20
80.5708
 30
0.0
 40
0
 41
0
  0
VERTEX
  8
0
 10
18.2322
 20
80.7322
 30
0.0
 40
0
 41
0
  0
VERTEX
  8
0
 10
18.071
 20
80.9097
 30
0.0
 40
0
 41
0
  0
VERTEX
  8
0
 10
17.9269
 20
81.1022
 30
0.0
 40
0
 41
0
  0
VERTEX
  8
0
 10
17.8018
 20
81.3083
 30
0.0
 40
0
 41
0
  0
VERTEX
  8
0
 10
17.6965
 20
81.5268
 30
0.0
 40
0
 41
0
  0
VERTEX
  8
0
 10
17.6124
 20
81.7565
 30
0.0
 40
0
 41
0
  0
VERTEX
  8
0
 10
17.5508
 20
81.9961
 30
0.0
 40
0
 41
0
  0
VERTEX
  8
0
 10
17.5129
 20
82.2443
 30
0.0
 40
0
 41
0
  0
VERTEX
  8
0
 10
17.5
 20
82.4361
 30
0.0
 40
0
 41
0
  0
VERTEX
  8
0
 10
17.5
 20
82.5
 30
0.0
 40
0
 41
0
  0
VERTEX
  8
0
 10
17.5
 20
82.5639
 30
0.0
 40
0
 41
0
  0
VERTEX
  8
0
 10
17.5129
 20
82.7556
 30
0.0
 40
0
 41
0
  0
VERTEX
  8
0
 10
17.5508
 20
83.0038
 30
0.0
 40
0
 41
0
  0
VERTEX
  8
0
 10
17.6124
 20
83.2435
 30
0.0
 40
0
 41
0
  0
VERTEX
  8
0
 10
17.6965
 20
83.4731
 30
0.0
 40
0
 41
0
  0
VERTEX
  8
0
 10
17.8018
 20
83.6917
 30
0.0
 40
0
 41
0
  0
VERTEX
  8
0
 10
17.9269
 20
83.8978
 30
0.0
 40
0
 41
0
  0
VERTEX
  8
0
 10
18.071
 20
84.0903
 30
0.0
 40
0
 41
0
  0
VERTEX
  8
0
 10
18.2322
 20
84.2678
 30
0.0
 40
0
 41
0
  0
VERTEX
  8
0
 10
18.4097
 20
84.429
 30
0.0
 40
0
 41
0
  0
VERTEX
  8
0
 10
18.6022
 20
84.5731
 30
0.0
 40
0
 41
0
  0
VERTEX
  8
0
 10
18.8083
 20
84.6982
 30
0.0
 40
0
 41
0
  0
VERTEX
  8
0
 10
19.0269
 20
84.8035
 30
0.0
 40
0
 41
0
  0
VERTEX
  8
0
 10
19.2565
 20
84.8876
 30
0.0
 40
0
 41
0
  0
VERTEX
  8
0
 10
19.4962
 20
84.9492
 30
0.0
 40
0
 41
0
  0
VERTEX
  8
0
 10
19.7444
 20
84.9871
 30
0.0
 40
0
 41
0
  0
VERTEX
  8
0
 10
19.9361
 20
85
 30
0.0
 40
0
 41
0
  0
VERTEX
  8
0
 10
20
 20
85
 30
0.0
 40
0
 41
0
  0
VERTEX
  8
0
 10
20.0639
 20
85
 30
0.0
 40
0
 41
0
  0
VERTEX
  8
0
 10
20.2557
 20
85.0129
 30
0.0
 40
0
 41
0
  0
VERTEX
  8
0
 10
20.5039
 20
85.0508
 30
0.0
 40
0
 41
0
  0
VERTEX
  8
0
 10
20.7435
 20
85.1124
 30
0.0
 40
0
 41
0
  0
VERTEX
  8
0
 10
20.9732
 20
85.1964
 30
0.0
 40
0
 41
0
  0
VERTEX
  8
0
 10
21.1917
 20
85.3017
 30
0.0
 40
0
 41
0
  0
VERTEX
  8
0
 10
21.3978
 20
85.4269
 30
0.0
 40
0
 41
0
  0
VERTEX
  8
0
 10
21.5903
 20
85.5708
 30
0.0
 40
0
 41
0
  0
VERTEX
  8
0
 10
21.7678
 20
85.7322
 30
0.0
 40
0
 41
0
  0
VERTEX
  8
0
 10
21.9292
 20
85.9097
 30
0.0
 40
0
 41
0
  0
VERTEX
  8
0
 10
22.0731
 20
86.1022
 30
0.0
 40
0
 41
0
  0
VERTEX
  8
0
 10
22.1983
 20
86.3083
 30
0.0
 40
0
 41
0
  0
VERTEX
  8
0
 10
22.3036
 20
86.5268
 30
0.0
 40
0
 41
0
  0
VERTEX
  8
0
 10
22.3876
 20
86.7565
 30
0.0
 40
0
 41
0
  0
VERTEX
  8
0
 10
22.4492
 20
86.9961
 30
0.0
 40
0
 41
0
  0
VERTEX
  8
0
 10
22.4871
 20
87.2443
 30
0.0
 40
0
 41
0
  0
VERTEX
  8
0
 10
22.5
 20
87.4361
 30
0.0
 40
0
 41
0
  0
VERTEX
  8
0
 10
22.5
 20
87.5
 30
0.0
 40
0
 41
0
  0
VERTEX
  8
0
 10
22.5
 20
87.5639
 30
0.0
 40
0
 41
0
  0
VERTEX
  8
0
 10
22.4871
 20
87.7556
 30
0.0
 40
0
 41
0
  0
VERTEX
  8
0
 10
22.4492
 20
88.0038
 30
0.0
 40
0
 41
0
  0
VERTEX
  8
0
 10
22.3876
 20
88.2435
 30
0.0
 40
0
 41
0
  0
VERTEX
  8
0
 10
22.3036
 20
88.4731
 30
0.0
 40
0
 41
0
  0
VERTEX
  8
0
 10
22.1983
 20
88.6917
 30
0.0
 40
0
 41
0
  0
VERTEX
  8
0
 10
22.0731
 20
88.8978
 30
0.0
 40
0
 41
0
  0
VERTEX
  8
0
 10
21.9292
 20
89.0903
 30
0.0
 40
0
 41
0
  0
VERTEX
  8
0
 10
21.7678
 20
89.2678
 30
0.0
 40
0
 41
0
  0
VERTEX
  8
0
 10
21.5903
 20
89.429
 30
0.0
 40
0
 41
0
  0
VERTEX
  8
0
 10
21.3978
 20
89.5731
 30
0.0
 40
0
 41
0
  0
VERTEX
  8
0
 10
21.1917
 20
89.6982
 30
0.0
 40
0
 41
0
  0
VERTEX
  8
0
 10
20.9732
 20
89.8035
 30
0.0
 40
0
 41
0
  0
VERTEX
  8
0
 10
20.7435
 20
89.8876
 30
0.0
 40
0
 41
0
  0
VERTEX
  8
0
 10
20.5039
 20
89.9492
 30
0.0
 40
0
 41
0
  0
VERTEX
  8
0
 10
20.2557
 20
89.9871
 30
0.0
 40
0
 41
0
  0
VERTEX
  8
0
 10
20.0639
 20
90
 30
0.0
 40
0
 41
0
  0
VERTEX
  8
0
 10
20
 20
90
 30
0.0
 40
0
 41
0
  0
VERTEX
  8
0
 10
19.9361
 20
90
 30
0.0
 40
0
 41
0
  0
VERTEX
  8
0
 10
19.7444
 20
90.0129
 30
0.0
 40
0
 41
0
  0
VERTEX
  8
0
 10
19.4962
 20
90.0508
 30
0.0
 40
0
 41
0
  0
VERTEX
  8
0
 10
19.2565
 20
90.1124
 30
0.0
 40
0
 41
0
  0
VERTEX
  8
0
 10
19.0269
 20
90.1964
 30
0.0
 40
0
 41
0
  0
VERTEX
  8
0
 10
18.8083
 20
90.3017
 30
0.0
 40
0
 41
0
  0
VERTEX
  8
0
 10
18.6022
 20
90.4269
 30
0.0
 40
0
 41
0
  0
VERTEX
  8
0
 10
18.4097
 20
90.5708
 30
0.0
 40
0
 41
0
  0
VERTEX
  8
0
 10
18.2322
 20
90.7322
 30
0.0
 40
0
 41
0
  0
VERTEX
  8
0
 10
18.071
 20
90.9097
 30
0.0
 40
0
 41
0
  0
VERTEX
  8
0
 10
17.9269
 20
91.1022
 30
0.0
 40
0
 41
0
  0
VERTEX
  8
0
 10
17.8018
 20
91.3083
 30
0.0
 40
0
 41
0
  0
VERTEX
  8
0
 10
17.6965
 20
91.5268
 30
0.0
 40
0
 41
0
  0
VERTEX
  8
0
 10
17.6124
 20
91.7565
 30
0.0
 40
0
 41
0
  0
VERTEX
  8
0
 10
17.5508
 20
91.9961
 30
0.0
 40
0
 41
0
  0
VERTEX
  8
0
 10
17.5129
 20
92.2443
 30
0.0
 40
0
 41
0
  0
VERTEX
  8
0
 10
17.5
 20
92.4361
 30
0.0
 40
0
 41
0
  0
VERTEX
  8
0
 10
17.5
 20
92.5
 30
0.0
 40
0
 41
0
  0
VERTEX
  8
0
 10
17.5
 20
92.5639
 30
0.0
 40
0
 41
0
  0
VERTEX
  8
0
 10
17.5129
 20
92.7556
 30
0.0
 40
0
 41
0
  0
VERTEX
  8
0
 10
17.5508
 20
93.0038
 30
0.0
 40
0
 41
0
  0
VERTEX
  8
0
 10
17.6124
 20
93.2435
 30
0.0
 40
0
 41
0
  0
VERTEX
  8
0
 10
17.6965
 20
93.4731
 30
0.0
 40
0
 41
0
  0
VERTEX
  8
0
 10
17.8018
 20
93.6917
 30
0.0
 40
0
 41
0
  0
VERTEX
  8
0
 10
17.9269
 20
93.8978
 30
0.0
 40
0
 41
0
  0
VERTEX
  8
0
 10
18.071
 20
94.0903
 30
0.0
 40
0
 41
0
  0
VERTEX
  8
0
 10
18.2322
 20
94.2678
 30
0.0
 40
0
 41
0
  0
VERTEX
  8
0
 10
18.4097
 20
94.4292
 30
0.0
 40
0
 41
0
  0
VERTEX
  8
0
 10
18.6022
 20
94.5731
 30
0.0
 40
0
 41
0
  0
VERTEX
  8
0
 10
18.8083
 20
94.6983
 30
0.0
 40
0
 41
0
  0
VERTEX
  8
0
 10
19.0269
 20
94.8036
 30
0.0
 40
0
 41
0
  0
VERTEX
  8
0
 10
19.2565
 20
94.8876
 30
0.0
 40
0
 41
0
  0
VERTEX
  8
0
 10
19.4962
 20
94.9492
 30
0.0
 40
0
 41
0
  0
VERTEX
  8
0
 10
19.7444
 20
94.9871
 30
0.0
 40
0
 41
0
  0
VERTEX
  8
0
 10
19.9361
 20
95
 30
0.0
 40
0
 41
0
  0
VERTEX
  8
0
 10
20
 20
95
 30
0.0
 40
0
 41
0
  0
VERTEX
  8
0
 10
20.0639
 20
95
 30
0.0
 40
0
 41
0
  0
VERTEX
  8
0
 10
20.2557
 20
95.0129
 30
0.0
 40
0
 41
0
  0
VERTEX
  8
0
 10
20.5039
 20
95.0508
 30
0.0
 40
0
 41
0
  0
VERTEX
  8
0
 10
20.7435
 20
95.1124
 30
0.0
 40
0
 41
0
  0
VERTEX
  8
0
 10
20.9732
 20
95.1965
 30
0.0
 40
0
 41
0
  0
VERTEX
  8
0
 10
21.1917
 20
95.3018
 30
0.0
 40
0
 41
0
  0
VERTEX
  8
0
 10
21.3978
 20
95.4269
 30
0.0
 40
0
 41
0
  0
VERTEX
  8
0
 10
21.5903
 20
95.571
 30
0.0
 40
0
 41
0
  0
VERTEX
  8
0
 10
21.7678
 20
95.7322
 30
0.0
 40
0
 41
0
  0
VERTEX
  8
0
 10
21.9292
 20
95.9097
 30
0.0
 40
0
 41
0
  0
VERTEX
  8
0
 10
22.0731
 20
96.1022
 30
0.0
 40
0
 41
0
  0
VERTEX
  8
0
 10
22.1983
 20
96.3083
 30
0.0
 40
0
 41
0
  0
VERTEX
  8
0
 10
22.3036
 20
96.5269
 30
0.0
 40
0
 41
0
  0
VERTEX
  8
0
 10
22.3876
 20
96.7565
 30
0.0
 40
0
 41
0
  0
VERTEX
  8
0
 10
22.4492
 20
96.9963
 30
0.0
 40
0
 41
0
  0
VERTEX
  8
0
 10
22.4871
 20
97.2444
 30
0.0
 40
0
 41
0
  0
VERTEX
  8
0
 10
22.5
 20
97.4361
 30
0.0
 40
0
 41
0
  0
VERTEX
  8
0
 10
22.5
 20
97.5
 30
0.0
 40
0
 41
0
  0
VERTEX
  8
0
 10
22.5
 20
97.5639
 30
0.0
 40
0
 41
0
  0
VERTEX
  8
0
 10
22.4871
 20
97.7557
 30
0.0
 40
0
 41
0
  0
VERTEX
  8
0
 10
22.4492
 20
98.0039
 30
0.0
 40
0
 41
0
  0
VERTEX
  8
0
 10
22.3876
 20
98.2435
 30
0.0
 40
0
 41
0
  0
VERTEX
  8
0
 10
22.3036
 20
98.4732
 30
0.0
 40
0
 41
0
  0
VERTEX
  8
0
 10
22.1983
 20
98.6917
 30
0.0
 40
0
 41
0
  0
VERTEX
  8
0
 10
22.0731
 20
98.8978
 30
0.0
 40
0
 41
0
  0
VERTEX
  8
0
 10
21.9292
 20
99.0903
 30
0.0
 40
0
 41
0
  0
VERTEX
  8
0
 10
21.7678
 20
99.2678
 30
0.0
 40
0
 41
0
  0
VERTEX
  8
0
 10
21.5903
 20
99.4292
 30
0.0
 40
0
 41
0
  0
VERTEX
  8
0
 10
21.3978
 20
99.5731
 30
0.0
 40
0
 41
0
  0
VERTEX
  8
0
 10
21.1917
 20
99.6983
 30
0.0
 40
0
 41
0
  0
VERTEX
  8
0
 10
20.9732
 20
99.8036
 30
0.0
 40
0
 41
0
  0
VERTEX
  8
0
 10
20.7435
 20
99.8876
 30
0.0
 40
0
 41
0
  0
VERTEX
  8
0
 10
20.5039
 20
99.9492
 30
0.0
 40
0
 41
0
  0
VERTEX
  8
0
 10
20.2557
 20
99.9871
 30
0.0
 40
0
 41
0
  0
VERTEX
  8
0
 10
20.0639
 20
100
 30
0.0
 40
0
 41
0
  0
VERTEX
  8
0
 10
20
 20
100
 30
0.0
 40
0
 41
0
  0
VERTEX
  8
0
 10
19.9361
 20
100
 30
0.0
 40
0
 41
0
  0
VERTEX
  8
0
 10
19.7444
 20
100.013
 30
0.0
 40
0
 41
0
  0
VERTEX
  8
0
 10
19.4962
 20
100.051
 30
0.0
 40
0
 41
0
  0
VERTEX
  8
0
 10
19.2565
 20
100.112
 30
0.0
 40
0
 41
0
  0
VERTEX
  8
0
 10
19.0269
 20
100.197
 30
0.0
 40
0
 41
0
  0
VERTEX
  8
0
 10
18.8083
 20
100.302
 30
0.0
 40
0
 41
0
  0
VERTEX
  8
0
 10
18.6022
 20
100.427
 30
0.0
 40
0
 41
0
  0
VERTEX
  8
0
 10
18.4097
 20
100.571
 30
0.0
 40
0
 41
0
  0
VERTEX
  8
0
 10
18.2322
 20
100.732
 30
0.0
 40
0
 41
0
  0
VERTEX
  8
0
 10
18.071
 20
100.91
 30
0.0
 40
0
 41
0
  0
VERTEX
  8
0
 10
17.9269
 20
101.102
 30
0.0
 40
0
 41
0
  0
VERTEX
  8
0
 10
17.8018
 20
101.308
 30
0.0
 40
0
 41
0
  0
VERTEX
  8
0
 10
17.6965
 20
101.527
 30
0.0
 40
0
 41
0
  0
VERTEX
  8
0
 10
17.6124
 20
101.757
 30
0.0
 40
0
 41
0
  0
VERTEX
  8
0
 10
17.5508
 20
101.996
 30
0.0
 40
0
 41
0
  0
VERTEX
  8
0
 10
17.5129
 20
102.244
 30
0.0
 40
0
 41
0
  0
VERTEX
  8
0
 10
17.5
 20
102.436
 30
0.0
 40
0
 41
0
  0
VERTEX
  8
0
 10
17.5
 20
102.5
 30
0.0
 40
0
 41
0
  0
VERTEX
  8
0
 10
17.5
 20
102.564
 30
0.0
 40
0
 41
0
  0
VERTEX
  8
0
 10
17.5129
 20
102.756
 30
0.0
 40
0
 41
0
  0
VERTEX
  8
0
 10
17.5508
 20
103.004
 30
0.0
 40
0
 41
0
  0
VERTEX
  8
0
 10
17.6124
 20
103.243
 30
0.0
 40
0
 41
0
  0
VERTEX
  8
0
 10
17.6965
 20
103.473
 30
0.0
 40
0
 41
0
  0
VERTEX
  8
0
 10
17.8018
 20
103.692
 30
0.0
 40
0
 41
0
  0
VERTEX
  8
0
 10
17.9269
 20
103.898
 30
0.0
 40
0
 41
0
  0
VERTEX
  8
0
 10
18.071
 20
104.09
 30
0.0
 40
0
 41
0
  0
VERTEX
  8
0
 10
18.2322
 20
104.268
 30
0.0
 40
0
 41
0
  0
VERTEX
  8
0
 10
18.4097
 20
104.429
 30
0.0
 40
0
 41
0
  0
VERTEX
  8
0
 10
18.6022
 20
104.573
 30
0.0
 40
0
 41
0
  0
VERTEX
  8
0
 10
18.8083
 20
104.698
 30
0.0
 40
0
 41
0
  0
VERTEX
  8
0
 10
19.0269
 20
104.804
 30
0.0
 40
0
 41
0
  0
VERTEX
  8
0
 10
19.2565
 20
104.888
 30
0.0
 40
0
 41
0
  0
VERTEX
  8
0
 10
19.4962
 20
104.949
 30
0.0
 40
0
 41
0
  0
VERTEX
  8
0
 10
19.7444
 20
104.987
 30
0.0
 40
0
 41
0
  0
VERTEX
  8
0
 10
19.9361
 20
105
 30
0.0
 40
0
 41
0
  0
VERTEX
  8
0
 10
20
 20
105
 30
0.0
 40
0
 41
0
  0
VERTEX
  8
0
 10
20.0639
 20
105
 30
0.0
 40
0
 41
0
  0
VERTEX
  8
0
 10
20.2557
 20
105.013
 30
0.0
 40
0
 41
0
  0
VERTEX
  8
0
 10
20.5039
 20
105.051
 30
0.0
 40
0
 41
0
  0
VERTEX
  8
0
 10
20.7435
 20
105.112
 30
0.0
 40
0
 41
0
  0
VERTEX
  8
0
 10
20.9732
 20
105.197
 30
0.0
 40
0
 41
0
  0
VERTEX
  8
0
 10
21.1917
 20
105.302
 30
0.0
 40
0
 41
0
  0
VERTEX
  8
0
 10
21.3978
 20
105.427
 30
0.0
 40
0
 41
0
  0
VERTEX
  8
0
 10
21.5903
 20
105.571
 30
0.0
 40
0
 41
0
  0
VERTEX
  8
0
 10
21.7678
 20
105.732
 30
0.0
 40
0
 41
0
  0
VERTEX
  8
0
 10
21.9292
 20
105.91
 30
0.0
 40
0
 41
0
  0
VERTEX
  8
0
 10
22.0731
 20
106.102
 30
0.0
 40
0
 41
0
  0
VERTEX
  8
0
 10
22.1983
 20
106.308
 30
0.0
 40
0
 41
0
  0
VERTEX
  8
0
 10
22.3036
 20
106.527
 30
0.0
 40
0
 41
0
  0
VERTEX
  8
0
 10
22.3876
 20
106.757
 30
0.0
 40
0
 41
0
  0
VERTEX
  8
0
 10
22.4492
 20
106.996
 30
0.0
 40
0
 41
0
  0
VERTEX
  8
0
 10
22.4871
 20
107.244
 30
0.0
 40
0
 41
0
  0
VERTEX
  8
0
 10
22.5
 20
107.436
 30
0.0
 40
0
 41
0
  0
VERTEX
  8
0
 10
22.5
 20
107.5
 30
0.0
 40
0
 41
0
  0
VERTEX
  8
0
 10
22.5
 20
107.564
 30
0.0
 40
0
 41
0
  0
VERTEX
  8
0
 10
22.4871
 20
107.756
 30
0.0
 40
0
 41
0
  0
VERTEX
  8
0
 10
22.4492
 20
108.004
 30
0.0
 40
0
 41
0
  0
VERTEX
  8
0
 10
22.3876
 20
108.243
 30
0.0
 40
0
 41
0
  0
VERTEX
  8
0
 10
22.3036
 20
108.473
 30
0.0
 40
0
 41
0
  0
VERTEX
  8
0
 10
22.1983
 20
108.692
 30
0.0
 40
0
 41
0
  0
VERTEX
  8
0
 10
22.0731
 20
108.898
 30
0.0
 40
0
 41
0
  0
VERTEX
  8
0
 10
21.9292
 20
109.09
 30
0.0
 40
0
 41
0
  0
VERTEX
  8
0
 10
21.7678
 20
109.268
 30
0.0
 40
0
 41
0
  0
VERTEX
  8
0
 10
21.5903
 20
109.429
 30
0.0
 40
0
 41
0
  0
VERTEX
  8
0
 10
21.3978
 20
109.573
 30
0.0
 40
0
 41
0
  0
VERTEX
  8
0
 10
21.1917
 20
109.698
 30
0.0
 40
0
 41
0
  0
VERTEX
  8
0
 10
20.9732
 20
109.804
 30
0.0
 40
0
 41
0
  0
VERTEX
  8
0
 10
20.7435
 20
109.888
 30
0.0
 40
0
 41
0
  0
VERTEX
  8
0
 10
20.5039
 20
109.949
 30
0.0
 40
0
 41
0
  0
VERTEX
  8
0
 10
20.2557
 20
109.987
 30
0.0
 40
0
 41
0
  0
VERTEX
  8
0
 10
20.0639
 20
110
 30
0.0
 40
0
 41
0
  0
VERTEX
  8
0
 10
20
 20
110
 30
0.0
 40
0
 41
0
  0
VERTEX
  8
0
 10
0
 20
110
 30
0.0
 40
0
 41
0
  0
SEQEND
 8
0
  0
POLYLINE
  8
0
 62
     0
 66
     1
 10
0
 20
0
 30
0.0
 70
     1
 40
0
 41
0
  0
VERTEX
  8
0
 10
41.2731
 20
0.00824653
 30
0.0
 40
0
 41
0
  0
VERTEX
  8
0
 10
41.2731
 20
105.008
 30
0.0
 40
0
 41
0
  0
VERTEX
  8
0
 10
21.2731
 20
105.008
 30
0.0
 40
0
 41
0
  0
VERTEX
  8
0
 10
21.2092
 20
105.008
 30
0.0
 40
0
 41
0
  0
VERTEX
  8
0
 10
21.0174
 20
104.996
 30
0.0
 40
0
 41
0
  0
VERTEX
  8
0
 10
20.7692
 20
104.958
 30
0.0
 40
0
 41
0
  0
VERTEX
  8
0
 10
20.5296
 20
104.896
 30
0.0
 40
0
 41
0
  0
VERTEX
  8
0
 10
20.2999
 20
104.812
 30
0.0
 40
0
 41
0
  0
VERTEX
  8
0
 10
20.0814
 20
104.707
 30
0.0
 40
0
 41
0
  0
VERTEX
  8
0
 10
19.8753
 20
104.582
 30
0.0
 40
0
 41
0
  0
VERTEX
  8
0
 10
19.6828
 20
104.438
 30
0.0
 40
0
 41
0
  0
VERTEX
  8
0
 10
19.5053
 20
104.276
 30
0.0
 40
0
 41
0
  0
VERTEX
  8
0
 10
19.3439
 20
104.099
 30
0.0
 40
0
 41
0
  0
VERTEX
  8
0
 10
19.2
 20
103.906
 30
0.0
 40
0
 41
0
  0
VERTEX
  8
0
 10
19.0747
 20
103.7
 30
0.0
 40
0
 41
0
  0
VERTEX
  8
0
 10
18.9694
 20
103.482
 30
0.0
 40
0
 41
0
  0
VERTEX
  8
0
 10
18.8854
 20
103.252
 30
0.0
 40
0
 41
0
  0
VERTEX
  8
0
 10
18.8239
 20
103.012
 30
0.0
 40
0
 41
0
  0
VERTEX
  8
0
 10
18.786
 20
102.764
 30
0.0
 40
0
 41
0
  0
VERTEX
  8
0
 10
18.7731
 20
102.572
 30
0.0
 40
0
 41
0
  0
VERTEX
  8
0
 10
18.7731
 20
102.508
 30
0.0
 40
0
 41
0
  0
VERTEX
  8
0
 10
18.7731
 20
102.445
 30
0.0
 40
0
 41
0
  0
VERTEX
  8
0
 10
18.786
 20
102.253
 30
0.0
 40
0
 41
0
  0
VERTEX
  8
0
 10
18.8239
 20
102.005
 30
0.0
 40
0
 41
0
  0
VERTEX
  8
0
 10
18.8854
 20
101.765
 30
0.0
 40
0
 41
0
  0
VERTEX
  8
0
 10
18.9694
 20
101.535
 30
0.0
 40
0
 41
0
  0
VERTEX
  8
0
 10
19.0747
 20
101.317
 30
0.0
 40
0
 41
0
  0
VERTEX
  8
0
 10
19.2
 20
101.111
 30
0.0
 40
0
 41
0
  0
VERTEX
  8
0
 10
19.3439
 20
100.918
 30
0.0
 40
0
 41
0
  0
VERTEX
  8
0
 10
19.5053
 20
100.741
 30
0.0
 40
0
 41
0
  0
VERTEX
  8
0
 10
19.6828
 20
100.579
 30
0.0
 40
0
 41
0
  0
VERTEX
  8
0
 10
19.8753
 20
100.435
 30
0.0
 40
0
 41
0
  0
VERTEX
  8
0
 10
20.0814
 20
100.31
 30
0.0
 40
0
 41
0
  0
VERTEX
  8
0
 10
20.2999
 20
100.205
 30
0.0
 40
0
 41
0
  0
VERTEX
  8
0
 10
20.5296
 20
100.121
 30
0.0
 40
0
 41
0
  0
VERTEX
  8
0
 10
20.7692
 20
100.059
 30
0.0
 40
0
 41
0
  0
VERTEX
  8
0
 10
21.0174
 20
100.021
 30
0.0
 40
0
 41
0
  0
VERTEX
  8
0
 10
21.2092
 20
100.008
 30
0.0
 40
0
 41
0
  0
VERTEX
  8
0
 10
21.2731
 20
100.008
 30
0.0
 40
0
 41
0
  0
VERTEX
  8
0
 10
21.3369
 20
100.008
 30
0.0
 40
0
 41
0
  0
VERTEX
  8
0
 10
21.5286
 20
99.9956
 30
0.0
 40
0
 41
0
  0
VERTEX
  8
0
 10
21.7768
 20
99.9576
 30
0.0
 40
0
 41
0
  0
VERTEX
  8
0
 10
22.0164
 20
99.8961
 30
0.0
 40
0
 41
0
  0
VERTEX
  8
0
 10
22.2461
 20
99.8119
 30
0.0
 40
0
 41
0
  0
VERTEX
  8
0
 10
22.4647
 20
99.7067
 30
0.0
 40
0
 41
0
  0
VERTEX
  8
0
 10
22.6708
 20
99.5815
 30
0.0
 40
0
 41
0
  0
VERTEX
  8
0
 10
22.8633
 20
99.4375
 30
0.0
 40
0
 41
0
  0
VERTEX
  8
0
 10
23.0408
 20
99.2763
 30
0.0
 40
0
 41
0
  0
VERTEX
  8
0
 10
23.2021
 20
99.0987
 30
0.0
 40
0
 41
0
  0
VERTEX
  8
0
 10
23.3461
 20
98.9063
 30
0.0
 40
0
 41
0
  0
VERTEX
  8
0
 10
23.4713
 20
98.7001
 30
0.0
 40
0
 41
0
  0
VERTEX
  8
0
 10
23.5765
 20
98.4815
 30
0.0
 40
0
 41
0
  0
VERTEX
  8
0
 10
23.6607
 20
98.2518
 30
0.0
 40
0
 41
0
  0
VERTEX
  8
0
 10
23.7222
 20
98.0122
 30
0.0
 40
0
 41
0
  0
VERTEX
  8
0
 10
23.7601
 20
97.764
 30
0.0
 40
0
 41
0
  0
VERTEX
  8
0
 10
23.7731
 20
97.5724
 30
0.0
 40
0
 41
0
  0
VERTEX
  8
0
 10
23.7731
 20
97.5085
 30
0.0
 40
0
 41
0
  0
VERTEX
  8
0
 10
23.7731
 20
97.4446
 30
0.0
 40
0
 41
0
  0
VERTEX
  8
0
 10
23.7601
 20
97.2528
 30
0.0
 40
0
 41
0
  0
VERTEX
  8
0
 10
23.7222
 20
97.0046
 30
0.0
 40
0
 41
0
  0
VERTEX
  8
0
 10
23.6607
 20
96.765
 30
0.0
 40
0
 41
0
  0
VERTEX
  8
0
 10
23.5765
 20
96.5353
 30
0.0
 40
0
 41
0
  0
VERTEX
  8
0
 10
23.4713
 20
96.3168
 30
0.0
 40
0
 41
0
  0
VERTEX
  8
0
 10
23.3461
 20
96.1106
 30
0.0
 40
0
 41
0
  0
VERTEX
  8
0
 10
23.2021
 20
95.9182
 30
0.0
 40
0
 41
0
  0
VERTEX
  8
0
 10
23.0408
 20
95.7407
 30
0.0
 40
0
 41
0
  0
VERTEX
  8
0
 10
22.8633
 20
95.5793
 30
0.0
 40
0
 41
0
  0
VERTEX
  8
0
 10
22.6708
 20
95.4354
 30
0.0
 40
0
 41
0
  0
VERTEX
  8
0
 10
22.4647
 20
95.3101
 30
0.0
 40
0
 41
0
  0
VERTEX
  8
0
 10
22.2461
 20
95.2049
 30
0.0
 40
0
 41
0
  0
VERTEX
  8
0
 10
22.0164
 20
95.1208
 30
0.0
 40
0
 41
0
  0
VERTEX
  8
0
 10
21.7768
 20
95.0593
 30
0.0
 40
0
 41
0
  0
VERTEX
  8
0
 10
21.5286
 20
95.0214
 30
0.0
 40
0
 41
0
  0
VERTEX
  8
0
 10
21.3369
 20
95.0085
 30
0.0
 40
0
 41
0
  0
VERTEX
  8
0
 10
21.2731
 20
95.0085
 30
0.0
 40
0
 41
0
  0
VERTEX
  8
0
 10
21.2092
 20
95.0085
 30
0.0
 40
0
 41
0
  0
VERTEX
  8
0
 10
21.0174
 20
94.9956
 30
0.0
 40
0
 41
0
  0
VERTEX
  8
0
 10
20.7692
 20
94.9576
 30
0.0
 40
0
 41
0
  0
VERTEX
  8
0
 10
20.5296
 20
94.8961
 30
0.0
 40
0
 41
0
  0
VERTEX
  8
0
 10
20.2999
 20
94.8119
 30
0.0
 40
0
 41
0
  0
VERTEX
  8
0
 10
20.0814
 20
94.7067
 30
0.0
 40
0
 41
0
  0
VERTEX
  8
0
 10
19.8753
 20
94.5815
 30
0.0
 40
0
 41
0
  0
VERTEX
  8
0
 10
19.6828
 20
94.4375
 30
0.0
 40
0
 41
0
  0
VERTEX
  8
0
 10
19.5053
 20
94.2763
 30
0.0
 40
0
 41
0
  0
VERTEX
  8
0
 10
19.3439
 20
94.0987
 30
0.0
 40
0
 41
0
  0
VERTEX
  8
0
 10
19.2
 20
93.9063
 30
0.0
 40
0
 41
0
  0
VERTEX
  8
0
 10
19.0747
 20
93.7001
 30
0.0
 40
0
 41
0
  0
VERTEX
  8
0
 10
18.9694
 20
93.4815
 30
0.0
 40
0
 41
0
  0
VERTEX
  8
0
 10
18.8854
 20
93.2518
 30
0.0
 40
0
 41
0
  0
VERTEX
  8
0
 10
18.8239
 20
93.0122
 30
0.0
 40
0
 41
0
  0
VERTEX
  8
0
 10
18.786
 20
92.764
 30
0.0
 40
0
 41
0
  0
VERTEX
  8
0
 10
18.7731
 20
92.5724
 30
0.0
 40
0
 41
0
  0
VERTEX
  8
0
 10
18.7731
 20
92.5085
 30
0.0
 40
0
 41
0
  0
VERTEX
  8
0
 10
18.7731
 20
92.4446
 30
0.0
 40
0
 41
0
  0
VERTEX
  8
0
 10
18.786
 20
92.2528
 30
0.0
 40
0
 41
0
  0
VERTEX
  8
0
 10
18.8239
 20
92.0046
 30
0.0
 40
0
 41
0
  0
VERTEX
  8
0
 10
18.8854
 20
91.765
 30
0.0
 40
0
 41
0
  0
VERTEX
  8
0
 10
18.9694
 20
91.5353
 30
0.0
 40
0
 41
0
  0
VERTEX
  8
0
 10
19.0747
 20
91.3168
 30
0.0
 40
0
 41
0
  0
VERTEX
  8
0
 10
19.2
 20
91.1106
 30
0.0
 40
0
 41
0
  0
VERTEX
  8
0
 10
19.3439
 20
90.9182
 30
0.0
 40
0
 41
0
  0
VERTEX
  8
0
 10
19.5053
 20
90.7407
 30
0.0
 40
0
 41
0
  0
VERTEX
  8
0
 10
19.6828
 20
90.5793
 30
0.0
 40
0
 41
0
  0
VERTEX
  8
0
 10
19.8753
 20
90.4354
 30
0.0
 40
0
 41
0
  0
VERTEX
  8
0
 10
20.0814
 20
90.3101
 30
0.0
 40
0
 41
0
  0
VERTEX
  8
0
 10
20.2999
 20
90.2049
 30
0.0
 40
0
 41
0
  0
VERTEX
  8
0
 10
20.5296
 20
90.1208
 30
0.0
 40
0
 41
0
  0
VERTEX
  8
0
 10
20.7692
 20
90.0593
 30
0.0
 40
0
 41
0
  0
VERTEX
  8
0
 10
21.0174
 20
90.0214
 30
0.0
 40
0
 41
0
  0
VERTEX
  8
0
 10
21.2092
 20
90.0085
 30
0.0
 40
0
 41
0
  0
VERTEX
  8
0
 10
21.2731
 20
90.0085
 30
0.0
 40
0
 41
0
  0
VERTEX
  8
0
 10
21.3369
 20
90.0085
 30
0.0
 40
0
 41
0
  0
VERTEX
  8
0
 10
21.5286
 20
89.9956
 30
0.0
 40
0
 41
0
  0
VERTEX
  8
0
 10
21.7768
 20
89.9576
 30
0.0
 40
0
 41
0
  0
VERTEX
  8
0
 10
22.0164
 20
89.8961
 30
0.0
 40
0
 41
0
  0
VERTEX
  8
0
 10
22.2461
 20
89.8119
 30
0.0
 40
0
 41
0
  0
VERTEX
  8
0
 10
22.4647
 20
89.7067
 30
0.0
 40
0
 41
0
  0
VERTEX
  8
0
 10
22.6708
 20
89.5815
 30
0.0
 40
0
 41
0
  0
VERTEX
  8
0
 10
22.8633
 20
89.4375
 30
0.0
 40
0
 41
0
  0
VERTEX
  8
0
 10
23.0408
 20
89.2763
 30
0.0
 40
0
 41
0
  0
VERTEX
  8
0
 10
23.2021
 20
89.0987
 30
0.0
 40
0
 41
0
  0
VERTEX
  8
0
 10
23.3461
 20
88.9063
 30
0.0
 40
0
 41
0
  0
VERTEX
  8
0
 10
23.4713
 20
88.7001
 30
0.0
 40
0
 41
0
  0
VERTEX
  8
0
 10
23.5765
 20
88.4815
 30
0.0
 40
0
 41
0
  0
VERTEX
  8
0
 10
23.6607
 20
88.2518
 30
0.0
 40
0
 41
0
  0
VERTEX
  8
0
 10
23.7222
 20
88.0122
 30
0.0
 40
0
 41
0
  0
VERTEX
  8
0
 10
23.7601
 20
87.764
 30
0.0
 40
0
 41
0
  0
VERTEX
  8
0
 10
23.7731
 20
87.5724
 30
0.0
 40
0
 41
0
  0
VERTEX
  8
0
 10
23.7731
 20
87.5085
 30
0.0
 40
0
 41
0
  0
VERTEX
  8
0
 10
23.7731
 20
87.4446
 30
0.0
 40
0
 41
0
  0
VERTEX
  8
0
 10
23.7601
 20
87.2528
 30
0.0
 40
0
 41
0
  0
VERTEX
  8
0
 10
23.7222
 20
87.0046
 30
0.0
 40
0
 41
0
  0
VERTEX
  8
0
 10
23.6607
 20
86.765
 30
0.0
 40
0
 41
0
  0
VERTEX
  8
0
 10
23.5765
 20
86.5353
 30
0.0
 40
0
 41
0
  0
VERTEX
  8
0
 10
23.4713
 20
86.3167
 30
0.0
 40
0
 41
0
  0
VERTEX
  8
0
 10
23.3461
 20
86.1106
 30
0.0
 40
0
 41
0
  0
VERTEX
  8
0
 10
23.2021
 20
85.9182
 30
0.0
 40
0
 41
0
  0
VERTEX
  8
0
 10
23.0408
 20
85.7406
 30
0.0
 40
0
 41
0
  0
VERTEX
  8
0
 10
22.8633
 20
85.5793
 30
0.0
 40
0
 41
0
  0
VERTEX
  8
0
 10
22.6708
 20
85.4353
 30
0.0
 40
0
 41
0
  0
VERTEX
  8
0
 10
22.4647
 20
85.3101
 30
0.0
 40
0
 41
0
  0
VERTEX
  8
0
 10
22.2461
 20
85.2049
 30
0.0
 40
0
 41
0
  0
VERTEX
  8
0
 10
22.0164
 20
85.1208
 30
0.0
 40
0
 41
0
  0
VERTEX
  8
0
 10
21.7768
 20
85.0592
 30
0.0
 40
0
 41
0
  0
VERTEX
  8
0
 10
21.5286
 20
85.0212
 30
0.0
 40
0
 41
0
  0
VERTEX
  8
0
 10
21.3369
 20
85.0083
 30
0.0
 40
0
 41
0
  0
VERTEX
  8
0
 10
21.2731
 20
85.0083
 30
0.0
 40
0
 41
0
  0
VERTEX
  8
0
 10
21.2092
 20
85.0083
 30
0.0
 40
0
 41
0
  0
VERTEX
  8
0
 10
21.0174
 20
84.9956
 30
0.0
 40
0
 41
0
  0
VERTEX
  8
0
 10
20.7692
 20
84.9576
 30
0.0
 40
0
 41
0
  0
VERTEX
  8
0
 10
20.5296
 20
84.896
 30
0.0
 40
0
 41
0
  0
VERTEX
  8
0
 10
20.2999
 20
84.8119
 30
0.0
 40
0
 41
0
  0
VERTEX
  8
0
 10
20.0814
 20
84.7067
 30
0.0
 40
0
 41
0
  0
VERTEX
  8
0
 10
19.8753
 20
84.5814
 30
0.0
 40
0
 41
0
  0
VERTEX
  8
0
 10
19.6828
 20
84.4375
 30
0.0
 40
0
 41
0
  0
VERTEX
  8
0
 10
19.5053
 20
84.2761
 30
0.0
 40
0
 41
0
  0
VERTEX
  8
0
 10
19.3439
 20
84.0986
 30
0.0
 40
0
 41
0
  0
VERTEX
  8
0
 10
19.2
 20
83.9063
 30
0.0
 40
0
 41
0
  0
VERTEX
  8
0
 10
19.0747
 20
83.7
 30
0.0
 40
0
 41
0
  0
VERTEX
  8
0
 10
18.9694
 20
83.4815
 30
0.0
 40
0
 41
0
  0
VERTEX
  8
0
 10
18.8854
 20
83.2518
 30
0.0
 40
0
 41
0
  0
VERTEX
  8
0
 10
18.8239
 20
83.0122
 30
0.0
 40
0
 41
0
  0
VERTEX
  8
0
 10
18.786
 20
82.764
 30
0.0
 40
0
 41
0
  0
VERTEX
  8
0
 10
18.7731
 20
82.5722
 30
0.0
 40
0
 41
0
  0
VERTEX
  8
0
 10
18.7731
 20
82.5083
 30
0.0
 40
0
 41
0
  0
VERTEX
  8
0
 10
18.7731
 20
82.4444
 30
0.0
 40
0
 41
0
  0
VERTEX
  8
0
 10
18.786
 20
82.2528
 30
0.0
 40
0
 41
0
  0
VERTEX
  8
0
 10
18.8239
 20
82.0046
 30
0.0
 40
0
 41
0
  0
VERTEX
  8
0
 10
18.8854
 20
81.765
 30
0.0
 40
0
 41
0
  0
VERTEX
  8
0
 10
18.9694
 20
81.5353
 30
0.0
 40
0
 41
0
  0
VERTEX
  8
0
 10
19.0747
 20
81.3167
 30
0.0
 40
0
 41
0
  0
VERTEX
  8
0
 10
19.2
 20
81.1106
 30
0.0
 40
0
 41
0
  0
VERTEX
  8
0
 10
19.3439
 20
80.9182
 30
0.0
 40
0
 41
0
  0
VERTEX
  8
0
 10
19.5053
 20
80.7406
 30
0.0
 40
0
 41
0
  0
VERTEX
  8
0
 10
19.6828
 20
80.5793
 30
0.0
 40
0
 41
0
  0
VERTEX
  8
0
 10
19.8753
 20
80.4353
 30
0.0
 40
0
 41
0
  0
VERTEX
  8
0
 10
20.0814
 20
80.3101
 30
0.0
 40
0
 41
0
  0
VERTEX
  8
0
 10
20.2999
 20
80.2049
 30
0.0
 40
0
 41
0
  0
VERTEX
  8
0
 10
20.5296
 20
80.1208
 30
0.0
 40
0
 41
0
  0
VERTEX
  8
0
 10
20.7692
 20
80.0592
 30
0.0
 40
0
 41
0
  0
VERTEX
  8
0
 10
21.0174
 20
80.0212
 30
0.0
 40
0
 41
0
  0
VERTEX
  8
0
 10
21.2092
 20
80.0083
 30
0.0
 40
0
 41
0
  0
VERTEX
  8
0
 10
21.2731
 20
80.0083
 30
0.0
 40
0
 41
0
  0
VERTEX
  8
0
 10
21.3369
 20
80.0083
 30
0.0
 40
0
 41
0
  0
VERTEX
  8
0
 10
21.5286
 20
79.9956
 30
0.0
 40
0
 41
0
  0
VERTEX
  8
0
 10
21.7768
 20
79.9576
 30
0.0
 40
0
 41
0
  0
VERTEX
  8
0
 10
22.0164
 20
79.896
 30
0.0
 40
0
 41
0
  0
VERTEX
  8
0
 10
22.2461
 20
79.8119
 30
0.0
 40
0
 41
0
  0
VERTEX
  8
0
 10
22.4647
 20
79.7067
 30
0.0
 40
0
 41
0
  0
VERTEX
  8
0
 10
22.6708
 20
79.5814
 30
0.0
 40
0
 41
0
  0
VERTEX
  8
0
 10
22.8633
 20
79.4375
 30
0.0
 40
0
 41
0
  0
VERTEX
  8
0
 10
23.0408
 20
79.2761
 30
0.0
 40
0
 41
0
  0
VERTEX
  8
0
 10
23.2021
 20
79.0986
 30
0.0
 40
0
 41
0
  0
VERTEX
  8
0
 10
23.3461
 20
78.9063
 30
0.0
 40
0
 41
0
  0
VERTEX
  8
0
 10
23.4713
 20
78.7
 30
0.0
 40
0
 41
0
  0
VERTEX
  8
0
 10
23.5765
 20
78.4815
 30
0.0
 40
0
 41
0
  0
VERTEX
  8
0
 10
23.6607
 20
78.2518
 30
0.0
 40
0
 41
0
  0
VERTEX
  8
0
 10
23.7222
 20
78.0122
 30
0.0
 40
0
 41
0
  0
VERTEX
  8
0
 10
23.7601
 20
77.764
 30
0.0
 40
0
 41
0
  0
VERTEX
  8
0
 10
23.7731
 20
77.5722
 30
0.0
 40
0
 41
0
  0
VERTEX
  8
0
 10
23.7731
 20
77.5083
 30
0.0
 40
0
 41
0
  0
VERTEX
  8
0
 10
23.7731
 20
77.4444
 30
0.0
 40
0
 41
0
  0
VERTEX
  8
0
 10
23.7601
 20
77.2528
 30
0.0
 40
0
 41
0
  0
VERTEX
  8
0
 10
23.7222
 20
77.0046
 30
0.0
 40
0
 41
0
  0
VERTEX
  8
0
 10
23.6607
 20
76.765
 30
0.0
 40
0
 41
0
  0
VERTEX
  8
0
 10
23.5765
 20
76.5353
 30
0.0
 40
0
 41
0
  0
VERTEX
  8
0
 10
23.4713
 20
76.3167
 30
0.0
 40
0
 41
0
  0
VERTEX
  8
0
 10
23.3461
 20
76.1106
 30
0.0
 40
0
 41
0
  0
VERTEX
  8
0
 10
23.2021
 20
75.9182
 30
0.0
 40
0
 41
0
  0
VERTEX
  8
0
 10
23.0408
 20
75.7406
 30
0.0
 40
0
 41
0
  0
VERTEX
  8
0
 10
22.8633
 20
75.5793
 30
0.0
 40
0
 41
0
  0
VERTEX
  8
0
 10
22.6708
 20
75.4353
 30
0.0
 40
0
 41
0
  0
VERTEX
  8
0
 10
22.4647
 20
75.3101
 30
0.0
 40
0
 41
0
  0
VERTEX
  8
0
 10
22.2461
 20
75.2049
 30
0.0
 40
0
 41
0
  0
VERTEX
  8
0
 10
22.0164
 20
75.1208
 30
0.0
 40
0
 41
0
  0
VERTEX
  8
0
 10
21.7768
 20
75.0592
 30
0.0
 40
0
 41
0
  0
VERTEX
  8
0
 10
21.5286
 20
75.0212
 30
0.0
 40
0
 41
0
  0
VERTEX
  8
0
 10
21.3369
 20
75.0083
 30
0.0
 40
0
 41
0
  0
VERTEX
  8
0
 10
21.2731
 20
75.0083
 30
0.0
 40
0
 41
0
  0
VERTEX
  8
0
 10
21.2092
 20
75.0083
 30
0.0
 40
0
 41
0
  0
VERTEX
  8
0
 10
21.0174
 20
74.9956
 30
0.0
 40
0
 41
0
  0
VERTEX
  8
0
 10
20.7692
 20
74.9576
 30
0.0
 40
0
 41
0
  0
VERTEX
  8
0
 10
20.5296
 20
74.896
 30
0.0
 40
0
 41
0
  0
VERTEX
  8
0
 10
20.2999
 20
74.8119
 30
0.0
 40
0
 41
0
  0
VERTEX
  8
0
 10
20.0814
 20
74.7067
 30
0.0
 40
0
 41
0
  0
VERTEX
  8
0
 10
19.8753
 20
74.5814
 30
0.0
 40
0
 41
0
  0
VERTEX
  8
0
 10
19.6828
 20
74.4375
 30
0.0
 40
0
 41
0
  0
VERTEX
  8
0
 10
19.5053
 20
74.2761
 30
0.0
 40
0
 41
0
  0
VERTEX
  8
0
 10
19.3439
 20
74.0986
 30
0.0
 40
0
 41
0
  0
VERTEX
  8
0
 10
19.2
 20
73.9061
 30
0.0
 40
0
 41
0
  0
VERTEX
  8
0
 10
19.0747
 20
73.7
 30
0.0
 40
0
 41
0
  0
VERTEX
  8
0
 10
18.9694
 20
73.4815
 30
0.0
 40
0
 41
0
  0
VERTEX
  8
0
 10
18.8854
 20
73.2518
 30
0.0
 40
0
 41
0
  0
VERTEX
  8
0
 10
18.8239
 20
73.0122
 30
0.0
 40
0
 41
0
  0
VERTEX
  8
0
 10
18.786
 20
72.764
 30
0.0
 40
0
 41
0
  0
VERTEX
  8
0
 10
18.7731
 20
72.5722
 30
0.0
 40
0
 41
0
  0
VERTEX
  8
0
 10
18.7731
 20
72.5083
 30
0.0
 40
0
 41
0
  0
VERTEX
  8
0
 10
18.7731
 20
72.4444
 30
0.0
 40
0
 41
0
  0
VERTEX
  8
0
 10
18.786
 20
72.2528
 30
0.0
 40
0
 41
0
  0
VERTEX
  8
0
 10
18.8239
 20
72.0046
 30
0.0
 40
0
 41
0
  0
VERTEX
  8
0
 10
18.8854
 20
71.765
 30
0.0
 40
0
 41
0
  0
VERTEX
  8
0
 10
18.9694
 20
71.5353
 30
0.0
 40
0
 41
0
  0
VERTEX
  8
0
 10
19.0747
 20
71.3167
 30
0.0
 40
0
 41
0
  0
VERTEX
  8
0
 10
19.2
 20
71.1106
 30
0.0
 40
0
 41
0
  0
VERTEX
  8
0
 10
19.3439
 20
70.9182
 30
0.0
 40
0
 41
0
  0
VERTEX
  8
0
 10
19.5053
 20
70.7406
 30
0.0
 40
0
 41
0
  0
VERTEX
  8
0
 10
19.6828
 20
70.5793
 30
0.0
 40
0
 41
0
  0
VERTEX
  8
0
 10
19.8753
 20
70.4353
 30
0.0
 40
0
 41
0
  0
VERTEX
  8
0
 10
20.0814
 20
70.3101
 30
0.0
 40
0
 41
0
  0
VERTEX
  8
0
 10
20.2999
 20
70.2049
 30
0.0
 40
0
 41
0
  0
VERTEX
  8
0
 10
20.5296
 20
70.1208
 30
0.0
 40
0
 41
0
  0
VERTEX
  8
0
 10
20.7692
 20
70.0592
 30
0.0
 40
0
 41
0
  0
VERTEX
  8
0
 10
21.0174
 20
70.0212
 30
0.0
 40
0
 41
0
  0
VERTEX
  8
0
 10
21.2092
 20
70.0083
 30
0.0
 40
0
 41
0
  0
VERTEX
  8
0
 10
21.2731
 20
70.0083
 30
0.0
 40
0
 41
0
  0
VERTEX
  8
0
 10
21.3369
 20
70.0083
 30
0.0
 40
0
 41
0
  0
VERTEX
  8
0
 10
21.5286
 20
69.9956
 30
0.0
 40
0
 41
0
  0
VERTEX
  8
0
 10
21.7768
 20
69.9576
 30
0.0
 40
0
 41
0
  0
VERTEX
  8
0
 10
22.0164
 20
69.896
 30
0.0
 40
0
 41
0
  0
VERTEX
  8
0
 10
22.2461
 20
69.8119
 30
0.0
 40
0
 41
0
  0
VERTEX
  8
0
 10
22.4647
 20
69.7067
 30
0.0
 40
0
 41
0
  0
VERTEX
  8
0
 10
22.6708
 20
69.5814
 30
0.0
 40
0
 41
0
  0
VERTEX
  8
0
 10
22.8633
 20
69.4375
 30
0.0
 40
0
 41
0
  0
VERTEX
  8
0
 10
23.0408
 20
69.2761
 30
0.0
 40
0
 41
0
  0
VERTEX
  8
0
 10
23.2021
 20
69.0986
 30
0.0
 40
0
 41
0
  0
VERTEX
  8
0
 10
23.3461
 20
68.9061
 30
0.0
 40
0
 41
0
  0
VERTEX
  8
0
 10
23.4713
 20
68.7
 30
0.0
 40
0
 41
0
  0
VERTEX
  8
0
 10
23.5765
 20
68.4815
 30
0.0
 40
0
 41
0
  0
VERTEX
  8
0
 10
23.6607
 20
68.2518
 30
0.0
 40
0
 41
0
  0
VERTEX
  8
0
 10
23.7222
 20
68.0122
 30
0.0
 40
0
 41
0
  0
VERTEX
  8
0
 10
23.7601
 20
67.764
 30
0.0
 40
0
 41
0
  0
VERTEX
  8
0
 10
23.7731
 20
67.5722
 30
0.0
 40
0
 41
0
  0
VERTEX
  8
0
 10
23.7731
 20
67.5083
 30
0.0
 40
0
 41
0
  0
VERTEX
  8
0
 10
23.7731
 20
67.4444
 30
0.0
 40
0
 41
0
  0
VERTEX
  8
0
 10
23.7601
 20
67.2528
 30
0.0
 40
0
 41
0
  0
VERTEX
  8
0
 10
23.7222
 20
67.0046
 30
0.0
 40
0
 41
0
  0
VERTEX
  8
0
 10
23.6607
 20
66.765
 30
0.0
 40
0
 41
0
  0
VERTEX
  8
0
 10
23.5765
 20
66.5353
 30
0.0
 40
0
 41
0
  0
VERTEX
  8
0
 10
23.4713
 20
66.3167
 30
0.0
 40
0
 41
0
  0
VERTEX
  8
0
 10
23.3461
 20
66.1106
 30
0.0
 40
0
 41
0
  0
VERTEX
  8
0
 10
23.2021
 20
65.9182
 30
0.0
 40
0
 41
0
  0
VERTEX
  8
0
 10
23.0408
 20
65.7406
 30
0.0
 40
0
 41
0
  0
VERTEX
  8
0
 10
22.8633
 20
65.5793
 30
0.0
 40
0
 41
0
  0
VERTEX
  8
0
 10
22.6708
 20
65.4353
 30
0.0
 40
0
 41
0
  0
VERTEX
  8
0
 10
22.4647
 20
65.3101
 30
0.0
 40
0
 41
0
  0
VERTEX
  8
0
 10
22.2461
 20
65.2049
 30
0.0
 40
0
 41
0
  0
VERTEX
  8
0
 10
22.0164
 20
65.1208
 30
0.0
 40
0
 41
0
  0
VERTEX
  8
0
 10
21.7768
 20
65.0592
 30
0.0
 40
0
 41
0
  0
VERTEX
  8
0
 10
21.5286
 20
65.0212
 30
0.0
 40
0
 41
0
  0
VERTEX
  8
0
 10
21.3369
 20
65.0083
 30
0.0
 40
0
 41
0
  0
VERTEX
  8
0
 10
21.2731
 20
65.0083
 30
0.0
 40
0
 41
0
  0
VERTEX
  8
0
 10
21.2092
 20
65.0083
 30
0.0
 40
0
 41
0
  0
VERTEX
  8
0
 10
21.0174
 20
64.9956
 30
0.0
 40
0
 41
0
  0
VERTEX
  8
0
 10
20.7692
 20
64.9576
 30
0.0
 40
0
 41
0
  0
VERTEX
  8
0
 10
20.5296
 20
64.896
 30
0.0
 40
0
 41
0
  0
VERTEX
  8
0
 10
20.2999
 20
64.8119
 30
0.0
 40
0
 41
0
  0
VERTEX
  8
0
 10
20.0814
 20
64.7067
 30
0.0
 40
0
 41
0
  0
VERTEX
  8
0
 10
19.8753
 20
64.5814
 30
0.0
 40
0
 41
0
  0
VERTEX
  8
0
 10
19.6828
 20
64.4375
 30
0.0
 40
0
 41
0
  0
VERTEX
  8
0
 10
19.5053
 20
64.2761
 30
0.0
 40
0
 41
0
  0
VERTEX
  8
0
 10
19.3439
 20
64.0986
 30
0.0
 40
0
 41
0
  0
VERTEX
  8
0
 10
19.2
 20
63.9061
 30
0.0
 40
0
 41
0
  0
VERTEX
  8
0
 10
19.0747
 20
63.7
 30
0.0
 40
0
 41
0
  0
VERTEX
  8
0
 10
18.9694
 20
63.4815
 30
0.0
 40
0
 41
0
  0
VERTEX
  8
0
 10
18.8854
 20
63.2518
 30
0.0
 40
0
 41
0
  0
VERTEX
  8
0
 10
18.8239
 20
63.0122
 30
0.0
 40
0
 41
0
  0
VERTEX
  8
0
 10
18.786
 20
62.764
 30
0.0
 40
0
 41
0
  0
VERTEX
  8
0
 10
18.7731
 20
62.5722
 30
0.0
 40
0
 41
0
  0
VERTEX
  8
0
 10
18.7731
 20
62.5083
 30
0.0
 40
0
 41
0
  0
VERTEX
  8
0
 10
18.7731
 20
62.4444
 30
0.0
 40
0
 41
0
  0
VERTEX
  8
0
 10
18.786
 20
62.2528
 30
0.0
 40
0
 41
0
  0
VERTEX
  8
0
 10
18.8239
 20
62.0046
 30
0.0
 40
0
 41
0
  0
VERTEX
  8
0
 10
18.8854
 20
61.7649
 30
0.0
 40
0
 41
0
  0
VERTEX
  8
0
 10
18.9694
 20
61.5353
 30
0.0
 40
0
 41
0
  0
VERTEX
  8
0
 10
19.0747
 20
61.3167
 30
0.0
 40
0
 41
0
  0
VERTEX
  8
0
 10
19.2
 20
61.1106
 30
0.0
 40
0
 41
0
  0
VERTEX
  8
0
 10
19.3439
 20
60.9182
 30
0.0
 40
0
 41
0
  0
VERTEX
  8
0
 10
19.5053
 20
60.7406
 30
0.0
 40
0
 41
0
  0
VERTEX
  8
0
 10
19.6828
 20
60.5793
 30
0.0
 40
0
 41
0
  0
VERTEX
  8
0
 10
19.8753
 20
60.4353
 30
0.0
 40
0
 41
0
  0
VERTEX
  8
0
 10
20.0814
 20
60.3101
 30
0.0
 40
0
 41
0
  0
VERTEX
  8
0
 10
20.2999
 20
60.2049
 30
0.0
 40
0
 41
0
  0
VERTEX
  8
0
 10
20.5296
 20
60.1208
 30
0.0
 40
0
 41
0
  0
VERTEX
  8
0
 10
20.7692
 20
60.0592
 30
0.0
 40
0
 41
0
  0
VERTEX
  8
0
 10
21.0174
 20
60.0212
 30
0.0
 40
0
 41
0
  0
VERTEX
  8
0
 10
21.2092
 20
60.0083
 30
0.0
 40
0
 41
0
  0
VERTEX
  8
0
 10
21.2731
 20
60.0083
 30
0.0
 40
0
 41
0
  0
VERTEX
  8
0
 10
21.3369
 20
60.0083
 30
0.0
 40
0
 41
0
  0
VERTEX
  8
0
 10
21.5286
 20
59.9956
 30
0.0
 40
0
 41
0
  0
VERTEX
  8
0
 10
21.7768
 20
59.9576
 30
0.0
 40
0
 41
0
  0
VERTEX
  8
0
 10
22.0164
 20
59.896
 30
0.0
 40
0
 41
0
  0
VERTEX
  8
0
 10
22.2461
 20
59.8119
 30
0.0
 40
0
 41
0
  0
VERTEX
  8
0
 10
22.4647
 20
59.7067
 30
0.0
 40
0
 41
0
  0
VERTEX
  8
0
 10
22.6708
 20
59.5814
 30
0.0
 40
0
 41
0
  0
VERTEX
  8
0
 10
22.8633
 20
59.4375
 30
0.0
 40
0
 41
0
  0
VERTEX
  8
0
 10
23.0408
 20
59.2761
 30
0.0
 40
0
 41
0
  0
VERTEX
  8
0
 10
23.2021
 20
59.0986
 30
0.0
 40
0
 41
0
  0
VERTEX
  8
0
 10
23.3461
 20
58.9061
 30
0.0
 40
0
 41
0
  0
VERTEX
  8
0
 10
23.4713
 20
58.7
 30
0.0
 40
0
 41
0
  0
VERTEX
  8
0
 10
23.5765
 20
58.4815
 30
0.0
 40
0
 41
0
  0
VERTEX
  8
0
 10
23.6607
 20
58.2518
 30
0.0
 40
0
 41
0
  0
VERTEX
  8
0
 10
23.7222
 20
58.0122
 30
0.0
 40
0
 41
0
  0
VERTEX
  8
0
 10
23.7601
 20
57.764
 30
0.0
 40
0
 41
0
  0
VERTEX
  8
0
 10
23.7731
 20
57.5722
 30
0.0
 40
0
 41
0
  0
VERTEX
  8
0
 10
23.7731
 20
57.5083
 30
0.0
 40
0
 41
0
  0
VERTEX
  8
0
 10
23.7731
 20
57.4444
 30
0.0
 40
0
 41
0
  0
VERTEX
  8
0
 10
23.7601
 20
57.2528
 30
0.0
 40
0
 41
0
  0
VERTEX
  8
0
 10
23.7222
 20
57.0046
 30
0.0
 40
0
 41
0
  0
VERTEX
  8
0
 10
23.6607
 20
56.7649
 30
0.0
 40
0
 41
0
  0
VERTEX
  8
0
 10
23.5765
 20
56.5353
 30
0.0
 40
0
 41
0
  0
VERTEX
  8
0
 10
23.4713
 20
56.3167
 30
0.0
 40
0
 41
0
  0
VERTEX
  8
0
 10
23.3461
 20
56.1106
 30
0.0
 40
0
 41
0
  0
VERTEX
  8
0
 10
23.2021
 20
55.9182
 30
0.0
 40
0
 41
0
  0
VERTEX
  8
0
 10
23.0408
 20
55.7406
 30
0.0
 40
0
 41
0
  0
VERTEX
  8
0
 10
22.8633
 20
55.5793
 30
0.0
 40
0
 41
0
  0
VERTEX
  8
0
 10
22.6708
 20
55.4353
 30
0.0
 40
0
 41
0
  0
VERTEX
  8
0
 10
22.4647
 20
55.3101
 30
0.0
 40
0
 41
0
  0
VERTEX
  8
0
 10
22.2461
 20
55.2049
 30
0.0
 40
0
 41
0
  0
VERTEX
  8
0
 10
22.0164
 20
55.1208
 30
0.0
 40
0
 41
0
  0
VERTEX
  8
0
 10
21.7768
 20
55.0592
 30
0.0
 40
0
 41
0
  0
VERTEX
  8
0
 10
21.5286
 20
55.0213
 30
0.0
 40
0
 41
0
  0
VERTEX
  8
0
 10
21.3369
 20
55.0083
 30
0.0
 40
0
 41
0
  0
VERTEX
  8
0
 10
21.2731
 20
55.0083
 30
0.0
 40
0
 41
0
  0
VERTEX
  8
0
 10
21.2092
 20
55.0083
 30
0.0
 40
0
 41
0
  0
VERTEX
  8
0
 10
21.0174
 20
54.9956
 30
0.0
 40
0
 41
0
  0
VERTEX
  8
0
 10
20.7692
 20
54.9576
 30
0.0
 40
0
 41
0
  0
VERTEX
  8
0
 10
20.5296
 20
54.896
 30
0.0
 40
0
 41
0
  0
VERTEX
  8
0
 10
20.2999
 20
54.8119
 30
0.0
 40
0
 41
0
  0
VERTEX
  8
0
 10
20.0814
 20
54.7067
 30
0.0
 40
0
 41
0
  0
VERTEX
  8
0
 10
19.8753
 20
54.5814
 30
0.0
 40
0
 41
0
  0
VERTEX
  8
0
 10
19.6828
 20
54.4375
 30
0.0
 40
0
 41
0
  0
VERTEX
  8
0
 10
19.5053
 20
54.2761
 30
0.0
 40
0
 41
0
  0
VERTEX
  8
0
 10
19.3439
 20
54.0986
 30
0.0
 40
0
 41
0
  0
VERTEX
  8
0
 10
19.2
 20
53.9061
 30
0.0
 40
0
 41
0
  0
VERTEX
  8
0
 10
19.0747
 20
53.7
 30
0.0
 40
0
 41
0
  0
VERTEX
  8
0
 10
18.9694
 20
53.4815
 30
0.0
 40
0
 41
0
  0
VERTEX
  8
0
 10
18.8854
 20
53.2518
 30
0.0
 40
0
 41
0
  0
VERTEX
  8
0
 10
18.8239
 20
53.0122
 30
0.0
 40
0
 41
0
  0
VERTEX
  8
0
 10
18.786
 20
52.764
 30
0.0
 40
0
 41
0
  0
VERTEX
  8
0
 10
18.7731
 20
52.5722
 30
0.0
 40
0
 41
0
  0
VERTEX
  8
0
 10
18.7731
 20
52.5083
 30
0.0
 40
0
 41
0
  0
VERTEX
  8
0
 10
18.7731
 20
52.4444
 30
0.0
 40
0
 41
0
  0
VERTEX
  8
0
 10
18.786
 20
52.2528
 30
0.0
 40
0
 41
0
  0
VERTEX
  8
0
 10
18.8239
 20
52.0046
 30
0.0
 40
0
 41
0
  0
VERTEX
  8
0
 10
18.8854
 20
51.7649
 30
0.0
 40
0
 41
0
  0
VERTEX
  8
0
 10
18.9694
 20
51.5353
 30
0.0
 40
0
 41
0
  0
VERTEX
  8
0
 10
19.0747
 20
51.3167
 30
0.0
 40
0
 41
0
  0
VERTEX
  8
0
 10
19.2
 20
51.1106
 30
0.0
 40
0
 41
0
  0
VERTEX
  8
0
 10
19.3439
 20
50.9182
 30
0.0
 40
0
 41
0
  0
VERTEX
  8
0
 10
19.5053
 20
50.7406
 30
0.0
 40
0
 41
0
  0
VERTEX
  8
0
 10
19.6828
 20
50.5792
 30
0.0
 40
0
 41
0
  0
VERTEX
  8
0
 10
19.8753
 20
50.4353
 30
0.0
 40
0
 41
0
  0
VERTEX
  8
0
 10
20.0814
 20
50.31
 30
0.0
 40
0
 41
0
  0
VERTEX
  8
0
 10
20.2999
 20
50.2049
 30
0.0
 40
0
 41
0
  0
VERTEX
  8
0
 10
20.5296
 20
50.1207
 30
0.0
 40
0
 41
0
  0
VERTEX
  8
0
 10
20.7692
 20
50.0592
 30
0.0
 40
0
 41
0
  0
VERTEX
  8
0
 10
21.0174
 20
50.0213
 30
0.0
 40
0
 41
0
  0
VERTEX
  8
0
 10
21.2092
 20
50.0083
 30
0.0
 40
0
 41
0
  0
VERTEX
  8
0
 10
21.2731
 20
50.0083
 30
0.0
 40
0
 41
0
  0
VERTEX
  8
0
 10
21.3369
 20
50.0083
 30
0.0
 40
0
 41
0
  0
VERTEX
  8
0
 10
21.5286
 20
49.9954
 30
0.0
 40
0
 41
0
  0
VERTEX
  8
0
 10
21.7768
 20
49.9575
 30
0.0
 40
0
 41
0
  0
VERTEX
  8
0
 10
22.0164
 20
49.896
 30
0.0
 40
0
 41
0
  0
VERTEX
  8
0
 10
22.2461
 20
49.8118
 30
0.0
 40
0
 41
0
  0
VERTEX
  8
0
 10
22.4647
 20
49.7067
 30
0.0
 40
0
 41
0
  0
VERTEX
  8
0
 10
22.6708
 20
49.5814
 30
0.0
 40
0
 41
0
  0
VERTEX
  8
0
 10
22.8633
 20
49.4375
 30
0.0
 40
0
 41
0
  0
VERTEX
  8
0
 10
23.0408
 20
49.2761
 30
0.0
 40
0
 41
0
  0
VERTEX
  8
0
 10
23.2021
 20
49.0986
 30
0.0
 40
0
 41
0
  0
VERTEX
  8
0
 10
23.3461
 20
48.9061
 30
0.0
 40
0
 41
0
  0
VERTEX
  8
0
 10
23.4713
 20
48.7
 30
0.0
 40
0
 41
0
  0
VERTEX
  8
0
 10
23.5765
 20
48.4814
 30
0.0
 40
0
 41
0
  0
VERTEX
  8
0
 10
23.6607
 20
48.2518
 30
0.0
 40
0
 41
0
  0
VERTEX
  8
0
 10
23.7222
 20
48.0122
 30
0.0
 40
0
 41
0
  0
VERTEX
  8
0
 10
23.7601
 20
47.7639
 30
0.0
 40
0
 41
0
  0
VERTEX
  8
0
 10
23.7731
 20
47.5722
 30
0.0
 40
0
 41
0
  0
VERTEX
  8
0
 10
23.7731
 20
47.5083
 30
0.0
 40
0
 41
0
  0
VERTEX
  8
0
 10
23.7731
 20
47.4444
 30
0.0
 40
0
 41
0
  0
VERTEX
  8
0
 10
23.7601
 20
47.2528
 30
0.0
 40
0
 41
0
  0
VERTEX
  8
0
 10
23.7222
 20
47.0044
 30
0.0
 40
0
 41
0
  0
VERTEX
  8
0
 10
23.6607
 20
46.7649
 30
0.0
 40
0
 41
0
  0
VERTEX
  8
0
 10
23.5765
 20
46.5353
 30
0.0
 40
0
 41
0
  0
VERTEX
  8
0
 10
23.4713
 20
46.3167
 30
0.0
 40
0
 41
0
  0
VERTEX
  8
0
 10
23.3461
 20
46.1106
 30
0.0
 40
0
 41
0
  0
VERTEX
  8
0
 10
23.2021
 20
45.9181
 30
0.0
 40
0
 41
0
  0
VERTEX
  8
0
 10
23.0408
 20
45.7406
 30
0.0
 40
0
 41
0
  0
VERTEX
  8
0
 10
22.8633
 20
45.5792
 30
0.0
 40
0
 41
0
  0
VERTEX
  8
0
 10
22.6708
 20
45.4353
 30
0.0
 40
0
 41
0
  0
VERTEX
  8
0
 10
22.4647
 20
45.31
 30
0.0
 40
0
 41
0
  0
VERTEX
  8
0
 10
22.2461
 20
45.2049
 30
0.0
 40
0
 41
0
  0
VERTEX
  8
0
 10
22.0164
 20
45.1207
 30
0.0
 40
0
 41
0
  0
VERTEX
  8
0
 10
21.7768
 20
45.0592
 30
0.0
 40
0
 41
0
  0
VERTEX
  8
0
 10
21.5286
 20
45.0213
 30
0.0
 40
0
 41
0
  0
VERTEX
  8
0
 10
21.3369
 20
45.0083
 30
0.0
 40
0
 41
0
  0
VERTEX
  8
0
 10
21.2731
 20
45.0083
 30
0.0
 40
0
 41
0
  0
VERTEX
  8
0
 10
21.2092
 20
45.0083
 30
0.0
 40
0
 41
0
  0
VERTEX
  8
0
 10
21.0174
 20
44.9954
 30
0.0
 40
0
 41
0
  0
VERTEX
  8
0
 10
20.7692
 20
44.9575
 30
0.0
 40
0
 41
0
  0
VERTEX
  8
0
 10
20.5296
 20
44.896
 30
0.0
 40
0
 41
0
  0
VERTEX
  8
0
 10
20.2999
 20
44.8118
 30
0.0
 40
0
 41
0
  0
VERTEX
  8
0
 10
20.0814
 20
44.7067
 30
0.0
 40
0
 41
0
  0
VERTEX
  8
0
 10
19.8753
 20
44.5814
 30
0.0
 40
0
 41
0
  0
VERTEX
  8
0
 10
19.6828
 20
44.4375
 30
0.0
 40
0
 41
0
  0
VERTEX
  8
0
 10
19.5053
 20
44.2761
 30
0.0
 40
0
 41
0
  0
VERTEX
  8
0
 10
19.3439
 20
44.0986
 30
0.0
 40
0
 41
0
  0
VERTEX
  8
0
 10
19.2
 20
43.9061
 30
0.0
 40
0
 41
0
  0
VERTEX
  8
0
 10
19.0747
 20
43.7
 30
0.0
 40
0
 41
0
  0
VERTEX
  8
0
 10
18.9694
 20
43.4814
 30
0.0
 40
0
 41
0
  0
VERTEX
  8
0
 10
18.8854
 20
43.2518
 30
0.0
 40
0
 41
0
  0
VERTEX
  8
0
 10
18.8239
 20
43.0122
 30
0.0
 40
0
 41
0
  0
VERTEX
  8
0
 10
18.786
 20
42.7639
 30
0.0
 40
0
 41
0
  0
VERTEX
  8
0
 10
18.7731
 20
42.5722
 30
0.0
 40
0
 41
0
  0
VERTEX
  8
0
 10
18.7731
 20
42.5083
 30
0.0
 40
0
 41
0
  0
VERTEX
  8
0
 10
18.7731
 20
42.4444
 30
0.0
 40
0
 41
0
  0
VERTEX
  8
0
 10
18.786
 20
42.2528
 30
0.0
 40
0
 41
0
  0
VERTEX
  8
0
 10
18.8239
 20
42.0044
 30
0.0
 40
0
 41
0
  0
VERTEX
  8
0
 10
18.8854
 20
41.7649
 30
0.0
 40
0
 41
0
  0
VERTEX
  8
0
 10
18.9694
 20
41.5353
 30
0.0
 40
0
 41
0
  0
VERTEX
  8
0
 10
19.0747
 20
41.3167
 30
0.0
 40
0
 41
0
  0
VERTEX
  8
0
 10
19.2
 20
41.1106
 30
0.0
 40
0
 41
0
  0
VERTEX
  8
0
 10
19.3439
 20
40.9181
 30
0.0
 40
0
 41
0
  0
VERTEX
  8
0
 10
19.5053
 20
40.7406
 30
0.0
 40
0
 41
0
  0
VERTEX
  8
0
 10
19.6828
 20
40.5792
 30
0.0
 40
0
 41
0
  0
VERTEX
  8
0
 10
19.8753
 20
40.4353
 30
0.0
 40
0
 41
0
  0
VERTEX
  8
0
 10
20.0814
 20
40.31
 30
0.0
 40
0
 41
0
  0
VERTEX
  8
0
 10
20.2999
 20
40.2049
 30
0.0
 40
0
 41
0
  0
VERTEX
  8
0
 10
20.5296
 20
40.1207
 30
0.0
 40
0
 41
0
  0
VERTEX
  8
0
 10
20.7692
 20
40.0592
 30
0.0
 40
0
 41
0
  0
VERTEX
  8
0
 10
21.0174
 20
40.0213
 30
0.0
 40
0
 41
0
  0
VERTEX
  8
0
 10
21.2092
 20
40.0083
 30
0.0
 40
0
 41
0
  0
VERTEX
  8
0
 10
21.2731
 20
40.0083
 30
0.0
 40
0
 41
0
  0
VERTEX
  8
0
 10
21.3369
 20
40.0083
 30
0.0
 40
0
 41
0
  0
VERTEX
  8
0
 10
21.5286
 20
39.9954
 30
0.0
 40
0
 41
0
  0
VERTEX
  8
0
 10
21.7768
 20
39.9575
 30
0.0
 40
0
 41
0
  0
VERTEX
  8
0
 10
22.0164
 20
39.896
 30
0.0
 40
0
 41
0
  0
VERTEX
  8
0
 10
22.2461
 20
39.8118
 30
0.0
 40
0
 41
0
  0
VERTEX
  8
0
 10
22.4647
 20
39.7067
 30
0.0
 40
0
 41
0
  0
VERTEX
  8
0
 10
22.6708
 20
39.5814
 30
0.0
 40
0
 41
0
  0
VERTEX
  8
0
 10
22.8633
 20
39.4375
 30
0.0
 40
0
 41
0
  0
VERTEX
  8
0
 10
23.0408
 20
39.2761
 30
0.0
 40
0
 41
0
  0
VERTEX
  8
0
 10
23.2021
 20
39.0986
 30
0.0
 40
0
 41
0
  0
VERTEX
  8
0
 10
23.3461
 20
38.9061
 30
0.0
 40
0
 41
0
  0
VERTEX
  8
0
 10
23.4713
 20
38.7
 30
0.0
 40
0
 41
0
  0
VERTEX
  8
0
 10
23.5765
 20
38.4814
 30
0.0
 40
0
 41
0
  0
VERTEX
  8
0
 10
23.6607
 20
38.2518
 30
0.0
 40
0
 41
0
  0
VERTEX
  8
0
 10
23.7222
 20
38.0122
 30
0.0
 40
0
 41
0
  0
VERTEX
  8
0
 10
23.7601
 20
37.7639
 30
0.0
 40
0
 41
0
  0
VERTEX
  8
0
 10
23.7731
 20
37.5722
 30
0.0
 40
0
 41
0
  0
VERTEX
  8
0
 10
23.7731
 20
37.5083
 30
0.0
 40
0
 41
0
  0
VERTEX
  8
0
 10
23.7731
 20
37.4444
 30
0.0
 40
0
 41
0
  0
VERTEX
  8
0
 10
23.7601
 20
37.2528
 30
0.0
 40
0
 41
0
  0
VERTEX
  8
0
 10
23.7222
 20
37.0044
 30
0.0
 40
0
 41
0
  0
VERTEX
  8
0
 10
23.6607
 20
36.7649
 30
0.0
 40
0
 41
0
  0
VERTEX
  8
0
 10
23.5765
 20
36.5353
 30
0.0
 40
0
 41
0
  0
VERTEX
  8
0
 10
23.4713
 20
36.3167
 30
0.0
 40
0
 41
0
  0
VERTEX
  8
0
 10
23.3461
 20
36.1106
 30
0.0
 40
0
 41
0
  0
VERTEX
  8
0
 10
23.2021
 20
35.9181
 30
0.0
 40
0
 41
0
  0
VERTEX
  8
0
 10
23.0408
 20
35.7406
 30
0.0
 40
0
 41
0
  0
VERTEX
  8
0
 10
22.8633
 20
35.5792
 30
0.0
 40
0
 41
0
  0
VERTEX
  8
0
 10
22.6708
 20
35.4353
 30
0.0
 40
0
 41
0
  0
VERTEX
  8
0
 10
22.4647
 20
35.31
 30
0.0
 40
0
 41
0
  0
VERTEX
  8
0
 10
22.2461
 20
35.2049
 30
0.0
 40
0
 41
0
  0
VERTEX
  8
0
 10
22.0164
 20
35.1207
 30
0.0
 40
0
 41
0
  0
VERTEX
  8
0
 10
21.7768
 20
35.0592
 30
0.0
 40
0
 41
0
  0
VERTEX
  8
0
 10
21.5286
 20
35.0213
 30
0.0
 40
0
 41
0
  0
VERTEX
  8
0
 10
21.3369
 20
35.0083
 30
0.0
 40
0
 41
0
  0
VERTEX
  8
0
 10
21.2731
 20
35.0083
 30
0.0
 40
0
 41
0
  0
VERTEX
  8
0
 10
21.2092
 20
35.0083
 30
0.0
 40
0
 41
0
  0
VERTEX
  8
0
 10
21.0174
 20
34.9954
 30
0.0
 40
0
 41
0
  0
VERTEX
  8
0
 10
20.7692
 20
34.9575
 30
0.0
 40
0
 41
0
  0
VERTEX
  8
0
 10
20.5296
 20
34.896
 30
0.0
 40
0
 41
0
  0
VERTEX
  8
0
 10
20.2999
 20
34.8118
 30
0.0
 40
0
 41
0
  0
VERTEX
  8
0
 10
20.0814
 20
34.7067
 30
0.0
 40
0
 41
0
  0
VERTEX
  8
0
 10
19.8753
 20
34.5814
 30
0.0
 40
0
 41
0
  0
VERTEX
  8
0
 10
19.6828
 20
34.4375
 30
0.0
 40
0
 41
0
  0
VERTEX
  8
0
 10
19.5053
 20
34.2761
 30
0.0
 40
0
 41
0
  0
VERTEX
  8
0
 10
19.3439
 20
34.0986
 30
0.0
 40
0
 41
0
  0
VERTEX
  8
0
 10
19.2
 20
33.9061
 30
0.0
 40
0
 41
0
  0
VERTEX
  8
0
 10
19.0747
 20
33.7
 30
0.0
 40
0
 41
0
  0
VERTEX
  8
0
 10
18.9694
 20
33.4814
 30
0.0
 40
0
 41
0
  0
VERTEX
  8
0
 10
18.8854
 20
33.2518
 30
0.0
 40
0
 41
0
  0
VERTEX
  8
0
 10
18.8239
 20
33.0122
 30
0.0
 40
0
 41
0
  0
VERTEX
  8
0
 10
18.786
 20
32.7639
 30
0.0
 40
0
 41
0
  0
VERTEX
  8
0
 10
18.7731
 20
32.5722
 30
0.0
 40
0
 41
0
  0
VERTEX
  8
0
 10
18.7731
 20
32.5083
 30
0.0
 40
0
 41
0
  0
VERTEX
  8
0
 10
18.7731
 20
32.4444
 30
0.0
 40
0
 41
0
  0
VERTEX
  8
0
 10
18.786
 20
32.2528
 30
0.0
 40
0
 41
0
  0
VERTEX
  8
0
 10
18.8239
 20
32.0044
 30
0.0
 40
0
 41
0
  0
VERTEX
  8
0
 10
18.8854
 20
31.7649
 30
0.0
 40
0
 41
0
  0
VERTEX
  8
0
 10
18.9694
 20
31.5353
 30
0.0
 40
0
 41
0
  0
VERTEX
  8
0
 10
19.0747
 20
31.3167
 30
0.0
 40
0
 41
0
  0
VERTEX
  8
0
 10
19.2
 20
31.1106
 30
0.0
 40
0
 41
0
  0
VERTEX
  8
0
 10
19.3439
 20
30.9181
 30
0.0
 40
0
 41
0
  0
VERTEX
  8
0
 10
19.5053
 20
30.7406
 30
0.0
 40
0
 41
0
  0
VERTEX
  8
0
 10
19.6828
 20
30.5792
 30
0.0
 40
0
 41
0
  0
VERTEX
  8
0
 10
19.8753
 20
30.4353
 30
0.0
 40
0
 41
0
  0
VERTEX
  8
0
 10
20.0814
 20
30.31
 30
0.0
 40
0
 41
0
  0
VERTEX
  8
0
 10
20.2999
 20
30.2049
 30
0.0
 40
0
 41
0
  0
VERTEX
  8
0
 10
20.5296
 20
30.1207
 30
0.0
 40
0
 41
0
  0
VERTEX
  8
0
 10
20.7692
 20
30.0592
 30
0.0
 40
0
 41
0
  0
VERTEX
  8
0
 10
21.0174
 20
30.0213
 30
0.0
 40
0
 41
0
  0
VERTEX
  8
0
 10
21.2092
 20
30.0083
 30
0.0
 40
0
 41
0
  0
VERTEX
  8
0
 10
21.2731
 20
30.0083
 30
0.0
 40
0
 41
0
  0
VERTEX
  8
0
 10
21.3369
 20
30.0083
 30
0.0
 40
0
 41
0
  0
VERTEX
  8
0
 10
21.5286
 20
29.9954
 30
0.0
 40
0
 41
0
  0
VERTEX
  8
0
 10
21.7768
 20
29.9575
 30
0.0
 40
0
 41
0
  0
VERTEX
  8
0
 10
22.0164
 20
29.896
 30
0.0
 40
0
 41
0
  0
VERTEX
  8
0
 10
22.2461
 20
29.8118
 30
0.0
 40
0
 41
0
  0
VERTEX
  8
0
 10
22.4647
 20
29.7067
 30
0.0
 40
0
 41
0
  0
VERTEX
  8
0
 10
22.6708
 20
29.5814
 30
0.0
 40
0
 41
0
  0
VERTEX
  8
0
 10
22.8633
 20
29.4375
 30
0.0
 40
0
 41
0
  0
VERTEX
  8
0
 10
23.0408
 20
29.2761
 30
0.0
 40
0
 41
0
  0
VERTEX
  8
0
 10
23.2021
 20
29.0986
 30
0.0
 40
0
 41
0
  0
VERTEX
  8
0
 10
23.3461
 20
28.9061
 30
0.0
 40
0
 41
0
  0
VERTEX
  8
0
 10
23.4713
 20
28.7
 30
0.0
 40
0
 41
0
  0
VERTEX
  8
0
 10
23.5765
 20
28.4814
 30
0.0
 40
0
 41
0
  0
VERTEX
  8
0
 10
23.6607
 20
28.2518
 30
0.0
 40
0
 41
0
  0
VERTEX
  8
0
 10
23.7222
 20
28.0122
 30
0.0
 40
0
 41
0
  0
VERTEX
  8
0
 10
23.7601
 20
27.7639
 30
0.0
 40
0
 41
0
  0
VERTEX
  8
0
 10
23.7731
 20
27.5722
 30
0.0
 40
0
 41
0
  0
VERTEX
  8
0
 10
23.7731
 20
27.5083
 30
0.0
 40
0
 41
0
  0
VERTEX
  8
0
 10
23.7731
 20
27.4444
 30
0.0
 40
0
 41
0
  0
VERTEX
  8
0
 10
23.7601
 20
27.2528
 30
0.0
 40
0
 41
0
  0
VERTEX
  8
0
 10
23.7222
 20
27.0044
 30
0.0
 40
0
 41
0
  0
VERTEX
  8
0
 10
23.6607
 20
26.7649
 30
0.0
 40
0
 41
0
  0
VERTEX
  8
0
 10
23.5765
 20
26.5353
 30
0.0
 40
0
 41
0
  0
VERTEX
  8
0
 10
23.4713
 20
26.3167
 30
0.0
 40
0
 41
0
  0
VERTEX
  8
0
 10
23.3461
 20
26.1106
 30
0.0
 40
0
 41
0
  0
VERTEX
  8
0
 10
23.2021
 20
25.9181
 30
0.0
 40
0
 41
0
  0
VERTEX
  8
0
 10
23.0408
 20
25.7406
 30
0.0
 40
0
 41
0
  0
VERTEX
  8
0
 10
22.8633
 20
25.5792
 30
0.0
 40
0
 41
0
  0
VERTEX
  8
0
 10
22.6708
 20
25.4353
 30
0.0
 40
0
 41
0
  0
VERTEX
  8
0
 10
22.4647
 20
25.31
 30
0.0
 40
0
 41
0
  0
VERTEX
  8
0
 10
22.2461
 20
25.2049
 30
0.0
 40
0
 41
0
  0
VERTEX
  8
0
 10
22.0164
 20
25.1207
 30
0.0
 40
0
 41
0
  0
VERTEX
  8
0
 10
21.7768
 20
25.0592
 30
0.0
 40
0
 41
0
  0
VERTEX
  8
0
 10
21.5286
 20
25.0213
 30
0.0
 40
0
 41
0
  0
VERTEX
  8
0
 10
21.3369
 20
25.0083
 30
0.0
 40
0
 41
0
  0
VERTEX
  8
0
 10
21.2731
 20
25.0083
 30
0.0
 40
0
 41
0
  0
VERTEX
  8
0
 10
21.2092
 20
25.0083
 30
0.0
 40
0
 41
0
  0
VERTEX
  8
0
 10
21.0174
 20
24.9954
 30
0.0
 40
0
 41
0
  0
VERTEX
  8
0
 10
20.7692
 20
24.9575
 30
0.0
 40
0
 41
0
  0
VERTEX
  8
0
 10
20.5296
 20
24.896
 30
0.0
 40
0
 41
0
  0
VERTEX
  8
0
 10
20.2999
 20
24.8118
 30
0.0
 40
0
 41
0
  0
VERTEX
  8
0
 10
20.0814
 20
24.7067
 30
0.0
 40
0
 41
0
  0
VERTEX
  8
0
 10
19.8753
 20
24.5814
 30
0.0
 40
0
 41
0
  0
VERTEX
  8
0
 10
19.6828
 20
24.4375
 30
0.0
 40
0
 41
0
  0
VERTEX
  8
0
 10
19.5053
 20
24.2761
 30
0.0
 40
0
 41
0
  0
VERTEX
  8
0
 10
19.3439
 20
24.0986
 30
0.0
 40
0
 41
0
  0
VERTEX
  8
0
 10
19.2
 20
23.9061
 30
0.0
 40
0
 41
0
  0
VERTEX
  8
0
 10
19.0747
 20
23.7
 30
0.0
 40
0
 41
0
  0
VERTEX
  8
0
 10
18.9694
 20
23.4814
 30
0.0
 40
0
 41
0
  0
VERTEX
  8
0
 10
18.8854
 20
23.2518
 30
0.0
 40
0
 41
0
  0
VERTEX
  8
0
 10
18.8239
 20
23.0122
 30
0.0
 40
0
 41
0
  0
VERTEX
  8
0
 10
18.786
 20
22.7639
 30
0.0
 40
0
 41
0
  0
VERTEX
  8
0
 10
18.7731
 20
22.5722
 30
0.0
 40
0
 41
0
  0
VERTEX
  8
0
 10
18.7731
 20
22.5083
 30
0.0
 40
0
 41
0
  0
VERTEX
  8
0
 10
18.7731
 20
22.4444
 30
0.0
 40
0
 41
0
  0
VERTEX
  8
0
 10
18.786
 20
22.2528
 30
0.0
 40
0
 41
0
  0
VERTEX
  8
0
 10
18.8239
 20
22.0044
 30
0.0
 40
0
 41
0
  0
VERTEX
  8
0
 10
18.8854
 20
21.7649
 30
0.0
 40
0
 41
0
  0
VERTEX
  8
0
 10
18.9694
 20
21.5353
 30
0.0
 40
0
 41
0
  0
VERTEX
  8
0
 10
19.0747
 20
21.3167
 30
0.0
 40
0
 41
0
  0
VERTEX
  8
0
 10
19.2
 20
21.1106
 30
0.0
 40
0
 41
0
  0
VERTEX
  8
0
 10
19.3439
 20
20.9181
 30
0.0
 40
0
 41
0
  0
VERTEX
  8
0
 10
19.5053
 20
20.7406
 30
0.0
 40
0
 41
0
  0
VERTEX
  8
0
 10
19.6828
 20
20.5792
 30
0.0
 40
0
 41
0
  0
VERTEX
  8
0
 10
19.8753
 20
20.4353
 30
0.0
 40
0
 41
0
  0
VERTEX
  8
0
 10
20.0814
 20
20.31
 30
0.0
 40
0
 41
0
  0
VERTEX
  8
0
 10
20.2999
 20
20.2049
 30
0.0
 40
0
 41
0
  0
VERTEX
  8
0
 10
20.5296
 20
20.1207
 30
0.0
 40
0
 41
0
  0
VERTEX
  8
0
 10
20.7692
 20
20.0592
 30
0.0
 40
0
 41
0
  0
VERTEX
  8
0
 10
21.0174
 20
20.0213
 30
0.0
 40
0
 41
0
  0
VERTEX
  8
0
 10
21.2092
 20
20.0083
 30
0.0
 40
0
 41
0
  0
VERTEX
  8
0
 10
21.2731
 20
20.0083
 30
0.0
 40
0
 41
0
  0
VERTEX
  8
0
 10
21.3369
 20
20.0083
 30
0.0
 40
0
 41
0
  0
VERTEX
  8
0
 10
21.5286
 20
19.9954
 30
0.0
 40
0
 41
0
  0
VERTEX
  8
0
 10
21.7768
 20
19.9575
 30
0.0
 40
0
 41
0
  0
VERTEX
  8
0
 10
22.0164
 20
19.896
 30
0.0
 40
0
 41
0
  0
VERTEX
  8
0
 10
22.2461
 20
19.8118
 30
0.0
 40
0
 41
0
  0
VERTEX
  8
0
 10
22.4647
 20
19.7067
 30
0.0
 40
0
 41
0
  0
VERTEX
  8
0
 10
22.6708
 20
19.5814
 30
0.0
 40
0
 41
0
  0
VERTEX
  8
0
 10
22.8633
 20
19.4375
 30
0.0
 40
0
 41
0
  0
VERTEX
  8
0
 10
23.0408
 20
19.2761
 30
0.0
 40
0
 41
0
  0
VERTEX
  8
0
 10
23.2021
 20
19.0986
 30
0.0
 40
0
 41
0
  0
VERTEX
  8
0
 10
23.3461
 20
18.9061
 30
0.0
 40
0
 41
0
  0
VERTEX
  8
0
 10
23.4713
 20
18.7
 30
0.0
 40
0
 41
0
  0
VERTEX
  8
0
 10
23.5765
 20
18.4814
 30
0.0
 40
0
 41
0
  0
VERTEX
  8
0
 10
23.6607
 20
18.2518
 30
0.0
 40
0
 41
0
  0
VERTEX
  8
0
 10
23.7222
 20
18.0122
 30
0.0
 40
0
 41
0
  0
VERTEX
  8
0
 10
23.7601
 20
17.7639
 30
0.0
 40
0
 41
0
  0
VERTEX
  8
0
 10
23.7731
 20
17.5722
 30
0.0
 40
0
 41
0
  0
VERTEX
  8
0
 10
23.7731
 20
17.5083
 30
0.0
 40
0
 41
0
  0
VERTEX
  8
0
 10
23.7731
 20
17.4444
 30
0.0
 40
0
 41
0
  0
VERTEX
  8
0
 10
23.7601
 20
17.2528
 30
0.0
 40
0
 41
0
  0
VERTEX
  8
0
 10
23.7222
 20
17.0044
 30
0.0
 40
0
 41
0
  0
VERTEX
  8
0
 10
23.6607
 20
16.7649
 30
0.0
 40
0
 41
0
  0
VERTEX
  8
0
 10
23.5765
 20
16.5353
 30
0.0
 40
0
 41
0
  0
VERTEX
  8
0
 10
23.4713
 20
16.3167
 30
0.0
 40
0
 41
0
  0
VERTEX
  8
0
 10
23.3461
 20
16.1106
 30
0.0
 40
0
 41
0
  0
VERTEX
  8
0
 10
23.2021
 20
15.9181
 30
0.0
 40
0
 41
0
  0
VERTEX
  8
0
 10
23.0408
 20
15.7406
 30
0.0
 40
0
 41
0
  0
VERTEX
  8
0
 10
22.8633
 20
15.5792
 30
0.0
 40
0
 41
0
  0
VERTEX
  8
0
 10
22.6708
 20
15.4353
 30
0.0
 40
0
 41
0
  0
VERTEX
  8
0
 10
22.4647
 20
15.31
 30
0.0
 40
0
 41
0
  0
VERTEX
  8
0
 10
22.2461
 20
15.2047
 30
0.0
 40
0
 41
0
  0
VERTEX
  8
0
 10
22.0164
 20
15.1207
 30
0.0
 40
0
 41
0
  0
VERTEX
  8
0
 10
21.7768
 20
15.059
 30
0.0
 40
0
 41
0
  0
VERTEX
  8
0
 10
21.5286
 20
15.0211
 30
0.0
 40
0
 41
0
  0
VERTEX
  8
0
 10
21.3369
 20
15.0082
 30
0.0
 40
0
 41
0
  0
VERTEX
  8
0
 10
21.2731
 20
15.0082
 30
0.0
 40
0
 41
0
  0
VERTEX
  8
0
 10
21.2092
 20
15.0082
 30
0.0
 40
0
 41
0
  0
VERTEX
  8
0
 10
21.0174
 20
14.9954
 30
0.0
 40
0
 41
0
  0
VERTEX
  8
0
 10
20.7692
 20
14.9575
 30
0.0
 40
0
 41
0
  0
VERTEX
  8
0
 10
20.5296
 20
14.8958
 30
0.0
 40
0
 41
0
  0
VERTEX
  8
0
 10
20.2999
 20
14.8118
 30
0.0
 40
0
 41
0
  0
VERTEX
  8
0
 10
20.0814
 20
14.7065
 30
0.0
 40
0
 41
0
  0
VERTEX
  8
0
 10
19.8753
 20
14.5814
 30
0.0
 40
0
 41
0
  0
VERTEX
  8
0
 10
19.6828
 20
14.4374
 30
0.0
 40
0
 41
0
  0
VERTEX
  8
0
 10
19.5053
 20
14.2761
 30
0.0
 40
0
 41
0
  0
VERTEX
  8
0
 10
19.3439
 20
14.0985
 30
0.0
 40
0
 41
0
  0
VERTEX
  8
0
 10
19.2
 20
13.9061
 30
0.0
 40
0
 41
0
  0
VERTEX
  8
0
 10
19.0747
 20
13.6999
 30
0.0
 40
0
 41
0
  0
VERTEX
  8
0
 10
18.9694
 20
13.4814
 30
0.0
 40
0
 41
0
  0
VERTEX
  8
0
 10
18.8854
 20
13.2517
 30
0.0
 40
0
 41
0
  0
VERTEX
  8
0
 10
18.8239
 20
13.0121
 30
0.0
 40
0
 41
0
  0
VERTEX
  8
0
 10
18.786
 20
12.7639
 30
0.0
 40
0
 41
0
  0
VERTEX
  8
0
 10
18.7731
 20
12.5722
 30
0.0
 40
0
 41
0
  0
VERTEX
  8
0
 10
18.7731
 20
12.5083
 30
0.0
 40
0
 41
0
  0
VERTEX
  8
0
 10
18.7731
 20
12.4444
 30
0.0
 40
0
 41
0
  0
VERTEX
  8
0
 10
18.786
 20
12.2527
 30
0.0
 40
0
 41
0
  0
VERTEX
  8
0
 10
18.8239
 20
12.0044
 30
0.0
 40
0
 41
0
  0
VERTEX
  8
0
 10
18.8854
 20
11.7649
 30
0.0
 40
0
 41
0
  0
VERTEX
  8
0
 10
18.9694
 20
11.5352
 30
0.0
 40
0
 41
0
  0
VERTEX
  8
0
 10
19.0747
 20
11.3166
 30
0.0
 40
0
 41
0
  0
VERTEX
  8
0
 10
19.2
 20
11.1105
 30
0.0
 40
0
 41
0
  0
VERTEX
  8
0
 10
19.3439
 20
10.918
 30
0.0
 40
0
 41
0
  0
VERTEX
  8
0
 10
19.5053
 20
10.7405
 30
0.0
 40
0
 41
0
  0
VERTEX
  8
0
 10
19.6828
 20
10.5792
 30
0.0
 40
0
 41
0
  0
VERTEX
  8
0
 10
19.8753
 20
10.4352
 30
0.0
 40
0
 41
0
  0
VERTEX
  8
0
 10
20.0814
 20
10.31
 30
0.0
 40
0
 41
0
  0
VERTEX
  8
0
 10
20.2999
 20
10.2048
 30
0.0
 40
0
 41
0
  0
VERTEX
  8
0
 10
20.5296
 20
10.1207
 30
0.0
 40
0
 41
0
  0
VERTEX
  8
0
 10
20.7692
 20
10.0591
 30
0.0
 40
0
 41
0
  0
VERTEX
  8
0
 10
21.0174
 20
10.0212
 30
0.0
 40
0
 41
0
  0
VERTEX
  8
0
 10
21.2092
 20
10.0082
 30
0.0
 40
0
 41
0
  0
VERTEX
  8
0
 10
21.2731
 20
10.0082
 30
0.0
 40
0
 41
0
  0
VERTEX
  8
0
 10
21.3369
 20
10.0082
 30
0.0
 40
0
 41
0
  0
VERTEX
  8
0
 10
21.5286
 20
9.99539
 30
0.0
 40
0
 41
0
  0
VERTEX
  8
0
 10
21.7768
 20
9.95747
 30
0.0
 40
0
 41
0
  0
VERTEX
  8
0
 10
22.0164
 20
9.89589
 30
0.0
 40
0
 41
0
  0
VERTEX
  8
0
 10
22.2461
 20
9.81179
 30
0.0
 40
0
 41
0
  0
VERTEX
  8
0
 10
22.4647
 20
9.70654
 30
0.0
 40
0
 41
0
  0
VERTEX
  8
0
 10
22.6708
 20
9.58132
 30
0.0
 40
0
 41
0
  0
VERTEX
  8
0
 10
22.8633
 20
9.43739
 30
0.0
 40
0
 41
0
  0
VERTEX
  8
0
 10
23.0408
 20
9.27604
 30
0.0
 40
0
 41
0
  0
VERTEX
  8
0
 10
23.2021
 20
9.09853
 30
0.0
 40
0
 41
0
  0
VERTEX
  8
0
 10
23.3461
 20
8.90608
 30
0.0
 40
0
 41
0
  0
VERTEX
  8
0
 10
23.4713
 20
8.69993
 30
0.0
 40
0
 41
0
  0
VERTEX
  8
0
 10
23.5765
 20
8.48139
 30
0.0
 40
0
 41
0
  0
VERTEX
  8
0
 10
23.6607
 20
8.25174
 30
0.0
 40
0
 41
0
  0
VERTEX
  8
0
 10
23.7222
 20
8.0121
 30
0.0
 40
0
 41
0
  0
VERTEX
  8
0
 10
23.7601
 20
7.76389
 30
0.0
 40
0
 41
0
  0
VERTEX
  8
0
 10
23.7731
 20
7.57215
 30
0.0
 40
0
 41
0
  0
VERTEX
  8
0
 10
23.7731
 20
7.50825
 30
0.0
 40
0
 41
0
  0
VERTEX
  8
0
 10
23.7731
 20
7.44439
 30
0.0
 40
0
 41
0
  0
VERTEX
  8
0
 10
23.7601
 20
7.25265
 30
0.0
 40
0
 41
0
  0
VERTEX
  8
0
 10
23.7222
 20
7.00444
 30
0.0
 40
0
 41
0
  0
VERTEX
  8
0
 10
23.6607
 20
6.76486
 30
0.0
 40
0
 41
0
  0
VERTEX
  8
0
 10
23.5765
 20
6.53515
 30
0.0
 40
0
 41
0
  0
VERTEX
  8
0
 10
23.4713
 20
6.31663
 30
0.0
 40
0
 41
0
  0
VERTEX
  8
0
 10
23.3461
 20
6.11051
 30
0.0
 40
0
 41
0
  0
VERTEX
  8
0
 10
23.2021
 20
5.91803
 30
0.0
 40
0
 41
0
  0
VERTEX
  8
0
 10
23.0408
 20
5.7405
 30
0.0
 40
0
 41
0
  0
VERTEX
  8
0
 10
22.8633
 20
5.57915
 30
0.0
 40
0
 41
0
  0
VERTEX
  8
0
 10
22.6708
 20
5.43522
 30
0.0
 40
0
 41
0
  0
VERTEX
  8
0
 10
22.4647
 20
5.31
 30
0.0
 40
0
 41
0
  0
VERTEX
  8
0
 10
22.2461
 20
5.20475
 30
0.0
 40
0
 41
0
  0
VERTEX
  8
0
 10
22.0164
 20
5.12067
 30
0.0
 40
0
 41
0
  0
VERTEX
  8
0
 10
21.7768
 20
5.05908
 30
0.0
 40
0
 41
0
  0
VERTEX
  8
0
 10
21.5286
 20
5.02115
 30
0.0
 40
0
 41
0
  0
VERTEX
  8
0
 10
21.3369
 20
5.00825
 30
0.0
 40
0
 41
0
  0
VERTEX
  8
0
 10
21.2731
 20
5.00825
 30
0.0
 40
0
 41
0
  0
VERTEX
  8
0
 10
21.2092
 20
5.00825
 30
0.0
 40
0
 41
0
  0
VERTEX
  8
0
 10
21.0174
 20
4.99539
 30
0.0
 40
0
 41
0
  0
VERTEX
  8
0
 10
20.7692
 20
4.95747
 30
0.0
 40
0
 41
0
  0
VERTEX
  8
0
 10
20.5296
 20
4.89589
 30
0.0
 40
0
 41
0
  0
VERTEX
  8
0
 10
20.2999
 20
4.81179
 30
0.0
 40
0
 41
0
  0
VERTEX
  8
0
 10
20.0814
 20
4.70654
 30
0.0
 40
0
 41
0
  0
VERTEX
  8
0
 10
19.8753
 20
4.58132
 30
0.0
 40
0
 41
0
  0
VERTEX
  8
0
 10
19.6828
 20
4.43739
 30
0.0
 40
0
 41
0
  0
VERTEX
  8
0
 10
19.5053
 20
4.27604
 30
0.0
 40
0
 41
0
  0
VERTEX
  8
0
 10
19.3439
 20
4.09853
 30
0.0
 40
0
 41
0
  0
VERTEX
  8
0
 10
19.2
 20
3.90603
 30
0.0
 40
0
 41
0
  0
VERTEX
  8
0
 10
19.0747
 20
3.69993
 30
0.0
 40
0
 41
0
  0
VERTEX
  8
0
 10
18.9694
 20
3.48139
 30
0.0
 40
0
 41
0
  0
VERTEX
  8
0
 10
18.8854
 20
3.25168
 30
0.0
 40
0
 41
0
  0
VERTEX
  8
0
 10
18.8239
 20
3.0121
 30
0.0
 40
0
 41
0
  0
VERTEX
  8
0
 10
18.786
 20
2.76389
 30
0.0
 40
0
 41
0
  0
VERTEX
  8
0
 10
18.7731
 20
2.57215
 30
0.0
 40
0
 41
0
  0
VERTEX
  8
0
 10
18.7731
 20
2.50825
 30
0.0
 40
0
 41
0
  0
VERTEX
  8
0
 10
18.7731
 20
2.44439
 30
0.0
 40
0
 41
0
  0
VERTEX
  8
0
 10
18.786
 20
2.25265
 30
0.0
 40
0
 41
0
  0
VERTEX
  8
0
 10
18.8239
 20
2.00444
 30
0.0
 40
0
 41
0
  0
VERTEX
  8
0
 10
18.8854
 20
1.76486
 30
0.0
 40
0
 41
0
  0
VERTEX
  8
0
 10
18.9694
 20
1.53515
 30
0.0
 40
0
 41
0
  0
VERTEX
  8
0
 10
19.0747
 20
1.31662
 30
0.0
 40
0
 41
0
  0
VERTEX
  8
0
 10
19.2
 20
1.11051
 30
0.0
 40
0
 41
0
  0
VERTEX
  8
0
 10
19.3439
 20
0.918024
 30
0.0
 40
0
 41
0
  0
VERTEX
  8
0
 10
19.5053
 20
0.740506
 30
0.0
 40
0
 41
0
  0
VERTEX
  8
0
 10
19.6828
 20
0.579156
 30
0.0
 40
0
 41
0
  0
VERTEX
  8
0
 10
19.8753
 20
0.435221
 30
0.0
 40
0
 41
0
  0
VERTEX
  8
0
 10
20.0814
 20
0.310004
 30
0.0
 40
0
 41
0
  0
VERTEX
  8
0
 10
20.2999
 20
0.204753
 30
0.0
 40
0
 41
0
  0
VERTEX
  8
0
 10
20.5296
 20
0.12066
 30
0.0
 40
0
 41
0
  0
VERTEX
  8
0
 10
20.7692
 20
0.0590821
 30
0.0
 40
0
 41
0
  0
VERTEX
  8
0
 10
21.0174
 20
0.0211589
 30
0.0
 40
0
 41
0
  0
VERTEX
  8
0
 10
21.2092
 20
0.00824653
 30
0.0
 40
0
 41
0
  0
VERTEX
  8
0
 10
21.2731
 20
0.00824653
 30
0.0
 40
0
 41
0
  0
VERTEX
  8
0
 10
41.2731
 20
0.00824653
 30
0.0
 40
0
 41
0
  0
SEQEND
 8
0
  0
ENDSEC
  0
EOF
