  0
SECTION
  2
BLOCKS
  0
ENDSEC
  0
SECTION
  2
ENTITIES
  0
LINE
  8
0
 10
6.2717
 20
-59.6713
 11
12.4747
 21
-58.6888
  0
LINE
  8
0
 10
12.4747
 20
-58.6888
 11
18.541
 21
-57.0634
  0
LINE
  8
0
 10
18.541
 20
-57.0634
 11
24.4042
 21
-54.8127
  0
LINE
  8
0
 10
24.4042
 20
-54.8127
 11
30
 21
-51.9615
  0
LINE
  8
0
 10
30
 20
-51.9615
 11
35.2671
 21
-48.541
  0
LINE
  8
0
 10
35.2671
 20
-48.541
 11
40.1478
 21
-44.5887
  0
LINE
  8
0
 10
40.1478
 20
-44.5887
 11
44.5887
 21
-40.1478
  0
LINE
  8
0
 10
44.5887
 20
-40.1478
 11
48.541
 21
-35.2671
  0
LINE
  8
0
 10
48.541
 20
-35.2671
 11
51.9615
 21
-30
  0
LINE
  8
0
 10
51.9615
 20
-30
 11
54.8127
 21
-24.4042
  0
LINE
  8
0
 10
54.8127
 20
-24.4042
 11
57.0634
 21
-18.541
  0
LINE
  8
0
 10
57.0634
 20
-18.541
 11
58.6888
 21
-12.4747
  0
LINE
  8
0
 10
58.6888
 20
-12.4747
 11
59.6713
 21
-6.2717
  0
LINE
  8
0
 10
59.6713
 20
-6.2717
 11
60
 21
0
  0
LINE
  8
0
 10
60
 20
0
 11
59.6713
 21
6.2717
  0
LINE
  8
0
 10
59.6713
 20
6.2717
 11
58.6888
 21
12.4747
  0
LINE
  8
0
 10
58.6888
 20
12.4747
 11
57.0634
 21
18.541
  0
LINE
  8
0
 10
57.0634
 20
18.541
 11
54.8127
 21
24.4042
  0
LINE
  8
0
 10
54.8127
 20
24.4042
 11
51.9615
 21
30
  0
LINE
  8
0
 10
51.9615
 20
30
 11
48.541
 21
35.2671
  0
LINE
  8
0
 10
48.541
 20
35.2671
 11
44.5887
 21
40.1478
  0
LINE
  8
0
 10
44.5887
 20
40.1478
 11
40.1478
 21
44.5887
  0
LINE
  8
0
 10
40.1478
 20
44.5887
 11
35.2671
 21
48.541
  0
LINE
  8
0
 10
35.2671
 20
48.541
 11
30
 21
51.9615
  0
LINE
  8
0
 10
30
 20
51.9615
 11
24.4042
 21
54.8127
  0
LINE
  8
0
 10
24.4042
 20
54.8127
 11
18.541
 21
57.0634
  0
LINE
  8
0
 10
18.541
 20
57.0634
 11
12.4747
 21
58.6888
  0
LINE
  8
0
 10
12.4747
 20
58.6888
 11
6.2717
 21
59.6713
  0
LINE
  8
0
 10
6.2717
 20
59.6713
 11
0
 21
60
  0
LINE
  8
0
 10
0
 20
60
 11
-6.2717
 21
59.6713
  0
LINE
  8
0
 10
-6.2717
 20
59.6713
 11
-12.4747
 21
58.6888
  0
LINE
  8
0
 10
-12.4747
 20
58.6888
 11
-18.541
 21
57.0634
  0
LINE
  8
0
 10
-18.541
 20
57.0634
 11
-24.4042
 21
54.8127
  0
LINE
  8
0
 10
-24.4042
 20
54.8127
 11
-30
 21
51.9615
  0
LINE
  8
0
 10
-30
 20
51.9615
 11
-35.2671
 21
48.541
  0
LINE
  8
0
 10
-35.2671
 20
48.541
 11
-40.1478
 21
44.5887
  0
LINE
  8
0
 10
-40.1478
 20
44.5887
 11
-44.5887
 21
40.1478
  0
LINE
  8
0
 10
-44.5887
 20
40.1478
 11
-48.541
 21
35.2671
  0
LINE
  8
0
 10
-48.541
 20
35.2671
 11
-51.9615
 21
30
  0
LINE
  8
0
 10
-51.9615
 20
30
 11
-54.8127
 21
24.4042
  0
LINE
  8
0
 10
-54.8127
 20
24.4042
 11
-57.0634
 21
18.541
  0
LINE
  8
0
 10
-57.0634
 20
18.541
 11
-58.6888
 21
12.4747
  0
LINE
  8
0
 10
-58.6888
 20
12.4747
 11
-59.6713
 21
6.2717
  0
LINE
  8
0
 10
-59.6713
 20
6.2717
 11
-60
 21
0
  0
LINE
  8
0
 10
-60
 20
0
 11
-59.6713
 21
-6.2717
  0
LINE
  8
0
 10
-59.6713
 20
-6.2717
 11
-58.6888
 21
-12.4747
  0
LINE
  8
0
 10
-58.6888
 20
-12.4747
 11
-57.0634
 21
-18.541
  0
LINE
  8
0
 10
-57.0634
 20
-18.541
 11
-54.8127
 21
-24.4042
  0
LINE
  8
0
 10
-54.8127
 20
-24.4042
 11
-51.9615
 21
-30
  0
LINE
  8
0
 10
-51.9615
 20
-30
 11
-48.541
 21
-35.2671
  0
LINE
  8
0
 10
-48.541
 20
-35.2671
 11
-44.5887
 21
-40.1478
  0
LINE
  8
0
 10
-44.5887
 20
-40.1478
 11
-40.1478
 21
-44.5887
  0
LINE
  8
0
 10
-40.1478
 20
-44.5887
 11
-35.2671
 21
-48.541
  0
LINE
  8
0
 10
-35.2671
 20
-48.541
 11
-30
 21
-51.9615
  0
LINE
  8
0
 10
-30
 20
-51.9615
 11
-24.4042
 21
-54.8127
  0
LINE
  8
0
 10
-24.4042
 20
-54.8127
 11
-18.541
 21
-57.0634
  0
LINE
  8
0
 10
-18.541
 20
-57.0634
 11
-12.4747
 21
-58.6888
  0
LINE
  8
0
 10
-12.4747
 20
-58.6888
 11
-6.2717
 21
-59.6713
  0
LINE
  8
0
 10
-6.2717
 20
-59.6713
 11
0
 21
-60
  0
LINE
  8
0
 10
0
 20
-60
 11
6.2717
 21
-59.6713
  0
LINE
  8
0
 10
-3.13585
 20
-29.8356
 11
-6.23735
 21
-29.3444
  0
LINE
  8
0
 10
-6.23735
 20
-29.3444
 11
-9.27051
 21
-28.5317
  0
LINE
  8
0
 10
-9.27051
 20
-28.5317
 11
-12.2021
 21
-27.4064
  0
LINE
  8
0
 10
-12.2021
 20
-27.4064
 11
-15
 21
-25.9808
  0
LINE
  8
0
 10
-15
 20
-25.9808
 11
-17.6335
 21
-24.2705
  0
LINE
  8
0
 10
-17.6335
 20
-24.2705
 11
-20.0739
 21
-22.2943
  0
LINE
  8
0
 10
-20.0739
 20
-22.2943
 11
-22.2943
 21
-20.0739
  0
LINE
  8
0
 10
-22.2943
 20
-20.0739
 11
-24.2705
 21
-17.6335
  0
LINE
  8
0
 10
-24.2705
 20
-17.6335
 11
-25.9808
 21
-15
  0
LINE
  8
0
 10
-25.9808
 20
-15
 11
-27.4064
 21
-12.2021
  0
LINE
  8
0
 10
-27.4064
 20
-12.2021
 11
-28.5317
 21
-9.27051
  0
LINE
  8
0
 10
-28.5317
 20
-9.27051
 11
-29.3444
 21
-6.23735
  0
LINE
  8
0
 10
-29.3444
 20
-6.23735
 11
-29.8356
 21
-3.13585
  0
LINE
  8
0
 10
-29.8356
 20
-3.13585
 11
-30
 21
0
  0
LINE
  8
0
 10
-30
 20
0
 11
-29.8356
 21
3.13585
  0
LINE
  8
0
 10
-29.8356
 20
3.13585
 11
-29.3444
 21
6.23735
  0
LINE
  8
0
 10
-29.3444
 20
6.23735
 11
-28.5317
 21
9.27051
  0
LINE
  8
0
 10
-28.5317
 20
9.27051
 11
-27.4064
 21
12.2021
  0
LINE
  8
0
 10
-27.4064
 20
12.2021
 11
-25.9808
 21
15
  0
LINE
  8
0
 10
-25.9808
 20
15
 11
-24.2705
 21
17.6335
  0
LINE
  8
0
 10
-24.2705
 20
17.6335
 11
-22.2943
 21
20.0739
  0
LINE
  8
0
 10
-22.2943
 20
20.0739
 11
-20.0739
 21
22.2943
  0
LINE
  8
0
 10
-20.0739
 20
22.2943
 11
-17.6335
 21
24.2705
  0
LINE
  8
0
 10
-17.6335
 20
24.2705
 11
-15
 21
25.9808
  0
LINE
  8
0
 10
-15
 20
25.9808
 11
-12.2021
 21
27.4064
  0
LINE
  8
0
 10
-12.2021
 20
27.4064
 11
-9.27051
 21
28.5317
  0
LINE
  8
0
 10
-9.27051
 20
28.5317
 11
-6.23735
 21
29.3444
  0
LINE
  8
0
 10
-6.23735
 20
29.3444
 11
-3.13585
 21
29.8356
  0
LINE
  8
0
 10
-3.13585
 20
29.8356
 11
0
 21
30
  0
LINE
  8
0
 10
0
 20
30
 11
3.13585
 21
29.8356
  0
LINE
  8
0
 10
3.13585
 20
29.8356
 11
6.23735
 21
29.3444
  0
LINE
  8
0
 10
6.23735
 20
29.3444
 11
9.27051
 21
28.5317
  0
LINE
  8
0
 10
9.27051
 20
28.5317
 11
12.2021
 21
27.4064
  0
LINE
  8
0
 10
12.2021
 20
27.4064
 11
15
 21
25.9808
  0
LINE
  8
0
 10
15
 20
25.9808
 11
17.6335
 21
24.2705
  0
LINE
  8
0
 10
17.6335
 20
24.2705
 11
20.0739
 21
22.2943
  0
LINE
  8
0
 10
20.0739
 20
22.2943
 11
22.2943
 21
20.0739
  0
LINE
  8
0
 10
22.2943
 20
20.0739
 11
24.2705
 21
17.6335
  0
LINE
  8
0
 10
24.2705
 20
17.6335
 11
25.9808
 21
15
  0
LINE
  8
0
 10
25.9808
 20
15
 11
27.4064
 21
12.2021
  0
LINE
  8
0
 10
27.4064
 20
12.2021
 11
28.5317
 21
9.27051
  0
LINE
  8
0
 10
28.5317
 20
9.27051
 11
29.3444
 21
6.23735
  0
LINE
  8
0
 10
29.3444
 20
6.23735
 11
29.8356
 21
3.13585
  0
LINE
  8
0
 10
29.8356
 20
3.13585
 11
30
 21
0
  0
LINE
  8
0
 10
30
 20
0
 11
29.8356
 21
-3.13585
  0
LINE
  8
0
 10
29.8356
 20
-3.13585
 11
29.3444
 21
-6.23735
  0
LINE
  8
0
 10
29.3444
 20
-6.23735
 11
28.5317
 21
-9.27051
  0
LINE
  8
0
 10
28.5317
 20
-9.27051
 11
27.4064
 21
-12.2021
  0
LINE
  8
0
 10
27.4064
 20
-12.2021
 11
25.9808
 21
-15
  0
LINE
  8
0
 10
25.9808
 20
-15
 11
24.2705
 21
-17.6335
  0
LINE
  8
0
 10
24.2705
 20
-17.6335
 11
22.2943
 21
-20.0739
  0
LINE
  8
0
 10
22.2943
 20
-20.0739
 11
20.0739
 21
-22.2943
  0
LINE
  8
0
 10
20.0739
 20
-22.2943
 11
17.6335
 21
-24.2705
  0
LINE
  8
0
 10
17.6335
 20
-24.2705
 11
15
 21
-25.9808
  0
LINE
  8
0
 10
15
 20
-25.9808
 11
12.2021
 21
-27.4064
  0
LINE
  8
0
 10
12.2021
 20
-27.4064
 11
9.27051
 21
-28.5317
  0
LINE
  8
0
 10
9.27051
 20
-28.5317
 11
6.23735
 21
-29.3444
  0
LINE
  8
0
 10
6.23735
 20
-29.3444
 11
3.13585
 21
-29.8356
  0
LINE
  8
0
 10
3.13585
 20
-29.8356
 11
0
 21
-30
  0
LINE
  8
0
 10
0
 20
-30
 11
-3.13585
 21
-29.8356
  0
ENDSEC
  0
SECTION
  2
OBJECTS
  0
DICTIONARY
  0
ENDSEC
  0
EOF
