<svg xmlns="http://www.w3.org/2000/svg" width="99.99999998972223mm" height="109.99999998869446mm" viewBox="0 0 283.4645669 311.81102359000005"><g transform="translate(0 0)"><g transform="translate(70.47803507939764 70.86624996312996) rotate(270)"><path d="M -55.454121886799996 11.7871380081 L -51.7916350315 23.05912089845 L -51.7916350315 23.0591180638 L -64.7395395374 28.823897579749996 L -64.7395395374 28.823897579749996 L -57.33200381089999 41.654138598799996 L -57.33200381089999 41.654138598799996 L -45.865600781 33.32330917825 L -45.865600781 33.32330917825 L -37.9350211058 42.13111098105 L -37.935023940449994 42.131108146399995 L -47.4187792169 52.663888017649995 L -47.4187792169 52.663888017649995 L -35.433125 61.37197250275 L -35.433125 61.37197250275 L -28.3465 49.09758083685 L -28.3465 49.09758083685 L -17.519100781 53.9182461545 L -17.51910361565 53.9182461545 L -21.898878810899998 67.39780911045 L -21.898878810899998 67.39780911045 L -7.407541395799999 70.47803617855 L -7.407541395799999 70.47803617855 L -5.9260342505 56.3824300767 L -5.9260342505 56.3824300767 L 5.92603141585 56.3824300767 L 5.926028581200001 56.3824300767 L 7.4075357265 70.47803617855 L 7.4075357265 70.47803617855 L 21.8988731416 67.39780911045 L 21.8988731416 67.39780911045 L 17.519097946349998 53.9182461545 L 17.519097946349998 53.9182461545 L 28.34649716535 49.09758083685 L 28.34649716535 49.09758083685 L 35.43312216535 61.37197250275 L 35.43312216535 61.37197250275 L 47.4187735476 52.663888017649995 L 47.4187735476 52.663888017649995 L 37.93501827115 42.13111098105 L 37.93501827115 42.13111098105 L 45.865600781 33.32330917825 L 45.865595111699996 33.3233120129 L 57.331998141599996 41.65414143345 L 57.331998141599996 41.65414143345 L 64.7395395374 28.8239004144 L 64.7395395374 28.8239004144 L 51.79162936219999 23.05912089845 L 51.79162936219999 23.05912089845 L 55.454121886799996 11.7871380081 L 55.454121886799996 11.78714084275 L 69.3176523585 14.733923927449998 L 69.3176523585 14.733923927449998 L 70.86625 0 L 70.86625 0 L 56.693 0 L 56.693 0 L 55.454121886799996 -11.7871380081 L 55.454121886799996 -11.78713517345 L 69.3176523585 -14.733918258149998 L 69.3176523585 -14.733918258149998 L 64.7395395374 -28.8239004144 L 64.7395395374 -28.8239004144 L 51.79162936219999 -23.0591180638 L 51.79162936219999 -23.0591180638 L 45.865600781 -33.32330917825 L 45.865600781 -33.323306343599995 L 57.33200381089999 -41.65413576415 L 57.33200381089999 -41.65413576415 L 47.4187735476 -52.663888017649995 L 47.4187735476 -52.663888017649995 L 37.93501827115 -42.131108146399995 L 37.93501827115 -42.131108146399995 L 28.34649716535 -49.09757516755 L 28.3465 -49.09757516755 L 35.433125 -61.37197250275 L 35.433125 -61.37197250275 L 21.8988731416 -67.39780911045 L 21.8988731416 -67.39780911045 L 17.519097946349998 -53.9182461545 L 17.519097946349998 -53.9182461545 L 5.92603141585 -56.3824300767 L 5.9260342505 -56.3824300767 L 7.407541395799999 -70.47803617855 L 7.407541395799999 -70.47803617855 L -7.407541395799999 -70.47803617855 L -7.407541395799999 -70.47803617855 L -5.9260342505 -56.3824300767 L -5.9260342505 -56.3824300767 L -17.519100781 -53.9182461545 L -17.519097946349998 -53.9182461545 L -21.8988731416 -67.39780911045 L -21.8988731416 -67.39780911045 L -35.433125 -61.37197250275 L -35.433125 -61.37197250275 L -28.3465 -49.09757516755 L -28.3465 -49.09757516755 L -37.9350211058 -42.131108146399995 L -37.9350211058 -42.13111098105 L -47.4187792169 -52.663888017649995 L -47.4187792169 -52.663888017649995 L -57.33200381089999 -41.654138598799996 L -57.33200381089999 -41.654138598799996 L -45.865600781 -33.32330917825 L -45.865600781 -33.32330917825 L -51.7916350315 -23.0591180638 L -51.79162936219999 -23.05912089845 L -64.7395395374 -28.823903249049998 L -64.7395395374 -28.823903249049998 L -69.3176523585 -14.7339210928 L -69.3176523585 -14.7339210928 L -55.454121886799996 -11.7871380081 L -55.454121886799996 -11.7871380081 L -56.693 0 L -56.693 -0.0000028346500000000005 L -70.86625 -0.0000028346500000000005 L -70.86625 -0.0000028346500000000005 L -69.3176523585 14.733923927449998 L -69.3176523585 14.733923927449998 L -55.454121886799996 11.7871380081 z"/></g></g></svg>