  0
SECTION
  2
BLOCKS
  0
ENDSEC
  0
SECTION
  2
ENTITIES
  0
LINE
  8
0
 10
208
 20
155
 11
208
 21
152
  0
LINE
  8
0
 10
208
 20
152
 11
211
 21
152
  0
LINE
  8
0
 10
211
 20
152
 11
211
 21
134
  0
LINE
  8
0
 10
211
 20
134
 11
205
 21
134
  0
LINE
  8
0
 10
205
 20
134
 11
205
 21
53
  0
LINE
  8
0
 10
205
 20
53
 11
211
 21
53
  0
LINE
  8
0
 10
211
 20
53
 11
211
 21
35
  0
LINE
  8
0
 10
211
 20
35
 11
208
 21
35
  0
LINE
  8
0
 10
208
 20
35
 11
208
 21
32
  0
LINE
  8
0
 10
208
 20
32
 11
205
 21
32
  0
LINE
  8
0
 10
205
 20
32
 11
205
 21
28
  0
LINE
  8
0
 10
205
 20
28
 11
205.074
 21
27.0614
  0
LINE
  8
0
 10
205.074
 20
27.0614
 11
205.294
 21
26.1459
  0
LINE
  8
0
 10
205.294
 20
26.1459
 11
205.654
 21
25.2761
  0
LINE
  8
0
 10
205.654
 20
25.2761
 11
206.146
 21
24.4733
  0
LINE
  8
0
 10
206.146
 20
24.4733
 11
206.757
 21
23.7574
  0
LINE
  8
0
 10
206.757
 20
23.7574
 11
207.473
 21
23.1459
  0
LINE
  8
0
 10
207.473
 20
23.1459
 11
208.276
 21
22.654
  0
LINE
  8
0
 10
208.276
 20
22.654
 11
209.146
 21
22.2937
  0
LINE
  8
0
 10
209.146
 20
22.2937
 11
210.061
 21
22.0739
  0
LINE
  8
0
 10
210.061
 20
22.0739
 11
211
 21
22
  0
LINE
  8
0
 10
211
 20
22
 11
219
 21
22
  0
LINE
  8
0
 10
219
 20
22
 11
220.948
 21
21.6749
  0
LINE
  8
0
 10
220.948
 20
21.6749
 11
222.685
 21
20.7348
  0
LINE
  8
0
 10
222.685
 20
20.7348
 11
224.023
 21
19.2817
  0
LINE
  8
0
 10
224.023
 20
19.2817
 11
224.816
 21
17.4729
  0
LINE
  8
0
 10
224.816
 20
17.4729
 11
224.938
 21
16
  0
LINE
  8
0
 10
224.938
 20
16
 11
225
 21
16
  0
LINE
  8
0
 10
225
 20
16
 11
225
 21
13
  0
LINE
  8
0
 10
225
 20
13
 11
225.074
 21
12.0614
  0
LINE
  8
0
 10
225.074
 20
12.0614
 11
225.294
 21
11.1459
  0
LINE
  8
0
 10
225.294
 20
11.1459
 11
225.654
 21
10.2761
  0
LINE
  8
0
 10
225.654
 20
10.2761
 11
226.146
 21
9.4733
  0
LINE
  8
0
 10
226.146
 20
9.4733
 11
226.757
 21
8.75737
  0
LINE
  8
0
 10
226.757
 20
8.75737
 11
227.473
 21
8.1459
  0
LINE
  8
0
 10
227.473
 20
8.1459
 11
228.276
 21
7.65396
  0
LINE
  8
0
 10
228.276
 20
7.65396
 11
229.146
 21
7.29367
  0
LINE
  8
0
 10
229.146
 20
7.29367
 11
230.061
 21
7.07388
  0
LINE
  8
0
 10
230.061
 20
7.07388
 11
231
 21
7
  0
LINE
  8
0
 10
231
 20
7
 11
241.625
 21
7
  0
LINE
  8
0
 10
241.625
 20
7
 11
241.625
 21
15
  0
LINE
  8
0
 10
241.625
 20
15
 11
241.695
 21
15.4442
  0
LINE
  8
0
 10
241.695
 20
15.4442
 11
241.9
 21
15.8449
  0
LINE
  8
0
 10
241.9
 20
15.8449
 11
242.218
 21
16.1629
  0
LINE
  8
0
 10
242.218
 20
16.1629
 11
242.618
 21
16.3671
  0
LINE
  8
0
 10
242.618
 20
16.3671
 11
243.062
 21
16.4375
  0
LINE
  8
0
 10
243.062
 20
16.4375
 11
243.507
 21
16.3671
  0
LINE
  8
0
 10
243.507
 20
16.3671
 11
243.907
 21
16.1629
  0
LINE
  8
0
 10
243.907
 20
16.1629
 11
244.225
 21
15.8449
  0
LINE
  8
0
 10
244.225
 20
15.8449
 11
244.43
 21
15.4442
  0
LINE
  8
0
 10
244.43
 20
15.4442
 11
244.5
 21
15
  0
LINE
  8
0
 10
244.5
 20
15
 11
244.5
 21
7
  0
LINE
  8
0
 10
244.5
 20
7
 11
275
 21
7
  0
LINE
  8
0
 10
275
 20
7
 11
275.939
 21
7.07388
  0
LINE
  8
0
 10
275.939
 20
7.07388
 11
276.854
 21
7.29367
  0
LINE
  8
0
 10
276.854
 20
7.29367
 11
277.724
 21
7.65396
  0
LINE
  8
0
 10
277.724
 20
7.65396
 11
278.527
 21
8.1459
  0
LINE
  8
0
 10
278.527
 20
8.1459
 11
279.243
 21
8.75737
  0
LINE
  8
0
 10
279.243
 20
8.75737
 11
279.854
 21
9.4733
  0
LINE
  8
0
 10
279.854
 20
9.4733
 11
280.346
 21
10.2761
  0
LINE
  8
0
 10
280.346
 20
10.2761
 11
280.706
 21
11.1459
  0
LINE
  8
0
 10
280.706
 20
11.1459
 11
280.926
 21
12.0614
  0
LINE
  8
0
 10
280.926
 20
12.0614
 11
281
 21
13
  0
LINE
  8
0
 10
281
 20
13
 11
281
 21
19.5249
  0
LINE
  8
0
 10
281
 20
19.5249
 11
274.063
 21
20.1318
  0
LINE
  8
0
 10
274.063
 20
20.1318
 11
261.52
 21
23.4929
  0
LINE
  8
0
 10
261.52
 20
23.4929
 11
249.75
 21
28.9811
  0
LINE
  8
0
 10
249.75
 20
28.9811
 11
239.112
 21
36.4297
  0
LINE
  8
0
 10
239.112
 20
36.4297
 11
229.93
 21
45.6123
  0
LINE
  8
0
 10
229.93
 20
45.6123
 11
222.481
 21
56.25
  0
LINE
  8
0
 10
222.481
 20
56.25
 11
216.993
 21
68.0195
  0
LINE
  8
0
 10
216.993
 20
68.0195
 11
213.632
 21
80.5632
  0
LINE
  8
0
 10
213.632
 20
80.5632
 11
212.5
 21
93.5
  0
LINE
  8
0
 10
212.5
 20
93.5
 11
213.632
 21
106.437
  0
LINE
  8
0
 10
213.632
 20
106.437
 11
216.993
 21
118.98
  0
LINE
  8
0
 10
216.993
 20
118.98
 11
222.481
 21
130.75
  0
LINE
  8
0
 10
222.481
 20
130.75
 11
229.93
 21
141.388
  0
LINE
  8
0
 10
229.93
 20
141.388
 11
238.5
 21
149.958
  0
LINE
  8
0
 10
238.5
 20
149.958
 11
238.5
 21
171
  0
LINE
  8
0
 10
238.5
 20
171
 11
228.985
 21
171
  0
LINE
  8
0
 10
228.985
 20
171
 11
228.985
 21
170.035
  0
LINE
  8
0
 10
228.985
 20
170.035
 11
229.207
 21
169.812
  0
LINE
  8
0
 10
229.207
 20
169.812
 11
229.434
 21
169.366
  0
LINE
  8
0
 10
229.434
 20
169.366
 11
229.513
 21
168.872
  0
LINE
  8
0
 10
229.513
 20
168.872
 11
229.434
 21
168.378
  0
LINE
  8
0
 10
229.434
 20
168.378
 11
229.207
 21
167.932
  0
LINE
  8
0
 10
229.207
 20
167.932
 11
228.853
 21
167.578
  0
LINE
  8
0
 10
228.853
 20
167.578
 11
228.407
 21
167.35
  0
LINE
  8
0
 10
228.407
 20
167.35
 11
227.913
 21
167.272
  0
LINE
  8
0
 10
227.913
 20
167.272
 11
227.418
 21
167.35
  0
LINE
  8
0
 10
227.418
 20
167.35
 11
226.972
 21
167.578
  0
LINE
  8
0
 10
226.972
 20
167.578
 11
226.75
 21
167.8
  0
LINE
  8
0
 10
226.75
 20
167.8
 11
210.335
 21
167.8
  0
LINE
  8
0
 10
210.335
 20
167.8
 11
210.112
 21
167.578
  0
LINE
  8
0
 10
210.112
 20
167.578
 11
209.666
 21
167.35
  0
LINE
  8
0
 10
209.666
 20
167.35
 11
209.172
 21
167.272
  0
LINE
  8
0
 10
209.172
 20
167.272
 11
208.678
 21
167.35
  0
LINE
  8
0
 10
208.678
 20
167.35
 11
208.232
 21
167.578
  0
LINE
  8
0
 10
208.232
 20
167.578
 11
207.878
 21
167.932
  0
LINE
  8
0
 10
207.878
 20
167.932
 11
207.65
 21
168.378
  0
LINE
  8
0
 10
207.65
 20
168.378
 11
207.572
 21
168.872
  0
LINE
  8
0
 10
207.572
 20
168.872
 11
207.65
 21
169.366
  0
LINE
  8
0
 10
207.65
 20
169.366
 11
207.878
 21
169.812
  0
LINE
  8
0
 10
207.878
 20
169.812
 11
208.1
 21
170.035
  0
LINE
  8
0
 10
208.1
 20
170.035
 11
208.1
 21
170.238
  0
LINE
  8
0
 10
208.1
 20
170.238
 11
207.473
 21
169.854
  0
LINE
  8
0
 10
207.473
 20
169.854
 11
206.757
 21
169.243
  0
LINE
  8
0
 10
206.757
 20
169.243
 11
206.146
 21
168.527
  0
LINE
  8
0
 10
206.146
 20
168.527
 11
205.654
 21
167.724
  0
LINE
  8
0
 10
205.654
 20
167.724
 11
205.294
 21
166.854
  0
LINE
  8
0
 10
205.294
 20
166.854
 11
205.074
 21
165.939
  0
LINE
  8
0
 10
205.074
 20
165.939
 11
205
 21
165
  0
LINE
  8
0
 10
205
 20
165
 11
205
 21
155
  0
LINE
  8
0
 10
205
 20
155
 11
208
 21
155
  0
ENDSEC
  0
SECTION
  2
OBJECTS
  0
DICTIONARY
  0
ENDSEC
  0
EOF
